<?xml version="1.0" encoding="utf-8" standalone="no"?>
<!DOCTYPE svg PUBLIC "-//W3C//DTD SVG 1.1//EN"
  "http://www.w3.org/Graphics/SVG/1.1/DTD/svg11.dtd">
<svg xmlns:xlink="http://www.w3.org/1999/xlink" width="576pt" height="432pt" viewBox="0 0 576 432" xmlns="http://www.w3.org/2000/svg" version="1.1">
 <metadata>
  <rdf:RDF xmlns:dc="http://purl.org/dc/elements/1.1/" xmlns:cc="http://creativecommons.org/ns#" xmlns:rdf="http://www.w3.org/1999/02/22-rdf-syntax-ns#">
   <cc:Work>
    <dc:type rdf:resource="http://purl.org/dc/dcmitype/StillImage"/>
    <dc:date>2025-08-21T00:21:47.848181</dc:date>
    <dc:format>image/svg+xml</dc:format>
    <dc:creator>
     <cc:Agent>
      <dc:title>Matplotlib v3.10.3, https://matplotlib.org/</dc:title>
     </cc:Agent>
    </dc:creator>
   </cc:Work>
  </rdf:RDF>
 </metadata>
 <defs>
  <style type="text/css">*{stroke-linejoin: round; stroke-linecap: butt}</style>
 </defs>
 <g id="figure_1">
  <g id="patch_1">
   <path d="M 0 432 
L 576 432 
L 576 0 
L 0 0 
z
" style="fill: #ffffff"/>
  </g>
  <g id="axes_1">
   <g id="patch_2">
    <path d="M 56.09 193.27 
L 557.325 193.27 
L 557.325 10.8 
L 56.09 10.8 
z
" style="fill: #ffffff"/>
   </g>
   <g id="matplotlib.axis_1">
    <g id="xtick_1">
     <g id="line2d_1">
      <path d="M 56.09 193.27 
L 56.09 10.8 
" clip-path="url(#p3e89ad9bab)" style="fill: none; stroke: #b0b0b0; stroke-width: 0.8; stroke-linecap: square"/>
     </g>
     <g id="line2d_2">
      <defs>
       <path id="mc4ea70dd7b" d="M 0 0 
L 0 3.5 
" style="stroke: #000000; stroke-width: 0.8"/>
      </defs>
      <g>
       <use xlink:href="#mc4ea70dd7b" x="56.09" y="193.27" style="stroke: #000000; stroke-width: 0.8"/>
      </g>
     </g>
    </g>
    <g id="xtick_2">
     <g id="line2d_3">
      <path d="M 127.695 193.27 
L 127.695 10.8 
" clip-path="url(#p3e89ad9bab)" style="fill: none; stroke: #b0b0b0; stroke-width: 0.8; stroke-linecap: square"/>
     </g>
     <g id="line2d_4">
      <g>
       <use xlink:href="#mc4ea70dd7b" x="127.695" y="193.27" style="stroke: #000000; stroke-width: 0.8"/>
      </g>
     </g>
    </g>
    <g id="xtick_3">
     <g id="line2d_5">
      <path d="M 199.3 193.27 
L 199.3 10.8 
" clip-path="url(#p3e89ad9bab)" style="fill: none; stroke: #b0b0b0; stroke-width: 0.8; stroke-linecap: square"/>
     </g>
     <g id="line2d_6">
      <g>
       <use xlink:href="#mc4ea70dd7b" x="199.3" y="193.27" style="stroke: #000000; stroke-width: 0.8"/>
      </g>
     </g>
    </g>
    <g id="xtick_4">
     <g id="line2d_7">
      <path d="M 270.905 193.27 
L 270.905 10.8 
" clip-path="url(#p3e89ad9bab)" style="fill: none; stroke: #b0b0b0; stroke-width: 0.8; stroke-linecap: square"/>
     </g>
     <g id="line2d_8">
      <g>
       <use xlink:href="#mc4ea70dd7b" x="270.905" y="193.27" style="stroke: #000000; stroke-width: 0.8"/>
      </g>
     </g>
    </g>
    <g id="xtick_5">
     <g id="line2d_9">
      <path d="M 342.51 193.27 
L 342.51 10.8 
" clip-path="url(#p3e89ad9bab)" style="fill: none; stroke: #b0b0b0; stroke-width: 0.8; stroke-linecap: square"/>
     </g>
     <g id="line2d_10">
      <g>
       <use xlink:href="#mc4ea70dd7b" x="342.51" y="193.27" style="stroke: #000000; stroke-width: 0.8"/>
      </g>
     </g>
    </g>
    <g id="xtick_6">
     <g id="line2d_11">
      <path d="M 414.115 193.27 
L 414.115 10.8 
" clip-path="url(#p3e89ad9bab)" style="fill: none; stroke: #b0b0b0; stroke-width: 0.8; stroke-linecap: square"/>
     </g>
     <g id="line2d_12">
      <g>
       <use xlink:href="#mc4ea70dd7b" x="414.115" y="193.27" style="stroke: #000000; stroke-width: 0.8"/>
      </g>
     </g>
    </g>
    <g id="xtick_7">
     <g id="line2d_13">
      <path d="M 485.72 193.27 
L 485.72 10.8 
" clip-path="url(#p3e89ad9bab)" style="fill: none; stroke: #b0b0b0; stroke-width: 0.8; stroke-linecap: square"/>
     </g>
     <g id="line2d_14">
      <g>
       <use xlink:href="#mc4ea70dd7b" x="485.72" y="193.27" style="stroke: #000000; stroke-width: 0.8"/>
      </g>
     </g>
    </g>
    <g id="xtick_8">
     <g id="line2d_15">
      <path d="M 557.325 193.27 
L 557.325 10.8 
" clip-path="url(#p3e89ad9bab)" style="fill: none; stroke: #b0b0b0; stroke-width: 0.8; stroke-linecap: square"/>
     </g>
     <g id="line2d_16">
      <g>
       <use xlink:href="#mc4ea70dd7b" x="557.325" y="193.27" style="stroke: #000000; stroke-width: 0.8"/>
      </g>
     </g>
    </g>
   </g>
   <g id="matplotlib.axis_2">
    <g id="ytick_1">
     <g id="line2d_17">
      <path d="M 56.09 184.975909 
L 557.325 184.975909 
" clip-path="url(#p3e89ad9bab)" style="fill: none; stroke: #b0b0b0; stroke-width: 0.8; stroke-linecap: square"/>
     </g>
     <g id="line2d_18">
      <defs>
       <path id="m7abc1f5eb6" d="M 0 0 
L -3.5 0 
" style="stroke: #000000; stroke-width: 0.8"/>
      </defs>
      <g>
       <use xlink:href="#m7abc1f5eb6" x="56.09" y="184.975909" style="stroke: #000000; stroke-width: 0.8"/>
      </g>
     </g>
     <g id="text_1">
      <!-- −0.3 -->
      <g transform="translate(24.807188 188.775128) scale(0.1 -0.1)">
       <defs>
        <path id="DejaVuSans-2212" d="M 678 2272 
L 4684 2272 
L 4684 1741 
L 678 1741 
L 678 2272 
z
" transform="scale(0.015625)"/>
        <path id="DejaVuSans-30" d="M 2034 4250 
Q 1547 4250 1301 3770 
Q 1056 3291 1056 2328 
Q 1056 1369 1301 889 
Q 1547 409 2034 409 
Q 2525 409 2770 889 
Q 3016 1369 3016 2328 
Q 3016 3291 2770 3770 
Q 2525 4250 2034 4250 
z
M 2034 4750 
Q 2819 4750 3233 4129 
Q 3647 3509 3647 2328 
Q 3647 1150 3233 529 
Q 2819 -91 2034 -91 
Q 1250 -91 836 529 
Q 422 1150 422 2328 
Q 422 3509 836 4129 
Q 1250 4750 2034 4750 
z
" transform="scale(0.015625)"/>
        <path id="DejaVuSans-2e" d="M 684 794 
L 1344 794 
L 1344 0 
L 684 0 
L 684 794 
z
" transform="scale(0.015625)"/>
        <path id="DejaVuSans-33" d="M 2597 2516 
Q 3050 2419 3304 2112 
Q 3559 1806 3559 1356 
Q 3559 666 3084 287 
Q 2609 -91 1734 -91 
Q 1441 -91 1130 -33 
Q 819 25 488 141 
L 488 750 
Q 750 597 1062 519 
Q 1375 441 1716 441 
Q 2309 441 2620 675 
Q 2931 909 2931 1356 
Q 2931 1769 2642 2001 
Q 2353 2234 1838 2234 
L 1294 2234 
L 1294 2753 
L 1863 2753 
Q 2328 2753 2575 2939 
Q 2822 3125 2822 3475 
Q 2822 3834 2567 4026 
Q 2313 4219 1838 4219 
Q 1578 4219 1281 4162 
Q 984 4106 628 3988 
L 628 4550 
Q 988 4650 1302 4700 
Q 1616 4750 1894 4750 
Q 2613 4750 3031 4423 
Q 3450 4097 3450 3541 
Q 3450 3153 3228 2886 
Q 3006 2619 2597 2516 
z
" transform="scale(0.015625)"/>
       </defs>
       <use xlink:href="#DejaVuSans-2212"/>
       <use xlink:href="#DejaVuSans-30" transform="translate(83.789062 0)"/>
       <use xlink:href="#DejaVuSans-2e" transform="translate(147.412109 0)"/>
       <use xlink:href="#DejaVuSans-33" transform="translate(179.199219 0)"/>
      </g>
     </g>
    </g>
    <g id="ytick_2">
     <g id="line2d_19">
      <path d="M 56.09 157.328939 
L 557.325 157.328939 
" clip-path="url(#p3e89ad9bab)" style="fill: none; stroke: #b0b0b0; stroke-width: 0.8; stroke-linecap: square"/>
     </g>
     <g id="line2d_20">
      <g>
       <use xlink:href="#m7abc1f5eb6" x="56.09" y="157.328939" style="stroke: #000000; stroke-width: 0.8"/>
      </g>
     </g>
     <g id="text_2">
      <!-- −0.2 -->
      <g transform="translate(24.807188 161.128158) scale(0.1 -0.1)">
       <defs>
        <path id="DejaVuSans-32" d="M 1228 531 
L 3431 531 
L 3431 0 
L 469 0 
L 469 531 
Q 828 903 1448 1529 
Q 2069 2156 2228 2338 
Q 2531 2678 2651 2914 
Q 2772 3150 2772 3378 
Q 2772 3750 2511 3984 
Q 2250 4219 1831 4219 
Q 1534 4219 1204 4116 
Q 875 4013 500 3803 
L 500 4441 
Q 881 4594 1212 4672 
Q 1544 4750 1819 4750 
Q 2544 4750 2975 4387 
Q 3406 4025 3406 3419 
Q 3406 3131 3298 2873 
Q 3191 2616 2906 2266 
Q 2828 2175 2409 1742 
Q 1991 1309 1228 531 
z
" transform="scale(0.015625)"/>
       </defs>
       <use xlink:href="#DejaVuSans-2212"/>
       <use xlink:href="#DejaVuSans-30" transform="translate(83.789062 0)"/>
       <use xlink:href="#DejaVuSans-2e" transform="translate(147.412109 0)"/>
       <use xlink:href="#DejaVuSans-32" transform="translate(179.199219 0)"/>
      </g>
     </g>
    </g>
    <g id="ytick_3">
     <g id="line2d_21">
      <path d="M 56.09 129.68197 
L 557.325 129.68197 
" clip-path="url(#p3e89ad9bab)" style="fill: none; stroke: #b0b0b0; stroke-width: 0.8; stroke-linecap: square"/>
     </g>
     <g id="line2d_22">
      <g>
       <use xlink:href="#m7abc1f5eb6" x="56.09" y="129.68197" style="stroke: #000000; stroke-width: 0.8"/>
      </g>
     </g>
     <g id="text_3">
      <!-- −0.1 -->
      <g transform="translate(24.807188 133.481188) scale(0.1 -0.1)">
       <defs>
        <path id="DejaVuSans-31" d="M 794 531 
L 1825 531 
L 1825 4091 
L 703 3866 
L 703 4441 
L 1819 4666 
L 2450 4666 
L 2450 531 
L 3481 531 
L 3481 0 
L 794 0 
L 794 531 
z
" transform="scale(0.015625)"/>
       </defs>
       <use xlink:href="#DejaVuSans-2212"/>
       <use xlink:href="#DejaVuSans-30" transform="translate(83.789062 0)"/>
       <use xlink:href="#DejaVuSans-2e" transform="translate(147.412109 0)"/>
       <use xlink:href="#DejaVuSans-31" transform="translate(179.199219 0)"/>
      </g>
     </g>
    </g>
    <g id="ytick_4">
     <g id="line2d_23">
      <path d="M 56.09 102.035 
L 557.325 102.035 
" clip-path="url(#p3e89ad9bab)" style="fill: none; stroke: #b0b0b0; stroke-width: 0.8; stroke-linecap: square"/>
     </g>
     <g id="line2d_24">
      <g>
       <use xlink:href="#m7abc1f5eb6" x="56.09" y="102.035" style="stroke: #000000; stroke-width: 0.8"/>
      </g>
     </g>
     <g id="text_4">
      <!-- 0.0 -->
      <g transform="translate(33.186875 105.834219) scale(0.1 -0.1)">
       <use xlink:href="#DejaVuSans-30"/>
       <use xlink:href="#DejaVuSans-2e" transform="translate(63.623047 0)"/>
       <use xlink:href="#DejaVuSans-30" transform="translate(95.410156 0)"/>
      </g>
     </g>
    </g>
    <g id="ytick_5">
     <g id="line2d_25">
      <path d="M 56.09 74.38803 
L 557.325 74.38803 
" clip-path="url(#p3e89ad9bab)" style="fill: none; stroke: #b0b0b0; stroke-width: 0.8; stroke-linecap: square"/>
     </g>
     <g id="line2d_26">
      <g>
       <use xlink:href="#m7abc1f5eb6" x="56.09" y="74.38803" style="stroke: #000000; stroke-width: 0.8"/>
      </g>
     </g>
     <g id="text_5">
      <!-- 0.1 -->
      <g transform="translate(33.186875 78.187249) scale(0.1 -0.1)">
       <use xlink:href="#DejaVuSans-30"/>
       <use xlink:href="#DejaVuSans-2e" transform="translate(63.623047 0)"/>
       <use xlink:href="#DejaVuSans-31" transform="translate(95.410156 0)"/>
      </g>
     </g>
    </g>
    <g id="ytick_6">
     <g id="line2d_27">
      <path d="M 56.09 46.741061 
L 557.325 46.741061 
" clip-path="url(#p3e89ad9bab)" style="fill: none; stroke: #b0b0b0; stroke-width: 0.8; stroke-linecap: square"/>
     </g>
     <g id="line2d_28">
      <g>
       <use xlink:href="#m7abc1f5eb6" x="56.09" y="46.741061" style="stroke: #000000; stroke-width: 0.8"/>
      </g>
     </g>
     <g id="text_6">
      <!-- 0.2 -->
      <g transform="translate(33.186875 50.540279) scale(0.1 -0.1)">
       <use xlink:href="#DejaVuSans-30"/>
       <use xlink:href="#DejaVuSans-2e" transform="translate(63.623047 0)"/>
       <use xlink:href="#DejaVuSans-32" transform="translate(95.410156 0)"/>
      </g>
     </g>
    </g>
    <g id="ytick_7">
     <g id="line2d_29">
      <path d="M 56.09 19.094091 
L 557.325 19.094091 
" clip-path="url(#p3e89ad9bab)" style="fill: none; stroke: #b0b0b0; stroke-width: 0.8; stroke-linecap: square"/>
     </g>
     <g id="line2d_30">
      <g>
       <use xlink:href="#m7abc1f5eb6" x="56.09" y="19.094091" style="stroke: #000000; stroke-width: 0.8"/>
      </g>
     </g>
     <g id="text_7">
      <!-- 0.3 -->
      <g transform="translate(33.186875 22.89331) scale(0.1 -0.1)">
       <use xlink:href="#DejaVuSans-30"/>
       <use xlink:href="#DejaVuSans-2e" transform="translate(63.623047 0)"/>
       <use xlink:href="#DejaVuSans-33" transform="translate(95.410156 0)"/>
      </g>
     </g>
    </g>
    <g id="text_8">
     <!-- Port:100 -->
     <g transform="translate(18.7275 123.171719) rotate(-90) scale(0.1 -0.1)">
      <defs>
       <path id="DejaVuSans-50" d="M 1259 4147 
L 1259 2394 
L 2053 2394 
Q 2494 2394 2734 2622 
Q 2975 2850 2975 3272 
Q 2975 3691 2734 3919 
Q 2494 4147 2053 4147 
L 1259 4147 
z
M 628 4666 
L 2053 4666 
Q 2838 4666 3239 4311 
Q 3641 3956 3641 3272 
Q 3641 2581 3239 2228 
Q 2838 1875 2053 1875 
L 1259 1875 
L 1259 0 
L 628 0 
L 628 4666 
z
" transform="scale(0.015625)"/>
       <path id="DejaVuSans-6f" d="M 1959 3097 
Q 1497 3097 1228 2736 
Q 959 2375 959 1747 
Q 959 1119 1226 758 
Q 1494 397 1959 397 
Q 2419 397 2687 759 
Q 2956 1122 2956 1747 
Q 2956 2369 2687 2733 
Q 2419 3097 1959 3097 
z
M 1959 3584 
Q 2709 3584 3137 3096 
Q 3566 2609 3566 1747 
Q 3566 888 3137 398 
Q 2709 -91 1959 -91 
Q 1206 -91 779 398 
Q 353 888 353 1747 
Q 353 2609 779 3096 
Q 1206 3584 1959 3584 
z
" transform="scale(0.015625)"/>
       <path id="DejaVuSans-72" d="M 2631 2963 
Q 2534 3019 2420 3045 
Q 2306 3072 2169 3072 
Q 1681 3072 1420 2755 
Q 1159 2438 1159 1844 
L 1159 0 
L 581 0 
L 581 3500 
L 1159 3500 
L 1159 2956 
Q 1341 3275 1631 3429 
Q 1922 3584 2338 3584 
Q 2397 3584 2469 3576 
Q 2541 3569 2628 3553 
L 2631 2963 
z
" transform="scale(0.015625)"/>
       <path id="DejaVuSans-74" d="M 1172 4494 
L 1172 3500 
L 2356 3500 
L 2356 3053 
L 1172 3053 
L 1172 1153 
Q 1172 725 1289 603 
Q 1406 481 1766 481 
L 2356 481 
L 2356 0 
L 1766 0 
Q 1100 0 847 248 
Q 594 497 594 1153 
L 594 3053 
L 172 3053 
L 172 3500 
L 594 3500 
L 594 4494 
L 1172 4494 
z
" transform="scale(0.015625)"/>
       <path id="DejaVuSans-3a" d="M 750 794 
L 1409 794 
L 1409 0 
L 750 0 
L 750 794 
z
M 750 3309 
L 1409 3309 
L 1409 2516 
L 750 2516 
L 750 3309 
z
" transform="scale(0.015625)"/>
      </defs>
      <use xlink:href="#DejaVuSans-50"/>
      <use xlink:href="#DejaVuSans-6f" transform="translate(56.677734 0)"/>
      <use xlink:href="#DejaVuSans-72" transform="translate(117.859375 0)"/>
      <use xlink:href="#DejaVuSans-74" transform="translate(158.972656 0)"/>
      <use xlink:href="#DejaVuSans-3a" transform="translate(198.181641 0)"/>
      <use xlink:href="#DejaVuSans-31" transform="translate(231.873047 0)"/>
      <use xlink:href="#DejaVuSans-30" transform="translate(295.496094 0)"/>
      <use xlink:href="#DejaVuSans-30" transform="translate(359.119141 0)"/>
     </g>
    </g>
   </g>
   <g id="line2d_31">
    <path d="M 56.09 102.035 
L 56.80605 79.668132 
L 57.09247 75.256611 
L 57.23568 74.442585 
L 57.37889 74.606035 
L 57.5221 75.741169 
L 57.80852 80.732644 
L 58.23815 93.491617 
L 59.24062 125.378109 
L 59.52704 129.192266 
L 59.67025 129.68197 
L 59.81346 129.192266 
L 60.09988 125.378109 
L 60.52951 113.806507 
L 61.67519 77.807776 
L 61.96161 74.606035 
L 62.10482 74.442585 
L 62.24803 75.256611 
L 62.53445 79.668132 
L 62.96408 91.857472 
L 63.96655 124.401868 
L 64.25297 128.813389 
L 64.39618 129.627415 
L 64.53939 129.463965 
L 64.6826 128.328831 
L 64.96902 123.337356 
L 65.39865 110.578383 
L 66.40112 78.691891 
L 66.68754 74.877734 
L 66.83075 74.38803 
L 66.97396 74.877734 
L 67.26038 78.691891 
L 67.69001 90.263493 
L 68.83569 126.262224 
L 69.12211 129.463965 
L 69.26532 129.627415 
L 69.40853 128.813389 
L 69.69495 124.401868 
L 70.12458 112.212528 
L 71.12705 79.668132 
L 71.41347 75.256611 
L 71.55668 74.442585 
L 71.69989 74.606035 
L 71.8431 75.741169 
L 72.12952 80.732644 
L 72.55915 93.491617 
L 73.56162 125.378109 
L 73.84804 129.192266 
L 73.99125 129.68197 
L 74.13446 129.192266 
L 74.42088 125.378109 
L 74.85051 113.806507 
L 75.99619 77.807776 
L 76.28261 74.606035 
L 76.42582 74.442585 
L 76.56903 75.256611 
L 76.85545 79.668132 
L 77.28508 91.857472 
L 78.28755 124.401868 
L 78.57397 128.813389 
L 78.71718 129.627415 
L 78.86039 129.463965 
L 79.0036 128.328831 
L 79.29002 123.337356 
L 79.71965 110.578383 
L 80.72212 78.691891 
L 81.00854 74.877734 
L 81.15175 74.38803 
L 81.29496 74.877734 
L 81.58138 78.691891 
L 82.01101 90.263493 
L 83.15669 126.262224 
L 83.44311 129.463965 
L 83.58632 129.627415 
L 83.72953 128.813389 
L 84.01595 124.401868 
L 84.44558 112.212528 
L 85.44805 79.668132 
L 85.73447 75.256611 
L 85.87768 74.442585 
L 86.02089 74.606035 
L 86.1641 75.741169 
L 86.45052 80.732644 
L 86.88015 93.491617 
L 87.88262 125.378109 
L 88.16904 129.192266 
L 88.31225 129.68197 
L 88.45546 129.192266 
L 88.74188 125.378109 
L 89.17151 113.806507 
L 90.31719 77.807776 
L 90.60361 74.606035 
L 90.74682 74.442585 
L 90.89003 75.256611 
L 91.17645 79.668132 
L 91.60608 91.857472 
L 92.60855 124.401868 
L 92.89497 128.813389 
L 93.03818 129.627415 
L 93.18139 129.463965 
L 93.3246 128.328831 
L 93.61102 123.337356 
L 94.04065 110.578383 
L 95.04312 78.691891 
L 95.32954 74.877734 
L 95.47275 74.38803 
L 95.61596 74.877734 
L 95.90238 78.691891 
L 96.33201 90.263493 
L 97.47769 126.262224 
L 97.76411 129.463965 
L 97.90732 129.627415 
L 98.05053 128.813389 
L 98.33695 124.401868 
L 98.76658 112.212528 
L 99.76905 79.668132 
L 100.05547 75.256611 
L 100.19868 74.442585 
L 100.34189 74.606035 
L 100.4851 75.741169 
L 100.77152 80.732644 
L 101.20115 93.491617 
L 102.20362 125.378109 
L 102.49004 129.192266 
L 102.63325 129.68197 
L 102.77646 129.192266 
L 103.06288 125.378109 
L 103.49251 113.806507 
L 104.63819 77.807776 
L 104.92461 74.606035 
L 105.06782 74.442585 
L 105.21103 75.256611 
L 105.49745 79.668132 
L 105.92708 91.857472 
L 106.92955 124.401868 
L 107.21597 128.813389 
L 107.35918 129.627415 
L 107.50239 129.463965 
L 107.6456 128.328831 
L 107.93202 123.337356 
L 108.36165 110.578383 
L 109.36412 78.691891 
L 109.65054 74.877734 
L 109.79375 74.38803 
L 109.93696 74.877734 
L 110.22338 78.691891 
L 110.65301 90.263493 
L 111.79869 126.262224 
L 112.08511 129.463965 
L 112.22832 129.627415 
L 112.37153 128.813389 
L 112.65795 124.401868 
L 113.08758 112.212528 
L 114.09005 79.668132 
L 114.37647 75.256611 
L 114.51968 74.442585 
L 114.66289 74.606035 
L 114.8061 75.741169 
L 115.09252 80.732644 
L 115.52215 93.491617 
L 116.52462 125.378109 
L 116.81104 129.192266 
L 116.95425 129.68197 
L 117.09746 129.192266 
L 117.38388 125.378109 
L 117.81351 113.806507 
L 118.95919 77.807776 
L 119.24561 74.606035 
L 119.38882 74.442585 
L 119.53203 75.256611 
L 119.81845 79.668132 
L 120.24808 91.857472 
L 121.25055 124.401868 
L 121.53697 128.813389 
L 121.68018 129.627415 
L 121.82339 129.463965 
L 121.9666 128.328831 
L 122.25302 123.337356 
L 122.68265 110.578383 
L 123.68512 78.691891 
L 123.97154 74.877734 
L 124.11475 74.38803 
L 124.25796 74.877734 
L 124.54438 78.691891 
L 124.97401 90.263493 
L 126.11969 126.262224 
L 126.40611 129.463965 
L 126.54932 129.627415 
L 126.69253 128.813389 
L 126.97895 124.401868 
L 127.40858 112.212528 
L 127.695 102.035 
L 128.41105 57.301263 
L 128.69747 48.478221 
L 128.84068 46.850171 
L 128.98389 47.17707 
L 129.1271 49.447339 
L 129.41352 59.430287 
L 129.84315 84.948233 
L 130.84562 148.721217 
L 131.13204 156.349532 
L 131.27525 157.328939 
L 131.41846 156.349532 
L 131.70488 148.721217 
L 132.13451 125.578014 
L 133.28019 53.580552 
L 133.56661 47.17707 
L 133.70982 46.850171 
L 133.85303 48.478221 
L 134.13945 57.301263 
L 134.56908 81.679943 
L 135.57155 146.768737 
L 135.85797 155.591779 
L 136.00118 157.219829 
L 136.14439 156.89293 
L 136.2876 154.622661 
L 136.57402 144.639713 
L 137.00365 119.121767 
L 138.00612 55.348783 
L 138.29254 47.720468 
L 138.43575 46.741061 
L 138.57896 47.720468 
L 138.86538 55.348783 
L 139.29501 78.491986 
L 140.44069 150.489448 
L 140.72711 156.89293 
L 140.87032 157.219829 
L 141.01353 155.591779 
L 141.29995 146.768737 
L 141.72958 122.390057 
L 142.73205 57.301263 
L 143.01847 48.478221 
L 143.16168 46.850171 
L 143.30489 47.17707 
L 143.4481 49.447339 
L 143.73452 59.430287 
L 144.16415 84.948233 
L 145.16662 148.721217 
L 145.45304 156.349532 
L 145.59625 157.328939 
L 145.73946 156.349532 
L 146.02588 148.721217 
L 146.45551 125.578014 
L 147.60119 53.580552 
L 147.88761 47.17707 
L 148.03082 46.850171 
L 148.17403 48.478221 
L 148.46045 57.301263 
L 148.89008 81.679943 
L 149.89255 146.768737 
L 150.17897 155.591779 
L 150.32218 157.219829 
L 150.46539 156.89293 
L 150.6086 154.622661 
L 150.89502 144.639713 
L 151.32465 119.121767 
L 152.32712 55.348783 
L 152.61354 47.720468 
L 152.75675 46.741061 
L 152.89996 47.720468 
L 153.18638 55.348783 
L 153.61601 78.491986 
L 154.76169 150.489448 
L 155.04811 156.89293 
L 155.19132 157.219829 
L 155.33453 155.591779 
L 155.62095 146.768737 
L 156.05058 122.390057 
L 157.05305 57.301263 
L 157.33947 48.478221 
L 157.48268 46.850171 
L 157.62589 47.17707 
L 157.7691 49.447339 
L 158.05552 59.430287 
L 158.48515 84.948233 
L 159.48762 148.721217 
L 159.77404 156.349532 
L 159.91725 157.328939 
L 160.06046 156.349532 
L 160.34688 148.721217 
L 160.77651 125.578014 
L 161.92219 53.580552 
L 162.20861 47.17707 
L 162.35182 46.850171 
L 162.49503 48.478221 
L 162.78145 57.301263 
L 163.21108 81.679943 
L 164.21355 146.768737 
L 164.49997 155.591779 
L 164.64318 157.219829 
L 164.78639 156.89293 
L 164.9296 154.622661 
L 165.21602 144.639713 
L 165.64565 119.121767 
L 166.64812 55.348783 
L 166.93454 47.720468 
L 167.07775 46.741061 
L 167.22096 47.720468 
L 167.50738 55.348783 
L 167.93701 78.491986 
L 169.08269 150.489448 
L 169.36911 156.89293 
L 169.51232 157.219829 
L 169.65553 155.591779 
L 169.94195 146.768737 
L 170.37158 122.390057 
L 171.37405 57.301263 
L 171.66047 48.478221 
L 171.80368 46.850171 
L 171.94689 47.17707 
L 172.0901 49.447339 
L 172.37652 59.430287 
L 172.80615 84.948233 
L 173.80862 148.721217 
L 174.09504 156.349532 
L 174.23825 157.328939 
L 174.38146 156.349532 
L 174.66788 148.721217 
L 175.09751 125.578014 
L 176.24319 53.580552 
L 176.52961 47.17707 
L 176.67282 46.850171 
L 176.81603 48.478221 
L 177.10245 57.301263 
L 177.53208 81.679943 
L 178.53455 146.768737 
L 178.82097 155.591779 
L 178.96418 157.219829 
L 179.10739 156.89293 
L 179.2506 154.622661 
L 179.53702 144.639713 
L 179.96665 119.121767 
L 180.96912 55.348783 
L 181.25554 47.720468 
L 181.39875 46.741061 
L 181.54196 47.720468 
L 181.82838 55.348783 
L 182.25801 78.491986 
L 183.40369 150.489448 
L 183.69011 156.89293 
L 183.83332 157.219829 
L 183.97653 155.591779 
L 184.26295 146.768737 
L 184.69258 122.390057 
L 185.69505 57.301263 
L 185.98147 48.478221 
L 186.12468 46.850171 
L 186.26789 47.17707 
L 186.4111 49.447339 
L 186.69752 59.430287 
L 187.12715 84.948233 
L 188.12962 148.721217 
L 188.41604 156.349532 
L 188.55925 157.328939 
L 188.70246 156.349532 
L 188.98888 148.721217 
L 189.41851 125.578014 
L 190.56419 53.580552 
L 190.85061 47.17707 
L 190.99382 46.850171 
L 191.13703 48.478221 
L 191.42345 57.301263 
L 191.85308 81.679943 
L 192.85555 146.768737 
L 193.14197 155.591779 
L 193.28518 157.219829 
L 193.42839 156.89293 
L 193.5716 154.622661 
L 193.85802 144.639713 
L 194.28765 119.121767 
L 195.29012 55.348783 
L 195.57654 47.720468 
L 195.71975 46.741061 
L 195.86296 47.720468 
L 196.14938 55.348783 
L 196.57901 78.491986 
L 197.72469 150.489448 
L 198.01111 156.89293 
L 198.15432 157.219829 
L 198.29753 155.591779 
L 198.58395 146.768737 
L 199.01358 122.390057 
L 199.3 102.035 
L 270.905 102.035 
L 271.62105 34.934395 
L 271.90747 21.699832 
L 272.05068 19.257756 
L 272.19389 19.748105 
L 272.3371 23.153508 
L 272.62352 38.127931 
L 273.05315 76.40485 
L 274.05562 172.064326 
L 274.34204 183.506798 
L 274.48525 184.975909 
L 274.62846 183.506798 
L 274.91488 172.064326 
L 275.34451 137.349522 
L 276.49019 29.353327 
L 276.77661 19.748105 
L 276.91982 19.257756 
L 277.06303 21.699832 
L 277.34945 34.934395 
L 277.77908 71.502415 
L 278.78155 169.135605 
L 279.06797 182.370168 
L 279.21118 184.812244 
L 279.35439 184.321895 
L 279.4976 180.916492 
L 279.78402 165.942069 
L 280.21365 127.66515 
L 281.21612 32.005674 
L 281.50254 20.563202 
L 281.64575 19.094091 
L 281.78896 20.563202 
L 282.07538 32.005674 
L 282.50501 66.720478 
L 283.65069 174.716673 
L 283.93711 184.321895 
L 284.08032 184.812244 
L 284.22353 182.370168 
L 284.50995 169.135605 
L 284.93958 132.567585 
L 285.94205 34.934395 
L 286.22847 21.699832 
L 286.37168 19.257756 
L 286.51489 19.748105 
L 286.6581 23.153508 
L 286.94452 38.127931 
L 287.37415 76.40485 
L 288.37662 172.064326 
L 288.66304 183.506798 
L 288.80625 184.975909 
L 288.94946 183.506798 
L 289.23588 172.064326 
L 289.66551 137.349522 
L 290.81119 29.353327 
L 291.09761 19.748105 
L 291.24082 19.257756 
L 291.38403 21.699832 
L 291.67045 34.934395 
L 292.10008 71.502415 
L 293.10255 169.135605 
L 293.38897 182.370168 
L 293.53218 184.812244 
L 293.67539 184.321895 
L 293.8186 180.916492 
L 294.10502 165.942069 
L 294.53465 127.66515 
L 295.53712 32.005674 
L 295.82354 20.563202 
L 295.96675 19.094091 
L 296.10996 20.563202 
L 296.39638 32.005674 
L 296.82601 66.720478 
L 297.97169 174.716673 
L 298.25811 184.321895 
L 298.40132 184.812244 
L 298.54453 182.370168 
L 298.83095 169.135605 
L 299.26058 132.567585 
L 300.26305 34.934395 
L 300.54947 21.699832 
L 300.69268 19.257756 
L 300.83589 19.748105 
L 300.9791 23.153508 
L 301.26552 38.127931 
L 301.69515 76.40485 
L 302.69762 172.064326 
L 302.98404 183.506798 
L 303.12725 184.975909 
L 303.27046 183.506798 
L 303.55688 172.064326 
L 303.98651 137.349522 
L 305.13219 29.353327 
L 305.41861 19.748105 
L 305.56182 19.257756 
L 305.70503 21.699832 
L 305.99145 34.934395 
L 306.42108 71.502415 
L 307.42355 169.135605 
L 307.70997 182.370168 
L 307.85318 184.812244 
L 307.99639 184.321895 
L 308.1396 180.916492 
L 308.42602 165.942069 
L 308.85565 127.66515 
L 309.85812 32.005674 
L 310.14454 20.563202 
L 310.28775 19.094091 
L 310.43096 20.563202 
L 310.71738 32.005674 
L 311.14701 66.720478 
L 312.29269 174.716673 
L 312.57911 184.321895 
L 312.72232 184.812244 
L 312.86553 182.370168 
L 313.15195 169.135605 
L 313.58158 132.567585 
L 314.58405 34.934395 
L 314.87047 21.699832 
L 315.01368 19.257756 
L 315.15689 19.748105 
L 315.3001 23.153508 
L 315.58652 38.127931 
L 316.01615 76.40485 
L 317.01862 172.064326 
L 317.30504 183.506798 
L 317.44825 184.975909 
L 317.59146 183.506798 
L 317.87788 172.064326 
L 318.30751 137.349522 
L 319.45319 29.353327 
L 319.73961 19.748105 
L 319.88282 19.257756 
L 320.02603 21.699832 
L 320.31245 34.934395 
L 320.74208 71.502415 
L 321.74455 169.135605 
L 322.03097 182.370168 
L 322.17418 184.812244 
L 322.31739 184.321895 
L 322.4606 180.916492 
L 322.74702 165.942069 
L 323.17665 127.66515 
L 324.17912 32.005674 
L 324.46554 20.563202 
L 324.60875 19.094091 
L 324.75196 20.563202 
L 325.03838 32.005674 
L 325.46801 66.720478 
L 326.61369 174.716673 
L 326.90011 184.321895 
L 327.04332 184.812244 
L 327.18653 182.370168 
L 327.47295 169.135605 
L 327.90258 132.567585 
L 328.90505 34.934395 
L 329.19147 21.699832 
L 329.33468 19.257756 
L 329.47789 19.748105 
L 329.6211 23.153508 
L 329.90752 38.127931 
L 330.33715 76.40485 
L 331.33962 172.064326 
L 331.62604 183.506798 
L 331.76925 184.975909 
L 331.91246 183.506798 
L 332.19888 172.064326 
L 332.62851 137.349522 
L 333.77419 29.353327 
L 334.06061 19.748105 
L 334.20382 19.257756 
L 334.34703 21.699832 
L 334.63345 34.934395 
L 335.06308 71.502415 
L 336.06555 169.135605 
L 336.35197 182.370168 
L 336.49518 184.812244 
L 336.63839 184.321895 
L 336.7816 180.916492 
L 337.06802 165.942069 
L 337.49765 127.66515 
L 338.50012 32.005674 
L 338.78654 20.563202 
L 338.92975 19.094091 
L 339.07296 20.563202 
L 339.35938 32.005674 
L 339.78901 66.720478 
L 340.93469 174.716673 
L 341.22111 184.321895 
L 341.36432 184.812244 
L 341.50753 182.370168 
L 341.79395 169.135605 
L 342.22358 132.567585 
L 343.22605 34.934395 
L 343.51247 21.699832 
L 343.65568 19.257756 
L 343.79889 19.748105 
L 343.9421 23.153508 
L 344.22852 38.127931 
L 344.65815 76.40485 
L 345.66062 172.064326 
L 345.94704 183.506798 
L 346.09025 184.975909 
L 346.23346 183.506798 
L 346.51988 172.064326 
L 346.94951 137.349522 
L 348.09519 29.353327 
L 348.38161 19.748105 
L 348.52482 19.257756 
L 348.66803 21.699832 
L 348.95445 34.934395 
L 349.38408 71.502415 
L 350.38655 169.135605 
L 350.67297 182.370168 
L 350.81618 184.812244 
L 350.95939 184.321895 
L 351.1026 180.916492 
L 351.38902 165.942069 
L 351.81865 127.66515 
L 352.82112 32.005674 
L 353.10754 20.563202 
L 353.25075 19.094091 
L 353.39396 20.563202 
L 353.68038 32.005674 
L 354.11001 66.720478 
L 355.25569 174.716673 
L 355.54211 184.321895 
L 355.68532 184.812244 
L 355.82853 182.370168 
L 356.11495 169.135605 
L 356.54458 132.567585 
L 357.54705 34.934395 
L 357.83347 21.699832 
L 357.97668 19.257756 
L 358.11989 19.748105 
L 358.2631 23.153508 
L 358.54952 38.127931 
L 358.97915 76.40485 
L 359.98162 172.064326 
L 360.26804 183.506798 
L 360.41125 184.975909 
L 360.55446 183.506798 
L 360.84088 172.064326 
L 361.27051 137.349522 
L 362.41619 29.353327 
L 362.70261 19.748105 
L 362.84582 19.257756 
L 362.98903 21.699832 
L 363.27545 34.934395 
L 363.70508 71.502415 
L 364.70755 169.135605 
L 364.99397 182.370168 
L 365.13718 184.812244 
L 365.28039 184.321895 
L 365.4236 180.916492 
L 365.71002 165.942069 
L 366.13965 127.66515 
L 367.14212 32.005674 
L 367.42854 20.563202 
L 367.57175 19.094091 
L 367.71496 20.563202 
L 368.00138 32.005674 
L 368.43101 66.720478 
L 369.57669 174.716673 
L 369.86311 184.321895 
L 370.00632 184.812244 
L 370.14953 182.370168 
L 370.43595 169.135605 
L 370.86558 132.567585 
L 371.86805 34.934395 
L 372.15447 21.699832 
L 372.29768 19.257756 
L 372.44089 19.748105 
L 372.5841 23.153508 
L 372.87052 38.127931 
L 373.30015 76.40485 
L 374.30262 172.064326 
L 374.58904 183.506798 
L 374.73225 184.975909 
L 374.87546 183.506798 
L 375.16188 172.064326 
L 375.59151 137.349522 
L 376.73719 29.353327 
L 377.02361 19.748105 
L 377.16682 19.257756 
L 377.31003 21.699832 
L 377.59645 34.934395 
L 378.02608 71.502415 
L 379.02855 169.135605 
L 379.31497 182.370168 
L 379.45818 184.812244 
L 379.60139 184.321895 
L 379.7446 180.916492 
L 380.03102 165.942069 
L 380.46065 127.66515 
L 381.46312 32.005674 
L 381.74954 20.563202 
L 381.89275 19.094091 
L 382.03596 20.563202 
L 382.32238 32.005674 
L 382.75201 66.720478 
L 383.89769 174.716673 
L 384.18411 184.321895 
L 384.32732 184.812244 
L 384.47053 182.370168 
L 384.75695 169.135605 
L 385.18658 132.567585 
L 386.18905 34.934395 
L 386.47547 21.699832 
L 386.61868 19.257756 
L 386.76189 19.748105 
L 386.9051 23.153508 
L 387.19152 38.127931 
L 387.62115 76.40485 
L 388.62362 172.064326 
L 388.91004 183.506798 
L 389.05325 184.975909 
L 389.19646 183.506798 
L 389.48288 172.064326 
L 389.91251 137.349522 
L 391.05819 29.353327 
L 391.34461 19.748105 
L 391.48782 19.257756 
L 391.63103 21.699832 
L 391.91745 34.934395 
L 392.34708 71.502415 
L 393.34955 169.135605 
L 393.63597 182.370168 
L 393.77918 184.812244 
L 393.92239 184.321895 
L 394.0656 180.916492 
L 394.35202 165.942069 
L 394.78165 127.66515 
L 395.78412 32.005674 
L 396.07054 20.563202 
L 396.21375 19.094091 
L 396.35696 20.563202 
L 396.64338 32.005674 
L 397.07301 66.720478 
L 398.21869 174.716673 
L 398.50511 184.321895 
L 398.64832 184.812244 
L 398.79153 182.370168 
L 399.07795 169.135605 
L 399.50758 132.567585 
L 400.51005 34.934395 
L 400.79647 21.699832 
L 400.93968 19.257756 
L 401.08289 19.748105 
L 401.2261 23.153508 
L 401.51252 38.127931 
L 401.94215 76.40485 
L 402.94462 172.064326 
L 403.23104 183.506798 
L 403.37425 184.975909 
L 403.51746 183.506798 
L 403.80388 172.064326 
L 404.23351 137.349522 
L 405.37919 29.353327 
L 405.66561 19.748105 
L 405.80882 19.257756 
L 405.95203 21.699832 
L 406.23845 34.934395 
L 406.66808 71.502415 
L 407.67055 169.135605 
L 407.95697 182.370168 
L 408.10018 184.812244 
L 408.24339 184.321895 
L 408.3866 180.916492 
L 408.67302 165.942069 
L 409.10265 127.66515 
L 410.10512 32.005674 
L 410.39154 20.563202 
L 410.53475 19.094091 
L 410.67796 20.563202 
L 410.96438 32.005674 
L 411.39401 66.720478 
L 412.53969 174.716673 
L 412.82611 184.321895 
L 412.96932 184.812244 
L 413.11253 182.370168 
L 413.39895 169.135605 
L 413.82858 132.567585 
L 414.83105 34.934395 
L 415.11747 21.699832 
L 415.26068 19.257756 
L 415.40389 19.748105 
L 415.5471 23.153508 
L 415.83352 38.127931 
L 416.26315 76.40485 
L 417.26562 172.064326 
L 417.55204 183.506798 
L 417.69525 184.975909 
L 417.83846 183.506798 
L 418.12488 172.064326 
L 418.55451 137.349522 
L 419.70019 29.353327 
L 419.98661 19.748105 
L 420.12982 19.257756 
L 420.27303 21.699832 
L 420.55945 34.934395 
L 420.98908 71.502415 
L 421.99155 169.135605 
L 422.27797 182.370168 
L 422.42118 184.812244 
L 422.56439 184.321895 
L 422.7076 180.916492 
L 422.99402 165.942069 
L 423.42365 127.66515 
L 424.42612 32.005674 
L 424.71254 20.563202 
L 424.85575 19.094091 
L 424.99896 20.563202 
L 425.28538 32.005674 
L 425.71501 66.720478 
L 426.86069 174.716673 
L 427.14711 184.321895 
L 427.29032 184.812244 
L 427.43353 182.370168 
L 427.71995 169.135605 
L 428.14958 132.567585 
L 429.15205 34.934395 
L 429.43847 21.699832 
L 429.58168 19.257756 
L 429.72489 19.748105 
L 429.8681 23.153508 
L 430.15452 38.127931 
L 430.58415 76.40485 
L 431.58662 172.064326 
L 431.87304 183.506798 
L 432.01625 184.975909 
L 432.15946 183.506798 
L 432.44588 172.064326 
L 432.87551 137.349522 
L 434.02119 29.353327 
L 434.30761 19.748105 
L 434.45082 19.257756 
L 434.59403 21.699832 
L 434.88045 34.934395 
L 435.31008 71.502415 
L 436.31255 169.135605 
L 436.59897 182.370168 
L 436.74218 184.812244 
L 436.88539 184.321895 
L 437.0286 180.916492 
L 437.31502 165.942069 
L 437.74465 127.66515 
L 438.74712 32.005674 
L 439.03354 20.563202 
L 439.17675 19.094091 
L 439.31996 20.563202 
L 439.60638 32.005674 
L 440.03601 66.720478 
L 441.18169 174.716673 
L 441.46811 184.321895 
L 441.61132 184.812244 
L 441.75453 182.370168 
L 442.04095 169.135605 
L 442.47058 132.567585 
L 443.47305 34.934395 
L 443.75947 21.699832 
L 443.90268 19.257756 
L 444.04589 19.748105 
L 444.1891 23.153508 
L 444.47552 38.127931 
L 444.90515 76.40485 
L 445.90762 172.064326 
L 446.19404 183.506798 
L 446.33725 184.975909 
L 446.48046 183.506798 
L 446.76688 172.064326 
L 447.19651 137.349522 
L 448.34219 29.353327 
L 448.62861 19.748105 
L 448.77182 19.257756 
L 448.91503 21.699832 
L 449.20145 34.934395 
L 449.63108 71.502415 
L 450.63355 169.135605 
L 450.91997 182.370168 
L 451.06318 184.812244 
L 451.20639 184.321895 
L 451.3496 180.916492 
L 451.63602 165.942069 
L 452.06565 127.66515 
L 453.06812 32.005674 
L 453.35454 20.563202 
L 453.49775 19.094091 
L 453.64096 20.563202 
L 453.92738 32.005674 
L 454.35701 66.720478 
L 455.50269 174.716673 
L 455.78911 184.321895 
L 455.93232 184.812244 
L 456.07553 182.370168 
L 456.36195 169.135605 
L 456.79158 132.567585 
L 457.79405 34.934395 
L 458.08047 21.699832 
L 458.22368 19.257756 
L 458.36689 19.748105 
L 458.5101 23.153508 
L 458.79652 38.127931 
L 459.22615 76.40485 
L 460.22862 172.064326 
L 460.51504 183.506798 
L 460.65825 184.975909 
L 460.80146 183.506798 
L 461.08788 172.064326 
L 461.51751 137.349522 
L 462.66319 29.353327 
L 462.94961 19.748105 
L 463.09282 19.257756 
L 463.23603 21.699832 
L 463.52245 34.934395 
L 463.95208 71.502415 
L 464.95455 169.135605 
L 465.24097 182.370168 
L 465.38418 184.812244 
L 465.52739 184.321895 
L 465.6706 180.916492 
L 465.95702 165.942069 
L 466.38665 127.66515 
L 467.38912 32.005674 
L 467.67554 20.563202 
L 467.81875 19.094091 
L 467.96196 20.563202 
L 468.24838 32.005674 
L 468.67801 66.720478 
L 469.82369 174.716673 
L 470.11011 184.321895 
L 470.25332 184.812244 
L 470.39653 182.370168 
L 470.68295 169.135605 
L 471.11258 132.567585 
L 472.11505 34.934395 
L 472.40147 21.699832 
L 472.54468 19.257756 
L 472.68789 19.748105 
L 472.8311 23.153508 
L 473.11752 38.127931 
L 473.54715 76.40485 
L 474.54962 172.064326 
L 474.83604 183.506798 
L 474.97925 184.975909 
L 475.12246 183.506798 
L 475.40888 172.064326 
L 475.83851 137.349522 
L 476.98419 29.353327 
L 477.27061 19.748105 
L 477.41382 19.257756 
L 477.55703 21.699832 
L 477.84345 34.934395 
L 478.27308 71.502415 
L 479.27555 169.135605 
L 479.56197 182.370168 
L 479.70518 184.812244 
L 479.84839 184.321895 
L 479.9916 180.916492 
L 480.27802 165.942069 
L 480.70765 127.66515 
L 481.71012 32.005674 
L 481.99654 20.563202 
L 482.13975 19.094091 
L 482.28296 20.563202 
L 482.56938 32.005674 
L 482.99901 66.720478 
L 484.14469 174.716673 
L 484.43111 184.321895 
L 484.57432 184.812244 
L 484.71753 182.370168 
L 485.00395 169.135605 
L 485.43358 132.567585 
L 485.72 102.035 
L 557.325 102.035 
L 557.325 102.035 
" clip-path="url(#p3e89ad9bab)" style="fill: none; stroke: #1f77b4; stroke-width: 1.5; stroke-linecap: square"/>
   </g>
   <g id="patch_3">
    <path d="M 56.09 193.27 
L 56.09 10.8 
" style="fill: none; stroke: #000000; stroke-width: 0.8; stroke-linejoin: miter; stroke-linecap: square"/>
   </g>
   <g id="patch_4">
    <path d="M 557.325 193.27 
L 557.325 10.8 
" style="fill: none; stroke: #000000; stroke-width: 0.8; stroke-linejoin: miter; stroke-linecap: square"/>
   </g>
   <g id="patch_5">
    <path d="M 56.09 193.27 
L 557.325 193.27 
" style="fill: none; stroke: #000000; stroke-width: 0.8; stroke-linejoin: miter; stroke-linecap: square"/>
   </g>
   <g id="patch_6">
    <path d="M 56.09 10.8 
L 557.325 10.8 
" style="fill: none; stroke: #000000; stroke-width: 0.8; stroke-linejoin: miter; stroke-linecap: square"/>
   </g>
   <g id="legend_1">
    <g id="patch_7">
     <path d="M 430.325 33.478125 
L 550.325 33.478125 
Q 552.325 33.478125 552.325 31.478125 
L 552.325 17.8 
Q 552.325 15.8 550.325 15.8 
L 430.325 15.8 
Q 428.325 15.8 428.325 17.8 
L 428.325 31.478125 
Q 428.325 33.478125 430.325 33.478125 
z
" style="fill: #ffffff; opacity: 0.8; stroke: #cccccc; stroke-linejoin: miter"/>
    </g>
    <g id="line2d_32">
     <path d="M 432.325 23.898438 
L 442.325 23.898438 
L 452.325 23.898438 
" style="fill: none; stroke: #1f77b4; stroke-width: 1.5; stroke-linecap: square"/>
    </g>
    <g id="text_9">
     <!-- FrameA: $f=5$GHz -->
     <g transform="translate(460.325 27.398438) scale(0.1 -0.1)">
      <defs>
       <path id="DejaVuSans-46" d="M 628 4666 
L 3309 4666 
L 3309 4134 
L 1259 4134 
L 1259 2759 
L 3109 2759 
L 3109 2228 
L 1259 2228 
L 1259 0 
L 628 0 
L 628 4666 
z
" transform="scale(0.015625)"/>
       <path id="DejaVuSans-61" d="M 2194 1759 
Q 1497 1759 1228 1600 
Q 959 1441 959 1056 
Q 959 750 1161 570 
Q 1363 391 1709 391 
Q 2188 391 2477 730 
Q 2766 1069 2766 1631 
L 2766 1759 
L 2194 1759 
z
M 3341 1997 
L 3341 0 
L 2766 0 
L 2766 531 
Q 2569 213 2275 61 
Q 1981 -91 1556 -91 
Q 1019 -91 701 211 
Q 384 513 384 1019 
Q 384 1609 779 1909 
Q 1175 2209 1959 2209 
L 2766 2209 
L 2766 2266 
Q 2766 2663 2505 2880 
Q 2244 3097 1772 3097 
Q 1472 3097 1187 3025 
Q 903 2953 641 2809 
L 641 3341 
Q 956 3463 1253 3523 
Q 1550 3584 1831 3584 
Q 2591 3584 2966 3190 
Q 3341 2797 3341 1997 
z
" transform="scale(0.015625)"/>
       <path id="DejaVuSans-6d" d="M 3328 2828 
Q 3544 3216 3844 3400 
Q 4144 3584 4550 3584 
Q 5097 3584 5394 3201 
Q 5691 2819 5691 2113 
L 5691 0 
L 5113 0 
L 5113 2094 
Q 5113 2597 4934 2840 
Q 4756 3084 4391 3084 
Q 3944 3084 3684 2787 
Q 3425 2491 3425 1978 
L 3425 0 
L 2847 0 
L 2847 2094 
Q 2847 2600 2669 2842 
Q 2491 3084 2119 3084 
Q 1678 3084 1418 2786 
Q 1159 2488 1159 1978 
L 1159 0 
L 581 0 
L 581 3500 
L 1159 3500 
L 1159 2956 
Q 1356 3278 1631 3431 
Q 1906 3584 2284 3584 
Q 2666 3584 2933 3390 
Q 3200 3197 3328 2828 
z
" transform="scale(0.015625)"/>
       <path id="DejaVuSans-65" d="M 3597 1894 
L 3597 1613 
L 953 1613 
Q 991 1019 1311 708 
Q 1631 397 2203 397 
Q 2534 397 2845 478 
Q 3156 559 3463 722 
L 3463 178 
Q 3153 47 2828 -22 
Q 2503 -91 2169 -91 
Q 1331 -91 842 396 
Q 353 884 353 1716 
Q 353 2575 817 3079 
Q 1281 3584 2069 3584 
Q 2775 3584 3186 3129 
Q 3597 2675 3597 1894 
z
M 3022 2063 
Q 3016 2534 2758 2815 
Q 2500 3097 2075 3097 
Q 1594 3097 1305 2825 
Q 1016 2553 972 2059 
L 3022 2063 
z
" transform="scale(0.015625)"/>
       <path id="DejaVuSans-41" d="M 2188 4044 
L 1331 1722 
L 3047 1722 
L 2188 4044 
z
M 1831 4666 
L 2547 4666 
L 4325 0 
L 3669 0 
L 3244 1197 
L 1141 1197 
L 716 0 
L 50 0 
L 1831 4666 
z
" transform="scale(0.015625)"/>
       <path id="DejaVuSans-20" transform="scale(0.015625)"/>
       <path id="DejaVuSans-Oblique-66" d="M 3059 4863 
L 2969 4384 
L 2419 4384 
Q 2106 4384 1964 4261 
Q 1822 4138 1753 3809 
L 1691 3500 
L 2638 3500 
L 2553 3053 
L 1606 3053 
L 1013 0 
L 434 0 
L 1031 3053 
L 481 3053 
L 563 3500 
L 1113 3500 
L 1159 3744 
Q 1278 4363 1576 4613 
Q 1875 4863 2516 4863 
L 3059 4863 
z
" transform="scale(0.015625)"/>
       <path id="DejaVuSans-3d" d="M 678 2906 
L 4684 2906 
L 4684 2381 
L 678 2381 
L 678 2906 
z
M 678 1631 
L 4684 1631 
L 4684 1100 
L 678 1100 
L 678 1631 
z
" transform="scale(0.015625)"/>
       <path id="DejaVuSans-35" d="M 691 4666 
L 3169 4666 
L 3169 4134 
L 1269 4134 
L 1269 2991 
Q 1406 3038 1543 3061 
Q 1681 3084 1819 3084 
Q 2600 3084 3056 2656 
Q 3513 2228 3513 1497 
Q 3513 744 3044 326 
Q 2575 -91 1722 -91 
Q 1428 -91 1123 -41 
Q 819 9 494 109 
L 494 744 
Q 775 591 1075 516 
Q 1375 441 1709 441 
Q 2250 441 2565 725 
Q 2881 1009 2881 1497 
Q 2881 1984 2565 2268 
Q 2250 2553 1709 2553 
Q 1456 2553 1204 2497 
Q 953 2441 691 2322 
L 691 4666 
z
" transform="scale(0.015625)"/>
       <path id="DejaVuSans-47" d="M 3809 666 
L 3809 1919 
L 2778 1919 
L 2778 2438 
L 4434 2438 
L 4434 434 
Q 4069 175 3628 42 
Q 3188 -91 2688 -91 
Q 1594 -91 976 548 
Q 359 1188 359 2328 
Q 359 3472 976 4111 
Q 1594 4750 2688 4750 
Q 3144 4750 3555 4637 
Q 3966 4525 4313 4306 
L 4313 3634 
Q 3963 3931 3569 4081 
Q 3175 4231 2741 4231 
Q 1884 4231 1454 3753 
Q 1025 3275 1025 2328 
Q 1025 1384 1454 906 
Q 1884 428 2741 428 
Q 3075 428 3337 486 
Q 3600 544 3809 666 
z
" transform="scale(0.015625)"/>
       <path id="DejaVuSans-48" d="M 628 4666 
L 1259 4666 
L 1259 2753 
L 3553 2753 
L 3553 4666 
L 4184 4666 
L 4184 0 
L 3553 0 
L 3553 2222 
L 1259 2222 
L 1259 0 
L 628 0 
L 628 4666 
z
" transform="scale(0.015625)"/>
       <path id="DejaVuSans-7a" d="M 353 3500 
L 3084 3500 
L 3084 2975 
L 922 459 
L 3084 459 
L 3084 0 
L 275 0 
L 275 525 
L 2438 3041 
L 353 3041 
L 353 3500 
z
" transform="scale(0.015625)"/>
      </defs>
      <use xlink:href="#DejaVuSans-46" transform="translate(0 0.015625)"/>
      <use xlink:href="#DejaVuSans-72" transform="translate(57.519531 0.015625)"/>
      <use xlink:href="#DejaVuSans-61" transform="translate(98.632812 0.015625)"/>
      <use xlink:href="#DejaVuSans-6d" transform="translate(159.912109 0.015625)"/>
      <use xlink:href="#DejaVuSans-65" transform="translate(257.324219 0.015625)"/>
      <use xlink:href="#DejaVuSans-41" transform="translate(318.847656 0.015625)"/>
      <use xlink:href="#DejaVuSans-3a" transform="translate(387.255859 0.015625)"/>
      <use xlink:href="#DejaVuSans-20" transform="translate(420.947266 0.015625)"/>
      <use xlink:href="#DejaVuSans-Oblique-66" transform="translate(452.734375 0.015625)"/>
      <use xlink:href="#DejaVuSans-3d" transform="translate(507.421875 0.015625)"/>
      <use xlink:href="#DejaVuSans-35" transform="translate(610.693359 0.015625)"/>
      <use xlink:href="#DejaVuSans-47" transform="translate(674.316406 0.015625)"/>
      <use xlink:href="#DejaVuSans-48" transform="translate(751.806641 0.015625)"/>
      <use xlink:href="#DejaVuSans-7a" transform="translate(827.001953 0.015625)"/>
     </g>
    </g>
   </g>
  </g>
  <g id="axes_2">
   <g id="patch_8">
    <path d="M 56.09 390.04 
L 557.325 390.04 
L 557.325 207.57 
L 56.09 207.57 
z
" style="fill: #ffffff"/>
   </g>
   <g id="matplotlib.axis_3">
    <g id="xtick_9">
     <g id="line2d_33">
      <path d="M 56.09 390.04 
L 56.09 207.57 
" clip-path="url(#p2b5e785105)" style="fill: none; stroke: #b0b0b0; stroke-width: 0.8; stroke-linecap: square"/>
     </g>
     <g id="line2d_34">
      <g>
       <use xlink:href="#mc4ea70dd7b" x="56.09" y="390.04" style="stroke: #000000; stroke-width: 0.8"/>
      </g>
     </g>
     <g id="text_10">
      <!-- 0.0 -->
      <g transform="translate(48.138438 404.638438) scale(0.1 -0.1)">
       <use xlink:href="#DejaVuSans-30"/>
       <use xlink:href="#DejaVuSans-2e" transform="translate(63.623047 0)"/>
       <use xlink:href="#DejaVuSans-30" transform="translate(95.410156 0)"/>
      </g>
     </g>
    </g>
    <g id="xtick_10">
     <g id="line2d_35">
      <path d="M 127.695 390.04 
L 127.695 207.57 
" clip-path="url(#p2b5e785105)" style="fill: none; stroke: #b0b0b0; stroke-width: 0.8; stroke-linecap: square"/>
     </g>
     <g id="line2d_36">
      <g>
       <use xlink:href="#mc4ea70dd7b" x="127.695" y="390.04" style="stroke: #000000; stroke-width: 0.8"/>
      </g>
     </g>
     <g id="text_11">
      <!-- 0.5 -->
      <g transform="translate(119.743437 404.638438) scale(0.1 -0.1)">
       <use xlink:href="#DejaVuSans-30"/>
       <use xlink:href="#DejaVuSans-2e" transform="translate(63.623047 0)"/>
       <use xlink:href="#DejaVuSans-35" transform="translate(95.410156 0)"/>
      </g>
     </g>
    </g>
    <g id="xtick_11">
     <g id="line2d_37">
      <path d="M 199.3 390.04 
L 199.3 207.57 
" clip-path="url(#p2b5e785105)" style="fill: none; stroke: #b0b0b0; stroke-width: 0.8; stroke-linecap: square"/>
     </g>
     <g id="line2d_38">
      <g>
       <use xlink:href="#mc4ea70dd7b" x="199.3" y="390.04" style="stroke: #000000; stroke-width: 0.8"/>
      </g>
     </g>
     <g id="text_12">
      <!-- 1.0 -->
      <g transform="translate(191.348437 404.638438) scale(0.1 -0.1)">
       <use xlink:href="#DejaVuSans-31"/>
       <use xlink:href="#DejaVuSans-2e" transform="translate(63.623047 0)"/>
       <use xlink:href="#DejaVuSans-30" transform="translate(95.410156 0)"/>
      </g>
     </g>
    </g>
    <g id="xtick_12">
     <g id="line2d_39">
      <path d="M 270.905 390.04 
L 270.905 207.57 
" clip-path="url(#p2b5e785105)" style="fill: none; stroke: #b0b0b0; stroke-width: 0.8; stroke-linecap: square"/>
     </g>
     <g id="line2d_40">
      <g>
       <use xlink:href="#mc4ea70dd7b" x="270.905" y="390.04" style="stroke: #000000; stroke-width: 0.8"/>
      </g>
     </g>
     <g id="text_13">
      <!-- 1.5 -->
      <g transform="translate(262.953437 404.638438) scale(0.1 -0.1)">
       <use xlink:href="#DejaVuSans-31"/>
       <use xlink:href="#DejaVuSans-2e" transform="translate(63.623047 0)"/>
       <use xlink:href="#DejaVuSans-35" transform="translate(95.410156 0)"/>
      </g>
     </g>
    </g>
    <g id="xtick_13">
     <g id="line2d_41">
      <path d="M 342.51 390.04 
L 342.51 207.57 
" clip-path="url(#p2b5e785105)" style="fill: none; stroke: #b0b0b0; stroke-width: 0.8; stroke-linecap: square"/>
     </g>
     <g id="line2d_42">
      <g>
       <use xlink:href="#mc4ea70dd7b" x="342.51" y="390.04" style="stroke: #000000; stroke-width: 0.8"/>
      </g>
     </g>
     <g id="text_14">
      <!-- 2.0 -->
      <g transform="translate(334.558437 404.638438) scale(0.1 -0.1)">
       <use xlink:href="#DejaVuSans-32"/>
       <use xlink:href="#DejaVuSans-2e" transform="translate(63.623047 0)"/>
       <use xlink:href="#DejaVuSans-30" transform="translate(95.410156 0)"/>
      </g>
     </g>
    </g>
    <g id="xtick_14">
     <g id="line2d_43">
      <path d="M 414.115 390.04 
L 414.115 207.57 
" clip-path="url(#p2b5e785105)" style="fill: none; stroke: #b0b0b0; stroke-width: 0.8; stroke-linecap: square"/>
     </g>
     <g id="line2d_44">
      <g>
       <use xlink:href="#mc4ea70dd7b" x="414.115" y="390.04" style="stroke: #000000; stroke-width: 0.8"/>
      </g>
     </g>
     <g id="text_15">
      <!-- 2.5 -->
      <g transform="translate(406.163437 404.638438) scale(0.1 -0.1)">
       <use xlink:href="#DejaVuSans-32"/>
       <use xlink:href="#DejaVuSans-2e" transform="translate(63.623047 0)"/>
       <use xlink:href="#DejaVuSans-35" transform="translate(95.410156 0)"/>
      </g>
     </g>
    </g>
    <g id="xtick_15">
     <g id="line2d_45">
      <path d="M 485.72 390.04 
L 485.72 207.57 
" clip-path="url(#p2b5e785105)" style="fill: none; stroke: #b0b0b0; stroke-width: 0.8; stroke-linecap: square"/>
     </g>
     <g id="line2d_46">
      <g>
       <use xlink:href="#mc4ea70dd7b" x="485.72" y="390.04" style="stroke: #000000; stroke-width: 0.8"/>
      </g>
     </g>
     <g id="text_16">
      <!-- 3.0 -->
      <g transform="translate(477.768437 404.638438) scale(0.1 -0.1)">
       <use xlink:href="#DejaVuSans-33"/>
       <use xlink:href="#DejaVuSans-2e" transform="translate(63.623047 0)"/>
       <use xlink:href="#DejaVuSans-30" transform="translate(95.410156 0)"/>
      </g>
     </g>
    </g>
    <g id="xtick_16">
     <g id="line2d_47">
      <path d="M 557.325 390.04 
L 557.325 207.57 
" clip-path="url(#p2b5e785105)" style="fill: none; stroke: #b0b0b0; stroke-width: 0.8; stroke-linecap: square"/>
     </g>
     <g id="line2d_48">
      <g>
       <use xlink:href="#mc4ea70dd7b" x="557.325" y="390.04" style="stroke: #000000; stroke-width: 0.8"/>
      </g>
     </g>
     <g id="text_17">
      <!-- 3.5 -->
      <g transform="translate(549.373437 404.638438) scale(0.1 -0.1)">
       <use xlink:href="#DejaVuSans-33"/>
       <use xlink:href="#DejaVuSans-2e" transform="translate(63.623047 0)"/>
       <use xlink:href="#DejaVuSans-35" transform="translate(95.410156 0)"/>
      </g>
     </g>
    </g>
    <g id="text_18">
     <!-- t [s] -->
     <g transform="translate(296.652031 418.316563) scale(0.1 -0.1)">
      <defs>
       <path id="DejaVuSans-5b" d="M 550 4863 
L 1875 4863 
L 1875 4416 
L 1125 4416 
L 1125 -397 
L 1875 -397 
L 1875 -844 
L 550 -844 
L 550 4863 
z
" transform="scale(0.015625)"/>
       <path id="DejaVuSans-73" d="M 2834 3397 
L 2834 2853 
Q 2591 2978 2328 3040 
Q 2066 3103 1784 3103 
Q 1356 3103 1142 2972 
Q 928 2841 928 2578 
Q 928 2378 1081 2264 
Q 1234 2150 1697 2047 
L 1894 2003 
Q 2506 1872 2764 1633 
Q 3022 1394 3022 966 
Q 3022 478 2636 193 
Q 2250 -91 1575 -91 
Q 1294 -91 989 -36 
Q 684 19 347 128 
L 347 722 
Q 666 556 975 473 
Q 1284 391 1588 391 
Q 1994 391 2212 530 
Q 2431 669 2431 922 
Q 2431 1156 2273 1281 
Q 2116 1406 1581 1522 
L 1381 1569 
Q 847 1681 609 1914 
Q 372 2147 372 2553 
Q 372 3047 722 3315 
Q 1072 3584 1716 3584 
Q 2034 3584 2315 3537 
Q 2597 3491 2834 3397 
z
" transform="scale(0.015625)"/>
       <path id="DejaVuSans-5d" d="M 1947 4863 
L 1947 -844 
L 622 -844 
L 622 -397 
L 1369 -397 
L 1369 4416 
L 622 4416 
L 622 4863 
L 1947 4863 
z
" transform="scale(0.015625)"/>
      </defs>
      <use xlink:href="#DejaVuSans-74"/>
      <use xlink:href="#DejaVuSans-20" transform="translate(39.208984 0)"/>
      <use xlink:href="#DejaVuSans-5b" transform="translate(70.996094 0)"/>
      <use xlink:href="#DejaVuSans-73" transform="translate(110.009766 0)"/>
      <use xlink:href="#DejaVuSans-5d" transform="translate(162.109375 0)"/>
     </g>
    </g>
    <g id="text_19">
     <!-- 1e−7 -->
     <g transform="translate(530.067187 417.316563) scale(0.1 -0.1)">
      <defs>
       <path id="DejaVuSans-37" d="M 525 4666 
L 3525 4666 
L 3525 4397 
L 1831 0 
L 1172 0 
L 2766 4134 
L 525 4134 
L 525 4666 
z
" transform="scale(0.015625)"/>
      </defs>
      <use xlink:href="#DejaVuSans-31"/>
      <use xlink:href="#DejaVuSans-65" transform="translate(63.623047 0)"/>
      <use xlink:href="#DejaVuSans-2212" transform="translate(125.146484 0)"/>
      <use xlink:href="#DejaVuSans-37" transform="translate(208.935547 0)"/>
     </g>
    </g>
   </g>
   <g id="matplotlib.axis_4">
    <g id="ytick_8">
     <g id="line2d_49">
      <path d="M 56.09 381.745909 
L 557.325 381.745909 
" clip-path="url(#p2b5e785105)" style="fill: none; stroke: #b0b0b0; stroke-width: 0.8; stroke-linecap: square"/>
     </g>
     <g id="line2d_50">
      <g>
       <use xlink:href="#m7abc1f5eb6" x="56.09" y="381.745909" style="stroke: #000000; stroke-width: 0.8"/>
      </g>
     </g>
     <g id="text_20">
      <!-- −0.20 -->
      <g transform="translate(18.444688 385.545128) scale(0.1 -0.1)">
       <use xlink:href="#DejaVuSans-2212"/>
       <use xlink:href="#DejaVuSans-30" transform="translate(83.789062 0)"/>
       <use xlink:href="#DejaVuSans-2e" transform="translate(147.412109 0)"/>
       <use xlink:href="#DejaVuSans-32" transform="translate(179.199219 0)"/>
       <use xlink:href="#DejaVuSans-30" transform="translate(242.822266 0)"/>
      </g>
     </g>
    </g>
    <g id="ytick_9">
     <g id="line2d_51">
      <path d="M 56.09 361.010682 
L 557.325 361.010682 
" clip-path="url(#p2b5e785105)" style="fill: none; stroke: #b0b0b0; stroke-width: 0.8; stroke-linecap: square"/>
     </g>
     <g id="line2d_52">
      <g>
       <use xlink:href="#m7abc1f5eb6" x="56.09" y="361.010682" style="stroke: #000000; stroke-width: 0.8"/>
      </g>
     </g>
     <g id="text_21">
      <!-- −0.15 -->
      <g transform="translate(18.444688 364.809901) scale(0.1 -0.1)">
       <use xlink:href="#DejaVuSans-2212"/>
       <use xlink:href="#DejaVuSans-30" transform="translate(83.789062 0)"/>
       <use xlink:href="#DejaVuSans-2e" transform="translate(147.412109 0)"/>
       <use xlink:href="#DejaVuSans-31" transform="translate(179.199219 0)"/>
       <use xlink:href="#DejaVuSans-35" transform="translate(242.822266 0)"/>
      </g>
     </g>
    </g>
    <g id="ytick_10">
     <g id="line2d_53">
      <path d="M 56.09 340.275455 
L 557.325 340.275455 
" clip-path="url(#p2b5e785105)" style="fill: none; stroke: #b0b0b0; stroke-width: 0.8; stroke-linecap: square"/>
     </g>
     <g id="line2d_54">
      <g>
       <use xlink:href="#m7abc1f5eb6" x="56.09" y="340.275455" style="stroke: #000000; stroke-width: 0.8"/>
      </g>
     </g>
     <g id="text_22">
      <!-- −0.10 -->
      <g transform="translate(18.444688 344.074673) scale(0.1 -0.1)">
       <use xlink:href="#DejaVuSans-2212"/>
       <use xlink:href="#DejaVuSans-30" transform="translate(83.789062 0)"/>
       <use xlink:href="#DejaVuSans-2e" transform="translate(147.412109 0)"/>
       <use xlink:href="#DejaVuSans-31" transform="translate(179.199219 0)"/>
       <use xlink:href="#DejaVuSans-30" transform="translate(242.822266 0)"/>
      </g>
     </g>
    </g>
    <g id="ytick_11">
     <g id="line2d_55">
      <path d="M 56.09 319.540227 
L 557.325 319.540227 
" clip-path="url(#p2b5e785105)" style="fill: none; stroke: #b0b0b0; stroke-width: 0.8; stroke-linecap: square"/>
     </g>
     <g id="line2d_56">
      <g>
       <use xlink:href="#m7abc1f5eb6" x="56.09" y="319.540227" style="stroke: #000000; stroke-width: 0.8"/>
      </g>
     </g>
     <g id="text_23">
      <!-- −0.05 -->
      <g transform="translate(18.444688 323.339446) scale(0.1 -0.1)">
       <use xlink:href="#DejaVuSans-2212"/>
       <use xlink:href="#DejaVuSans-30" transform="translate(83.789062 0)"/>
       <use xlink:href="#DejaVuSans-2e" transform="translate(147.412109 0)"/>
       <use xlink:href="#DejaVuSans-30" transform="translate(179.199219 0)"/>
       <use xlink:href="#DejaVuSans-35" transform="translate(242.822266 0)"/>
      </g>
     </g>
    </g>
    <g id="ytick_12">
     <g id="line2d_57">
      <path d="M 56.09 298.805 
L 557.325 298.805 
" clip-path="url(#p2b5e785105)" style="fill: none; stroke: #b0b0b0; stroke-width: 0.8; stroke-linecap: square"/>
     </g>
     <g id="line2d_58">
      <g>
       <use xlink:href="#m7abc1f5eb6" x="56.09" y="298.805" style="stroke: #000000; stroke-width: 0.8"/>
      </g>
     </g>
     <g id="text_24">
      <!-- 0.00 -->
      <g transform="translate(26.824375 302.604219) scale(0.1 -0.1)">
       <use xlink:href="#DejaVuSans-30"/>
       <use xlink:href="#DejaVuSans-2e" transform="translate(63.623047 0)"/>
       <use xlink:href="#DejaVuSans-30" transform="translate(95.410156 0)"/>
       <use xlink:href="#DejaVuSans-30" transform="translate(159.033203 0)"/>
      </g>
     </g>
    </g>
    <g id="ytick_13">
     <g id="line2d_59">
      <path d="M 56.09 278.069773 
L 557.325 278.069773 
" clip-path="url(#p2b5e785105)" style="fill: none; stroke: #b0b0b0; stroke-width: 0.8; stroke-linecap: square"/>
     </g>
     <g id="line2d_60">
      <g>
       <use xlink:href="#m7abc1f5eb6" x="56.09" y="278.069773" style="stroke: #000000; stroke-width: 0.8"/>
      </g>
     </g>
     <g id="text_25">
      <!-- 0.05 -->
      <g transform="translate(26.824375 281.868991) scale(0.1 -0.1)">
       <use xlink:href="#DejaVuSans-30"/>
       <use xlink:href="#DejaVuSans-2e" transform="translate(63.623047 0)"/>
       <use xlink:href="#DejaVuSans-30" transform="translate(95.410156 0)"/>
       <use xlink:href="#DejaVuSans-35" transform="translate(159.033203 0)"/>
      </g>
     </g>
    </g>
    <g id="ytick_14">
     <g id="line2d_61">
      <path d="M 56.09 257.334545 
L 557.325 257.334545 
" clip-path="url(#p2b5e785105)" style="fill: none; stroke: #b0b0b0; stroke-width: 0.8; stroke-linecap: square"/>
     </g>
     <g id="line2d_62">
      <g>
       <use xlink:href="#m7abc1f5eb6" x="56.09" y="257.334545" style="stroke: #000000; stroke-width: 0.8"/>
      </g>
     </g>
     <g id="text_26">
      <!-- 0.10 -->
      <g transform="translate(26.824375 261.133764) scale(0.1 -0.1)">
       <use xlink:href="#DejaVuSans-30"/>
       <use xlink:href="#DejaVuSans-2e" transform="translate(63.623047 0)"/>
       <use xlink:href="#DejaVuSans-31" transform="translate(95.410156 0)"/>
       <use xlink:href="#DejaVuSans-30" transform="translate(159.033203 0)"/>
      </g>
     </g>
    </g>
    <g id="ytick_15">
     <g id="line2d_63">
      <path d="M 56.09 236.599318 
L 557.325 236.599318 
" clip-path="url(#p2b5e785105)" style="fill: none; stroke: #b0b0b0; stroke-width: 0.8; stroke-linecap: square"/>
     </g>
     <g id="line2d_64">
      <g>
       <use xlink:href="#m7abc1f5eb6" x="56.09" y="236.599318" style="stroke: #000000; stroke-width: 0.8"/>
      </g>
     </g>
     <g id="text_27">
      <!-- 0.15 -->
      <g transform="translate(26.824375 240.398537) scale(0.1 -0.1)">
       <use xlink:href="#DejaVuSans-30"/>
       <use xlink:href="#DejaVuSans-2e" transform="translate(63.623047 0)"/>
       <use xlink:href="#DejaVuSans-31" transform="translate(95.410156 0)"/>
       <use xlink:href="#DejaVuSans-35" transform="translate(159.033203 0)"/>
      </g>
     </g>
    </g>
    <g id="ytick_16">
     <g id="line2d_65">
      <path d="M 56.09 215.864091 
L 557.325 215.864091 
" clip-path="url(#p2b5e785105)" style="fill: none; stroke: #b0b0b0; stroke-width: 0.8; stroke-linecap: square"/>
     </g>
     <g id="line2d_66">
      <g>
       <use xlink:href="#m7abc1f5eb6" x="56.09" y="215.864091" style="stroke: #000000; stroke-width: 0.8"/>
      </g>
     </g>
     <g id="text_28">
      <!-- 0.20 -->
      <g transform="translate(26.824375 219.66331) scale(0.1 -0.1)">
       <use xlink:href="#DejaVuSans-30"/>
       <use xlink:href="#DejaVuSans-2e" transform="translate(63.623047 0)"/>
       <use xlink:href="#DejaVuSans-32" transform="translate(95.410156 0)"/>
       <use xlink:href="#DejaVuSans-30" transform="translate(159.033203 0)"/>
      </g>
     </g>
    </g>
    <g id="text_29">
     <!-- Port:200 -->
     <g transform="translate(12.365 319.941719) rotate(-90) scale(0.1 -0.1)">
      <use xlink:href="#DejaVuSans-50"/>
      <use xlink:href="#DejaVuSans-6f" transform="translate(56.677734 0)"/>
      <use xlink:href="#DejaVuSans-72" transform="translate(117.859375 0)"/>
      <use xlink:href="#DejaVuSans-74" transform="translate(158.972656 0)"/>
      <use xlink:href="#DejaVuSans-3a" transform="translate(198.181641 0)"/>
      <use xlink:href="#DejaVuSans-32" transform="translate(231.873047 0)"/>
      <use xlink:href="#DejaVuSans-30" transform="translate(295.496094 0)"/>
      <use xlink:href="#DejaVuSans-30" transform="translate(359.119141 0)"/>
     </g>
    </g>
   </g>
   <g id="line2d_67">
    <path d="M 56.09 298.805 
L 127.695 298.805 
L 128.26784 226.631168 
L 128.55426 215.87064 
L 128.69747 219.01355 
L 128.98389 241.272764 
L 130.12957 379.633145 
L 130.27278 381.686977 
L 130.41599 378.002333 
L 130.70241 354.817717 
L 131.84809 217.534931 
L 131.9913 216.027756 
L 132.13451 220.251806 
L 132.42093 244.347181 
L 133.56661 380.465661 
L 133.70982 381.425227 
L 133.85303 376.66444 
L 134.13945 351.673525 
L 135.28513 216.805326 
L 135.42834 216.393975 
L 135.57155 221.688493 
L 135.85797 247.559162 
L 136.86044 375.531745 
L 137.00365 381.091895 
L 137.14686 380.954771 
L 137.29007 375.129866 
L 137.57649 348.395783 
L 138.57896 221.310908 
L 138.72217 216.282858 
L 138.86538 216.968371 
L 139.00859 223.319983 
L 139.29501 250.900595 
L 140.29748 377.017492 
L 140.44069 381.510266 
L 140.5839 380.276798 
L 140.87032 361.363295 
L 141.29995 304.012903 
L 141.87279 229.339663 
L 142.15921 215.968849 
L 142.30242 217.749493 
L 142.58884 237.634992 
L 143.16168 317.406221 
L 143.59131 369.387256 
L 143.87773 381.719715 
L 144.02094 379.393019 
L 144.30736 358.548085 
L 144.8802 278.178435 
L 145.30983 227.150406 
L 145.59625 215.864091 
L 145.73946 218.735369 
L 146.02588 240.526573 
L 146.59872 321.443882 
L 147.02835 371.486673 
L 147.31477 381.719715 
L 147.45798 378.305669 
L 147.7444 355.581959 
L 148.89008 217.749493 
L 149.03329 215.968849 
L 149.1765 219.923508 
L 149.46292 243.56537 
L 150.6086 380.276798 
L 150.75181 381.510266 
L 150.89502 377.017492 
L 151.18144 352.47241 
L 152.32712 216.968371 
L 152.47033 216.282858 
L 152.61354 221.310908 
L 152.89996 246.743708 
L 153.90243 375.129866 
L 154.04564 380.954771 
L 154.18885 381.091895 
L 154.33206 375.531745 
L 154.61848 349.227292 
L 155.62095 221.688493 
L 155.76416 216.393975 
L 155.90737 216.805326 
L 156.05058 222.894065 
L 156.337 250.053557 
L 157.33947 376.66444 
L 157.48268 381.425227 
L 157.62589 380.465661 
L 157.7691 373.852178 
L 158.05552 345.854802 
L 159.05799 220.251806 
L 159.2012 216.027756 
L 159.34441 217.534931 
L 159.63083 236.935963 
L 160.06046 294.637691 
L 160.6333 368.834326 
L 160.91972 381.686977 
L 161.06293 379.633145 
L 161.34935 359.266321 
L 161.92219 279.189558 
L 162.35182 227.68096 
L 162.63824 215.87064 
L 162.78145 218.469832 
L 163.06787 239.789584 
L 163.64071 320.439432 
L 164.07034 370.978832 
L 164.35676 381.73936 
L 164.49997 378.59645 
L 164.78639 356.337236 
L 165.93207 217.976855 
L 166.07528 215.923023 
L 166.21849 219.607667 
L 166.50491 242.792283 
L 167.65059 380.075069 
L 167.7938 381.582244 
L 167.93701 377.358194 
L 168.22343 353.262819 
L 169.36911 217.144339 
L 169.51232 216.184773 
L 169.65553 220.94556 
L 169.94195 245.936475 
L 171.08763 380.804674 
L 171.23084 381.216025 
L 171.37405 375.921507 
L 171.66047 350.050838 
L 172.66294 222.078255 
L 172.80615 216.518105 
L 172.94936 216.655229 
L 173.09257 222.480134 
L 173.37899 249.214217 
L 174.38146 376.299092 
L 174.52467 381.327142 
L 174.66788 380.641629 
L 174.81109 374.290017 
L 175.09751 346.709405 
L 176.09998 220.592508 
L 176.24319 216.099734 
L 176.3864 217.333202 
L 176.67282 236.246705 
L 177.10245 293.597097 
L 177.67529 368.270337 
L 177.96171 381.641151 
L 178.10492 379.860507 
L 178.39134 359.975008 
L 178.96418 280.203779 
L 179.39381 228.222744 
L 179.68023 215.890285 
L 179.82344 218.216981 
L 180.10986 239.061915 
L 180.6827 319.431565 
L 181.11233 370.459594 
L 181.39875 381.745909 
L 181.54196 378.874631 
L 181.82838 357.083427 
L 182.40122 276.166118 
L 182.83085 226.123327 
L 183.11727 215.890285 
L 183.26048 219.304331 
L 183.5469 242.028041 
L 184.69258 379.860507 
L 184.83579 381.641151 
L 184.979 377.686492 
L 185.26542 354.04463 
L 186.4111 217.333202 
L 186.55431 216.099734 
L 186.69752 220.592508 
L 186.98394 245.13759 
L 188.12962 380.641629 
L 188.27283 381.327142 
L 188.41604 376.299092 
L 188.70246 350.866292 
L 189.70493 222.480134 
L 189.84814 216.655229 
L 189.99135 216.518105 
L 190.13456 222.078255 
L 190.42098 248.382708 
L 191.42345 375.921507 
L 191.56666 381.216025 
L 191.70987 380.804674 
L 191.85308 374.715935 
L 192.1395 347.556443 
L 193.14197 220.94556 
L 193.28518 216.184773 
L 193.42839 217.144339 
L 193.5716 223.757822 
L 193.85802 251.755198 
L 194.86049 377.358194 
L 195.0037 381.582244 
L 195.14691 380.075069 
L 195.43333 360.674037 
L 195.86296 302.972309 
L 196.4358 228.775674 
L 196.72222 215.923023 
L 196.86543 217.976855 
L 197.15185 238.343679 
L 197.72469 318.420442 
L 198.15432 369.92904 
L 198.44074 381.73936 
L 198.58395 379.140168 
L 198.87037 357.820416 
L 199.44321 277.170568 
L 199.87284 226.631168 
L 200.15926 215.87064 
L 200.30247 219.01355 
L 200.58889 241.272764 
L 201.73457 379.633145 
L 201.87778 381.686977 
L 202.02099 378.002333 
L 202.30741 354.817717 
L 203.45309 217.534931 
L 203.5963 216.027756 
L 203.73951 220.251806 
L 204.02593 244.347181 
L 205.17161 380.465661 
L 205.31482 381.425227 
L 205.45803 376.66444 
L 205.74445 351.673525 
L 206.89013 216.805326 
L 207.03334 216.393975 
L 207.17655 221.688493 
L 207.46297 247.559162 
L 208.46544 375.531745 
L 208.60865 381.091895 
L 208.75186 380.954771 
L 208.89507 375.129866 
L 209.18149 348.395783 
L 210.18396 221.310908 
L 210.32717 216.282858 
L 210.47038 216.968371 
L 210.61359 223.319983 
L 210.90001 250.900595 
L 211.90248 377.017492 
L 212.04569 381.510266 
L 212.1889 380.276798 
L 212.47532 361.363295 
L 212.90495 304.012903 
L 213.47779 229.339663 
L 213.76421 215.968849 
L 213.90742 217.749493 
L 214.19384 237.634992 
L 214.76668 317.406221 
L 215.19631 369.387256 
L 215.48273 381.719715 
L 215.62594 379.393019 
L 215.91236 358.548085 
L 216.4852 278.178435 
L 216.91483 227.150406 
L 217.20125 215.864091 
L 217.34446 218.735369 
L 217.63088 240.526573 
L 218.20372 321.443882 
L 218.63335 371.486673 
L 218.91977 381.719715 
L 219.06298 378.305669 
L 219.3494 355.581959 
L 220.49508 217.749493 
L 220.63829 215.968849 
L 220.7815 219.923508 
L 221.06792 243.56537 
L 222.2136 380.276798 
L 222.35681 381.510266 
L 222.50002 377.017492 
L 222.78644 352.47241 
L 223.93212 216.968371 
L 224.07533 216.282858 
L 224.21854 221.310908 
L 224.50496 246.743708 
L 225.50743 375.129866 
L 225.65064 380.954771 
L 225.79385 381.091895 
L 225.93706 375.531745 
L 226.22348 349.227292 
L 227.22595 221.688493 
L 227.36916 216.393975 
L 227.51237 216.805326 
L 227.65558 222.894065 
L 227.942 250.053557 
L 228.94447 376.66444 
L 229.08768 381.425227 
L 229.23089 380.465661 
L 229.3741 373.852178 
L 229.66052 345.854802 
L 230.66299 220.251806 
L 230.8062 216.027756 
L 230.94941 217.534931 
L 231.23583 236.935963 
L 231.66546 294.637691 
L 232.2383 368.834326 
L 232.52472 381.686977 
L 232.66793 379.633145 
L 232.95435 359.266321 
L 233.52719 279.189558 
L 233.95682 227.68096 
L 234.24324 215.87064 
L 234.38645 218.469832 
L 234.67287 239.789584 
L 235.24571 320.439432 
L 235.67534 370.978832 
L 235.96176 381.73936 
L 236.10497 378.59645 
L 236.39139 356.337236 
L 237.53707 217.976855 
L 237.68028 215.923023 
L 237.82349 219.607667 
L 238.10991 242.792283 
L 239.25559 380.075069 
L 239.3988 381.582244 
L 239.54201 377.358194 
L 239.82843 353.262819 
L 240.97411 217.144339 
L 241.11732 216.184773 
L 241.26053 220.94556 
L 241.54695 245.936475 
L 242.69263 380.804674 
L 242.83584 381.216025 
L 242.97905 375.921507 
L 243.26547 350.050838 
L 244.26794 222.078255 
L 244.41115 216.518105 
L 244.55436 216.655229 
L 244.69757 222.480134 
L 244.98399 249.214217 
L 245.98646 376.299092 
L 246.12967 381.327142 
L 246.27288 380.641629 
L 246.41609 374.290017 
L 246.70251 346.709405 
L 247.70498 220.592508 
L 247.84819 216.099734 
L 247.9914 217.333202 
L 248.27782 236.246705 
L 248.70745 293.597097 
L 249.28029 368.270337 
L 249.56671 381.641151 
L 249.70992 379.860507 
L 249.99634 359.975008 
L 250.56918 280.203779 
L 250.99881 228.222744 
L 251.28523 215.890285 
L 251.42844 218.216981 
L 251.71486 239.061915 
L 252.2877 319.431565 
L 252.71733 370.459594 
L 253.00375 381.745909 
L 253.14696 378.874631 
L 253.43338 357.083427 
L 254.00622 276.166118 
L 254.43585 226.123327 
L 254.72227 215.890285 
L 254.86548 219.304331 
L 255.1519 242.028041 
L 256.29758 379.860507 
L 256.44079 381.641151 
L 256.584 377.686492 
L 256.87042 354.04463 
L 258.0161 217.333202 
L 258.15931 216.099734 
L 258.30252 220.592508 
L 258.58894 245.13759 
L 259.73462 380.641629 
L 259.87783 381.327142 
L 260.02104 376.299092 
L 260.30746 350.866292 
L 261.30993 222.480134 
L 261.45314 216.655229 
L 261.59635 216.518105 
L 261.73956 222.078255 
L 262.02598 248.382708 
L 263.02845 375.921507 
L 263.17166 381.216025 
L 263.31487 380.804674 
L 263.45808 374.715935 
L 263.7445 347.556443 
L 264.74697 220.94556 
L 264.89018 216.184773 
L 265.03339 217.144339 
L 265.1766 223.757822 
L 265.46302 251.755198 
L 266.46549 377.358194 
L 266.6087 381.582244 
L 266.75191 380.075069 
L 267.03833 360.674037 
L 267.46796 302.972309 
L 268.0408 228.775674 
L 268.32722 215.923023 
L 268.47043 217.976855 
L 268.75685 238.343679 
L 269.32969 318.420442 
L 269.75932 369.92904 
L 270.04574 381.73936 
L 270.18895 379.140168 
L 270.47537 357.820416 
L 271.04821 298.805 
L 557.325 298.805 
L 557.325 298.805 
" clip-path="url(#p2b5e785105)" style="fill: none; stroke: #1f77b4; stroke-width: 1.5; stroke-linecap: square"/>
   </g>
   <g id="patch_9">
    <path d="M 56.09 390.04 
L 56.09 207.57 
" style="fill: none; stroke: #000000; stroke-width: 0.8; stroke-linejoin: miter; stroke-linecap: square"/>
   </g>
   <g id="patch_10">
    <path d="M 557.325 390.04 
L 557.325 207.57 
" style="fill: none; stroke: #000000; stroke-width: 0.8; stroke-linejoin: miter; stroke-linecap: square"/>
   </g>
   <g id="patch_11">
    <path d="M 56.09 390.04 
L 557.325 390.04 
" style="fill: none; stroke: #000000; stroke-width: 0.8; stroke-linejoin: miter; stroke-linecap: square"/>
   </g>
   <g id="patch_12">
    <path d="M 56.09 207.57 
L 557.325 207.57 
" style="fill: none; stroke: #000000; stroke-width: 0.8; stroke-linejoin: miter; stroke-linecap: square"/>
   </g>
   <g id="legend_2">
    <g id="patch_13">
     <path d="M 430.325 230.248125 
L 550.325 230.248125 
Q 552.325 230.248125 552.325 228.248125 
L 552.325 214.57 
Q 552.325 212.57 550.325 212.57 
L 430.325 212.57 
Q 428.325 212.57 428.325 214.57 
L 428.325 228.248125 
Q 428.325 230.248125 430.325 230.248125 
z
" style="fill: #ffffff; opacity: 0.8; stroke: #cccccc; stroke-linejoin: miter"/>
    </g>
    <g id="line2d_68">
     <path d="M 432.325 220.668438 
L 442.325 220.668438 
L 452.325 220.668438 
" style="fill: none; stroke: #1f77b4; stroke-width: 1.5; stroke-linecap: square"/>
    </g>
    <g id="text_30">
     <!-- FrameB: $f=7$GHz -->
     <g transform="translate(460.325 224.168438) scale(0.1 -0.1)">
      <defs>
       <path id="DejaVuSans-42" d="M 1259 2228 
L 1259 519 
L 2272 519 
Q 2781 519 3026 730 
Q 3272 941 3272 1375 
Q 3272 1813 3026 2020 
Q 2781 2228 2272 2228 
L 1259 2228 
z
M 1259 4147 
L 1259 2741 
L 2194 2741 
Q 2656 2741 2882 2914 
Q 3109 3088 3109 3444 
Q 3109 3797 2882 3972 
Q 2656 4147 2194 4147 
L 1259 4147 
z
M 628 4666 
L 2241 4666 
Q 2963 4666 3353 4366 
Q 3744 4066 3744 3513 
Q 3744 3084 3544 2831 
Q 3344 2578 2956 2516 
Q 3422 2416 3680 2098 
Q 3938 1781 3938 1306 
Q 3938 681 3513 340 
Q 3088 0 2303 0 
L 628 0 
L 628 4666 
z
" transform="scale(0.015625)"/>
      </defs>
      <use xlink:href="#DejaVuSans-46" transform="translate(0 0.015625)"/>
      <use xlink:href="#DejaVuSans-72" transform="translate(57.519531 0.015625)"/>
      <use xlink:href="#DejaVuSans-61" transform="translate(98.632812 0.015625)"/>
      <use xlink:href="#DejaVuSans-6d" transform="translate(159.912109 0.015625)"/>
      <use xlink:href="#DejaVuSans-65" transform="translate(257.324219 0.015625)"/>
      <use xlink:href="#DejaVuSans-42" transform="translate(318.847656 0.015625)"/>
      <use xlink:href="#DejaVuSans-3a" transform="translate(387.451172 0.015625)"/>
      <use xlink:href="#DejaVuSans-20" transform="translate(421.142578 0.015625)"/>
      <use xlink:href="#DejaVuSans-Oblique-66" transform="translate(452.929688 0.015625)"/>
      <use xlink:href="#DejaVuSans-3d" transform="translate(507.617188 0.015625)"/>
      <use xlink:href="#DejaVuSans-37" transform="translate(610.888672 0.015625)"/>
      <use xlink:href="#DejaVuSans-47" transform="translate(674.511719 0.015625)"/>
      <use xlink:href="#DejaVuSans-48" transform="translate(752.001953 0.015625)"/>
      <use xlink:href="#DejaVuSans-7a" transform="translate(827.197266 0.015625)"/>
     </g>
    </g>
   </g>
  </g>
 </g>
 <defs>
  <clipPath id="p3e89ad9bab">
   <rect x="56.09" y="10.8" width="501.235" height="182.47"/>
  </clipPath>
  <clipPath id="p2b5e785105">
   <rect x="56.09" y="207.57" width="501.235" height="182.47"/>
  </clipPath>
 </defs>
</svg>
