<?xml version="1.0" encoding="UTF-8" standalone="no"?>
<!DOCTYPE svg PUBLIC "-//W3C//DTD SVG 1.1//EN"
 "http://www.w3.org/Graphics/SVG/1.1/DTD/svg11.dtd">
<!-- Generated by graphviz version 2.43.0 (0)
 -->
<!-- Pages: 1 -->
<svg width="630pt" height="392pt"
 viewBox="0.00 0.00 630.00 392.00" xmlns="http://www.w3.org/2000/svg" xmlns:xlink="http://www.w3.org/1999/xlink">
<g id="graph0" class="graph" transform="scale(1 1) rotate(0) translate(4 388)">
<polygon fill="white" stroke="transparent" points="-4,4 -4,-388 626,-388 626,4 -4,4"/>
<!-- NumericExpression1 -->
<g id="node1" class="node">
<title>NumericExpression1</title>
<polygon fill="none" stroke="black" points="54,-36 0,-36 0,0 54,0 54,-36"/>
<text text-anchor="middle" x="27" y="-14.3" font-family="Times,serif" font-size="14.00">100</text>
</g>
<!-- Port1 -->
<g id="node2" class="node">
<title>Port1</title>
<polygon fill="none" stroke="black" points="54,-123 0,-123 0,-87 54,-87 54,-123"/>
<text text-anchor="middle" x="27" y="-101.3" font-family="Times,serif" font-size="14.00">Port</text>
</g>
<!-- Port1&#45;&gt;NumericExpression1 -->
<g id="edge1" class="edge">
<title>Port1&#45;&gt;NumericExpression1</title>
<path fill="none" stroke="black" stroke-dasharray="5,2" d="M27,-86.8C27,-75.16 27,-59.55 27,-46.24"/>
<polygon fill="black" stroke="black" points="30.5,-46.18 27,-36.18 23.5,-46.18 30.5,-46.18"/>
<text text-anchor="middle" x="34.5" y="-57.8" font-family="Times,serif" font-size="14.00">Id</text>
</g>
<!-- Frequency1 -->
<g id="node3" class="node">
<title>Frequency1</title>
<polygon fill="none" stroke="black" points="133.5,-123 72.5,-123 72.5,-87 133.5,-87 133.5,-123"/>
<text text-anchor="middle" x="103" y="-101.3" font-family="Times,serif" font-size="14.00">5 GHz</text>
</g>
<!-- Radians2 -->
<g id="node4" class="node">
<title>Radians2</title>
<polygon fill="none" stroke="black" points="221,-123 167,-123 167,-87 221,-87 221,-123"/>
<text text-anchor="middle" x="194" y="-101.3" font-family="Times,serif" font-size="14.00">0 rad</text>
</g>
<!-- Frequency3 -->
<g id="node5" class="node">
<title>Frequency3</title>
<polygon fill="none" stroke="black" points="312.5,-123 239.5,-123 239.5,-87 312.5,-87 312.5,-123"/>
<text text-anchor="middle" x="276" y="-101.3" font-family="Times,serif" font-size="14.00">10 MHz</text>
</g>
<!-- Frame1 -->
<g id="node6" class="node">
<title>Frame1</title>
<polygon fill="none" stroke="black" points="233.5,-210 170.5,-210 170.5,-174 233.5,-174 233.5,-210"/>
<text text-anchor="middle" x="202" y="-188.3" font-family="Times,serif" font-size="14.00">Frame</text>
</g>
<!-- Frame1&#45;&gt;Port1 -->
<g id="edge2" class="edge">
<title>Frame1&#45;&gt;Port1</title>
<path fill="none" stroke="black" stroke-dasharray="5,2" d="M170.4,-187.09C143.52,-182.68 104.67,-173.68 75,-156 64.13,-149.52 54.08,-139.92 46.03,-130.87"/>
<polygon fill="black" stroke="black" points="48.62,-128.51 39.49,-123.14 43.27,-133.03 48.62,-128.51"/>
<text text-anchor="middle" x="90.5" y="-144.8" font-family="Times,serif" font-size="14.00">Port</text>
</g>
<!-- Frame1&#45;&gt;Frequency1 -->
<g id="edge3" class="edge">
<title>Frame1&#45;&gt;Frequency1</title>
<path fill="none" stroke="black" stroke-dasharray="5,2" d="M170.16,-184.76C152.54,-179.77 131.54,-171.02 118,-156 112.28,-149.66 108.74,-141.21 106.55,-133.07"/>
<polygon fill="black" stroke="black" points="109.93,-132.15 104.43,-123.1 103.09,-133.61 109.93,-132.15"/>
<text text-anchor="middle" x="156" y="-144.8" font-family="Times,serif" font-size="14.00">Frequency</text>
</g>
<!-- Frame1&#45;&gt;Radians2 -->
<g id="edge4" class="edge">
<title>Frame1&#45;&gt;Radians2</title>
<path fill="none" stroke="black" stroke-dasharray="5,2" d="M200.38,-173.8C199.29,-162.16 197.82,-146.55 196.56,-133.24"/>
<polygon fill="black" stroke="black" points="200.04,-132.8 195.62,-123.18 193.07,-133.46 200.04,-132.8"/>
<text text-anchor="middle" x="220.5" y="-144.8" font-family="Times,serif" font-size="14.00">Phase</text>
</g>
<!-- Frame1&#45;&gt;Frequency3 -->
<g id="edge5" class="edge">
<title>Frame1&#45;&gt;Frequency3</title>
<path fill="none" stroke="black" stroke-dasharray="5,2" d="M226.66,-173.91C233.37,-168.61 240.34,-162.46 246,-156 252.3,-148.81 258.04,-140.12 262.77,-132.01"/>
<polygon fill="black" stroke="black" points="265.85,-133.66 267.66,-123.22 259.74,-130.26 265.85,-133.66"/>
<text text-anchor="middle" x="341.5" y="-144.8" font-family="Times,serif" font-size="14.00">IntermediateFrequency</text>
</g>
<!-- Interval4 -->
<g id="node7" class="node">
<title>Interval4</title>
<polygon fill="none" stroke="black" points="496.5,-123 431.5,-123 431.5,-87 496.5,-87 496.5,-123"/>
<text text-anchor="middle" x="464" y="-101.3" font-family="Times,serif" font-size="14.00">100 ns</text>
</g>
<!-- Waveform1 -->
<g id="node8" class="node">
<title>Waveform1</title>
<polygon fill="none" stroke="black" points="513.5,-210 360.5,-210 360.5,-174 513.5,-174 513.5,-210"/>
<text text-anchor="middle" x="437" y="-188.3" font-family="Times,serif" font-size="14.00">ConstantWaveform</text>
</g>
<!-- Waveform1&#45;&gt;Interval4 -->
<g id="edge6" class="edge">
<title>Waveform1&#45;&gt;Interval4</title>
<path fill="none" stroke="black" stroke-dasharray="5,2" d="M442.46,-173.8C446.2,-162.05 451.22,-146.24 455.47,-132.84"/>
<polygon fill="black" stroke="black" points="458.85,-133.77 458.54,-123.18 452.18,-131.65 458.85,-133.77"/>
<text text-anchor="middle" x="485" y="-144.8" font-family="Times,serif" font-size="14.00">Duration</text>
</g>
<!-- Instruction1 -->
<g id="node9" class="node">
<title>Instruction1</title>
<polygon fill="none" stroke="black" points="503,-297 371,-297 371,-261 503,-261 503,-297"/>
<text text-anchor="middle" x="437" y="-275.3" font-family="Times,serif" font-size="14.00">ModulatedPulse</text>
</g>
<!-- Instruction1&#45;&gt;Frame1 -->
<g id="edge7" class="edge">
<title>Instruction1&#45;&gt;Frame1</title>
<path fill="none" stroke="black" stroke-dasharray="5,2" d="M389.73,-260.9C346.88,-245.41 284.37,-222.79 243.44,-207.99"/>
<polygon fill="black" stroke="black" points="244.37,-204.6 233.78,-204.49 241.99,-211.19 244.37,-204.6"/>
<text text-anchor="middle" x="357.5" y="-231.8" font-family="Times,serif" font-size="14.00">Frame</text>
</g>
<!-- Instruction1&#45;&gt;Waveform1 -->
<g id="edge8" class="edge">
<title>Instruction1&#45;&gt;Waveform1</title>
<path fill="none" stroke="black" stroke-dasharray="5,2" d="M437,-260.8C437,-249.16 437,-233.55 437,-220.24"/>
<polygon fill="black" stroke="black" points="440.5,-220.18 437,-210.18 433.5,-220.18 440.5,-220.18"/>
<text text-anchor="middle" x="470.5" y="-231.8" font-family="Times,serif" font-size="14.00">Envelope</text>
</g>
<!-- Amplitude5 -->
<g id="node11" class="node">
<title>Amplitude5</title>
<polygon fill="none" stroke="black" points="622,-210 532,-210 532,-174 622,-174 622,-210"/>
<text text-anchor="middle" x="577" y="-188.3" font-family="Times,serif" font-size="14.00">Amplitude</text>
</g>
<!-- Instruction1&#45;&gt;Amplitude5 -->
<g id="edge10" class="edge">
<title>Instruction1&#45;&gt;Amplitude5</title>
<path fill="none" stroke="black" stroke-dasharray="5,2" d="M474.48,-260.99C485.49,-255.61 497.41,-249.39 508,-243 521.25,-235.01 535.2,-225.2 547.05,-216.39"/>
<polygon fill="black" stroke="black" points="549.4,-219.01 555.28,-210.2 545.18,-213.42 549.4,-219.01"/>
<text text-anchor="middle" x="567" y="-231.8" font-family="Times,serif" font-size="14.00">Amplitude</text>
</g>
<!-- NumericExpression2 -->
<g id="node10" class="node">
<title>NumericExpression2</title>
<polygon fill="none" stroke="black" points="604,-123 550,-123 550,-87 604,-87 604,-123"/>
<text text-anchor="middle" x="577" y="-101.3" font-family="Times,serif" font-size="14.00">0.5</text>
</g>
<!-- Amplitude5&#45;&gt;NumericExpression2 -->
<g id="edge9" class="edge">
<title>Amplitude5&#45;&gt;NumericExpression2</title>
<path fill="none" stroke="black" stroke-dasharray="5,2" d="M577,-173.8C577,-162.16 577,-146.55 577,-133.24"/>
<polygon fill="black" stroke="black" points="580.5,-133.18 577,-123.18 573.5,-133.18 580.5,-133.18"/>
<text text-anchor="middle" x="597" y="-144.8" font-family="Times,serif" font-size="14.00">Value</text>
</g>
<!-- Job -->
<g id="node12" class="node">
<title>Job</title>
<polygon fill="none" stroke="black" points="464,-384 410,-384 410,-348 464,-348 464,-384"/>
<text text-anchor="middle" x="437" y="-362.3" font-family="Times,serif" font-size="14.00">Job</text>
</g>
<!-- Job&#45;&gt;Instruction1 -->
<g id="edge11" class="edge">
<title>Job&#45;&gt;Instruction1</title>
<path fill="none" stroke="black" stroke-dasharray="5,2" d="M437,-347.8C437,-336.16 437,-320.55 437,-307.24"/>
<polygon fill="black" stroke="black" points="440.5,-307.18 437,-297.18 433.5,-307.18 440.5,-307.18"/>
<text text-anchor="middle" x="476" y="-318.8" font-family="Times,serif" font-size="14.00">EntryPoint</text>
</g>
</g>
</svg>
