<?xml version="1.0" encoding="UTF-8" standalone="no"?>
<!DOCTYPE svg PUBLIC "-//W3C//DTD SVG 1.1//EN"
 "http://www.w3.org/Graphics/SVG/1.1/DTD/svg11.dtd">
<!-- Generated by graphviz version 2.43.0 (0)
 -->
<!-- Pages: 1 -->
<svg width="1872pt" height="653pt"
 viewBox="0.00 0.00 1872.00 653.00" xmlns="http://www.w3.org/2000/svg" xmlns:xlink="http://www.w3.org/1999/xlink">
<g id="graph0" class="graph" transform="scale(1 1) rotate(0) translate(4 649)">
<polygon fill="white" stroke="transparent" points="-4,4 -4,-649 1868,-649 1868,4 -4,4"/>
<!-- Interval1 -->
<g id="node1" class="node">
<title>Interval1</title>
<polygon fill="none" stroke="black" points="112,-384 58,-384 58,-348 112,-348 112,-384"/>
<text text-anchor="middle" x="85" y="-362.3" font-family="Times,serif" font-size="14.00">0</text>
</g>
<!-- Interval2 -->
<g id="node2" class="node">
<title>Interval2</title>
<polygon fill="none" stroke="black" points="206,-384 152,-384 152,-348 206,-348 206,-384"/>
<text text-anchor="middle" x="179" y="-362.3" font-family="Times,serif" font-size="14.00">0</text>
</g>
<!-- NumericExpression1 -->
<g id="node3" class="node">
<title>NumericExpression1</title>
<polygon fill="none" stroke="black" points="676,-36 622,-36 622,0 676,0 676,-36"/>
<text text-anchor="middle" x="649" y="-14.3" font-family="Times,serif" font-size="14.00">100</text>
</g>
<!-- Port1 -->
<g id="node4" class="node">
<title>Port1</title>
<polygon fill="none" stroke="black" points="676,-123 622,-123 622,-87 676,-87 676,-123"/>
<text text-anchor="middle" x="649" y="-101.3" font-family="Times,serif" font-size="14.00">Port</text>
</g>
<!-- Port1&#45;&gt;NumericExpression1 -->
<g id="edge1" class="edge">
<title>Port1&#45;&gt;NumericExpression1</title>
<path fill="none" stroke="black" stroke-dasharray="5,2" d="M649,-86.8C649,-75.16 649,-59.55 649,-46.24"/>
<polygon fill="black" stroke="black" points="652.5,-46.18 649,-36.18 645.5,-46.18 652.5,-46.18"/>
<text text-anchor="middle" x="656.5" y="-57.8" font-family="Times,serif" font-size="14.00">Id</text>
</g>
<!-- Frequency3 -->
<g id="node5" class="node">
<title>Frequency3</title>
<polygon fill="none" stroke="black" points="755.5,-123 694.5,-123 694.5,-87 755.5,-87 755.5,-123"/>
<text text-anchor="middle" x="725" y="-101.3" font-family="Times,serif" font-size="14.00">5 GHz</text>
</g>
<!-- Radians4 -->
<g id="node6" class="node">
<title>Radians4</title>
<polygon fill="none" stroke="black" points="851,-123 797,-123 797,-87 851,-87 851,-123"/>
<text text-anchor="middle" x="824" y="-101.3" font-family="Times,serif" font-size="14.00">0 rad</text>
</g>
<!-- Frequency5 -->
<g id="node7" class="node">
<title>Frequency5</title>
<polygon fill="none" stroke="black" points="515.5,-123 442.5,-123 442.5,-87 515.5,-87 515.5,-123"/>
<text text-anchor="middle" x="479" y="-101.3" font-family="Times,serif" font-size="14.00">10 MHz</text>
</g>
<!-- Frame1 -->
<g id="node8" class="node">
<title>Frame1</title>
<polygon fill="none" stroke="black" points="720.5,-210 657.5,-210 657.5,-174 720.5,-174 720.5,-210"/>
<text text-anchor="middle" x="689" y="-188.3" font-family="Times,serif" font-size="14.00">Frame</text>
</g>
<!-- Frame1&#45;&gt;Port1 -->
<g id="edge2" class="edge">
<title>Frame1&#45;&gt;Port1</title>
<path fill="none" stroke="black" stroke-dasharray="5,2" d="M678.55,-173.81C675.32,-168.22 671.86,-161.92 669,-156 665.44,-148.62 661.97,-140.44 658.95,-132.87"/>
<polygon fill="black" stroke="black" points="662.15,-131.44 655.27,-123.38 655.63,-133.97 662.15,-131.44"/>
<text text-anchor="middle" x="684.5" y="-144.8" font-family="Times,serif" font-size="14.00">Port</text>
</g>
<!-- Frame1&#45;&gt;Frequency3 -->
<g id="edge3" class="edge">
<title>Frame1&#45;&gt;Frequency3</title>
<path fill="none" stroke="black" stroke-dasharray="5,2" d="M696.29,-173.8C701.31,-161.93 708.09,-145.93 713.8,-132.45"/>
<polygon fill="black" stroke="black" points="717.05,-133.75 717.73,-123.18 710.6,-131.02 717.05,-133.75"/>
<text text-anchor="middle" x="747" y="-144.8" font-family="Times,serif" font-size="14.00">Frequency</text>
</g>
<!-- Frame1&#45;&gt;Radians4 -->
<g id="edge4" class="edge">
<title>Frame1&#45;&gt;Radians4</title>
<path fill="none" stroke="black" stroke-dasharray="5,2" d="M720.67,-177.51C723.8,-176.29 726.95,-175.09 730,-174 755.8,-164.74 766.82,-172.11 789,-156 797.65,-149.72 804.92,-140.61 810.56,-131.89"/>
<polygon fill="black" stroke="black" points="813.7,-133.46 815.82,-123.08 807.69,-129.87 813.7,-133.46"/>
<text text-anchor="middle" x="824.5" y="-144.8" font-family="Times,serif" font-size="14.00">Phase</text>
</g>
<!-- Frame1&#45;&gt;Frequency5 -->
<g id="edge5" class="edge">
<title>Frame1&#45;&gt;Frequency5</title>
<path fill="none" stroke="black" stroke-dasharray="5,2" d="M657.23,-184.52C640.77,-181.23 620.34,-177.25 602,-174 576.96,-169.56 507.33,-173.62 489,-156 482.9,-150.13 479.96,-141.67 478.67,-133.38"/>
<polygon fill="black" stroke="black" points="482.14,-132.83 477.81,-123.16 475.16,-133.42 482.14,-132.83"/>
<text text-anchor="middle" x="573.5" y="-144.8" font-family="Times,serif" font-size="14.00">IntermediateFrequency</text>
</g>
<!-- Interval6 -->
<g id="node9" class="node">
<title>Interval6</title>
<polygon fill="none" stroke="black" points="312,-123 256,-123 256,-87 312,-87 312,-123"/>
<text text-anchor="middle" x="284" y="-101.3" font-family="Times,serif" font-size="14.00">50 ns</text>
</g>
<!-- Waveform1 -->
<g id="node10" class="node">
<title>Waveform1</title>
<polygon fill="none" stroke="black" points="360.5,-210 207.5,-210 207.5,-174 360.5,-174 360.5,-210"/>
<text text-anchor="middle" x="284" y="-188.3" font-family="Times,serif" font-size="14.00">ConstantWaveform</text>
</g>
<!-- Waveform1&#45;&gt;Interval6 -->
<g id="edge6" class="edge">
<title>Waveform1&#45;&gt;Interval6</title>
<path fill="none" stroke="black" stroke-dasharray="5,2" d="M284,-173.8C284,-162.16 284,-146.55 284,-133.24"/>
<polygon fill="black" stroke="black" points="287.5,-133.18 284,-123.18 280.5,-133.18 287.5,-133.18"/>
<text text-anchor="middle" x="316" y="-144.8" font-family="Times,serif" font-size="14.00">Duration</text>
</g>
<!-- Instruction1 -->
<g id="node11" class="node">
<title>Instruction1</title>
<polygon fill="none" stroke="black" points="299,-297 167,-297 167,-261 299,-261 299,-297"/>
<text text-anchor="middle" x="233" y="-275.3" font-family="Times,serif" font-size="14.00">ModulatedPulse</text>
</g>
<!-- Instruction1&#45;&gt;Frame1 -->
<g id="edge7" class="edge">
<title>Instruction1&#45;&gt;Frame1</title>
<path fill="none" stroke="black" stroke-dasharray="5,2" d="M299.21,-273.36C366.25,-267.95 464.9,-257.81 500,-243 509.91,-238.82 509.25,-232.54 519,-228 524.85,-225.28 599,-210.52 647.42,-201.06"/>
<polygon fill="black" stroke="black" points="648.18,-204.48 657.33,-199.13 646.84,-197.61 648.18,-204.48"/>
<text text-anchor="middle" x="542.5" y="-231.8" font-family="Times,serif" font-size="14.00">Frame</text>
</g>
<!-- Instruction1&#45;&gt;Waveform1 -->
<g id="edge8" class="edge">
<title>Instruction1&#45;&gt;Waveform1</title>
<path fill="none" stroke="black" stroke-dasharray="5,2" d="M229.63,-260.82C228.51,-250.7 228.69,-237.96 234,-228 236.19,-223.89 239.1,-220.16 242.42,-216.8"/>
<polygon fill="black" stroke="black" points="244.96,-219.24 250.23,-210.04 240.38,-213.95 244.96,-219.24"/>
<text text-anchor="middle" x="267.5" y="-231.8" font-family="Times,serif" font-size="14.00">Envelope</text>
</g>
<!-- Radians7 -->
<g id="node12" class="node">
<title>Radians7</title>
<polygon fill="none" stroke="black" points="54,-210 0,-210 0,-174 54,-174 54,-210"/>
<text text-anchor="middle" x="27" y="-188.3" font-family="Times,serif" font-size="14.00">1 rad</text>
</g>
<!-- Instruction1&#45;&gt;Radians7 -->
<g id="edge9" class="edge">
<title>Instruction1&#45;&gt;Radians7</title>
<path fill="none" stroke="black" stroke-dasharray="5,2" d="M166.58,-270.98C123.34,-265.31 71.79,-256.09 54,-243 46.15,-237.22 40.34,-228.46 36.16,-219.87"/>
<polygon fill="black" stroke="black" points="39.26,-218.23 32.11,-210.42 32.83,-220.99 39.26,-218.23"/>
<text text-anchor="middle" x="97" y="-231.8" font-family="Times,serif" font-size="14.00">PhaseOffset</text>
</g>
<!-- Amplitude8 -->
<g id="node14" class="node">
<title>Amplitude8</title>
<polygon fill="none" stroke="black" points="181,-210 91,-210 91,-174 181,-174 181,-210"/>
<text text-anchor="middle" x="136" y="-188.3" font-family="Times,serif" font-size="14.00">Amplitude</text>
</g>
<!-- Instruction1&#45;&gt;Amplitude8 -->
<g id="edge11" class="edge">
<title>Instruction1&#45;&gt;Amplitude8</title>
<path fill="none" stroke="black" stroke-dasharray="5,2" d="M176.18,-260.94C167.2,-256.27 158.69,-250.38 152,-243 146.23,-236.64 142.54,-228.19 140.18,-220.04"/>
<polygon fill="black" stroke="black" points="143.54,-219.02 137.85,-210.08 136.72,-220.61 143.54,-219.02"/>
<text text-anchor="middle" x="189" y="-231.8" font-family="Times,serif" font-size="14.00">Amplitude</text>
</g>
<!-- NumericExpression2 -->
<g id="node13" class="node">
<title>NumericExpression2</title>
<polygon fill="none" stroke="black" points="163,-123 109,-123 109,-87 163,-87 163,-123"/>
<text text-anchor="middle" x="136" y="-101.3" font-family="Times,serif" font-size="14.00">0.1</text>
</g>
<!-- Amplitude8&#45;&gt;NumericExpression2 -->
<g id="edge10" class="edge">
<title>Amplitude8&#45;&gt;NumericExpression2</title>
<path fill="none" stroke="black" stroke-dasharray="5,2" d="M136,-173.8C136,-162.16 136,-146.55 136,-133.24"/>
<polygon fill="black" stroke="black" points="139.5,-133.18 136,-123.18 132.5,-133.18 139.5,-133.18"/>
<text text-anchor="middle" x="156" y="-144.8" font-family="Times,serif" font-size="14.00">Value</text>
</g>
<!-- Interval9 -->
<g id="node15" class="node">
<title>Interval9</title>
<polygon fill="none" stroke="black" points="1744,-297 1690,-297 1690,-261 1744,-261 1744,-297"/>
<text text-anchor="middle" x="1717" y="-275.3" font-family="Times,serif" font-size="14.00">0</text>
</g>
<!-- Interval10 -->
<g id="node16" class="node">
<title>Interval10</title>
<polygon fill="none" stroke="black" points="1838,-297 1784,-297 1784,-261 1838,-261 1838,-297"/>
<text text-anchor="middle" x="1811" y="-275.3" font-family="Times,serif" font-size="14.00">0</text>
</g>
<!-- Interval11 -->
<g id="node17" class="node">
<title>Interval11</title>
<polygon fill="none" stroke="black" points="908,-210 854,-210 854,-174 908,-174 908,-210"/>
<text text-anchor="middle" x="881" y="-188.3" font-family="Times,serif" font-size="14.00">0</text>
</g>
<!-- Interval12 -->
<g id="node18" class="node">
<title>Interval12</title>
<polygon fill="none" stroke="black" points="1002,-210 948,-210 948,-174 1002,-174 1002,-210"/>
<text text-anchor="middle" x="975" y="-188.3" font-family="Times,serif" font-size="14.00">0</text>
</g>
<!-- Instruction2 -->
<g id="node19" class="node">
<title>Instruction2</title>
<polygon fill="none" stroke="black" points="635,-297 503,-297 503,-261 635,-261 635,-297"/>
<text text-anchor="middle" x="569" y="-275.3" font-family="Times,serif" font-size="14.00">ModulatedPulse</text>
</g>
<!-- Instruction2&#45;&gt;Frame1 -->
<g id="edge12" class="edge">
<title>Instruction2&#45;&gt;Frame1</title>
<path fill="none" stroke="black" stroke-dasharray="5,2" d="M619.16,-260.98C629.91,-256.1 640.79,-250.12 650,-243 658.75,-236.23 666.64,-227.07 673,-218.44"/>
<polygon fill="black" stroke="black" points="675.97,-220.3 678.82,-210.1 670.23,-216.3 675.97,-220.3"/>
<text text-anchor="middle" x="687.5" y="-231.8" font-family="Times,serif" font-size="14.00">Frame</text>
</g>
<!-- Instruction2&#45;&gt;Waveform1 -->
<g id="edge13" class="edge">
<title>Instruction2&#45;&gt;Waveform1</title>
<path fill="none" stroke="black" stroke-dasharray="5,2" d="M502.99,-278.21C455.06,-275.99 389.81,-267.94 338,-243 325.46,-236.97 313.82,-227.02 304.58,-217.58"/>
<polygon fill="black" stroke="black" points="307.09,-215.14 297.72,-210.2 301.97,-219.91 307.09,-215.14"/>
<text text-anchor="middle" x="371.5" y="-231.8" font-family="Times,serif" font-size="14.00">Envelope</text>
</g>
<!-- Radians13 -->
<g id="node20" class="node">
<title>Radians13</title>
<polygon fill="none" stroke="black" points="440,-210 386,-210 386,-174 440,-174 440,-210"/>
<text text-anchor="middle" x="413" y="-188.3" font-family="Times,serif" font-size="14.00">2 rad</text>
</g>
<!-- Instruction2&#45;&gt;Radians13 -->
<g id="edge14" class="edge">
<title>Instruction2&#45;&gt;Radians13</title>
<path fill="none" stroke="black" stroke-dasharray="5,2" d="M502.81,-271.19C466.05,-265.91 425.47,-257.05 414,-243 408.83,-236.66 407.33,-228.22 407.5,-220.07"/>
<polygon fill="black" stroke="black" points="410.98,-220.39 408.45,-210.1 404.01,-219.72 410.98,-220.39"/>
<text text-anchor="middle" x="457" y="-231.8" font-family="Times,serif" font-size="14.00">PhaseOffset</text>
</g>
<!-- Amplitude14 -->
<g id="node22" class="node">
<title>Amplitude14</title>
<polygon fill="none" stroke="black" points="593,-210 503,-210 503,-174 593,-174 593,-210"/>
<text text-anchor="middle" x="548" y="-188.3" font-family="Times,serif" font-size="14.00">Amplitude</text>
</g>
<!-- Instruction2&#45;&gt;Amplitude14 -->
<g id="edge16" class="edge">
<title>Instruction2&#45;&gt;Amplitude14</title>
<path fill="none" stroke="black" stroke-dasharray="5,2" d="M571.86,-260.55C572.83,-250.79 573.03,-238.51 570,-228 569.13,-224.99 567.92,-222 566.51,-219.09"/>
<polygon fill="black" stroke="black" points="569.47,-217.21 561.5,-210.23 563.38,-220.66 569.47,-217.21"/>
<text text-anchor="middle" x="609" y="-231.8" font-family="Times,serif" font-size="14.00">Amplitude</text>
</g>
<!-- NumericExpression3 -->
<g id="node21" class="node">
<title>NumericExpression3</title>
<polygon fill="none" stroke="black" points="424,-123 370,-123 370,-87 424,-87 424,-123"/>
<text text-anchor="middle" x="397" y="-101.3" font-family="Times,serif" font-size="14.00">0.2</text>
</g>
<!-- Amplitude14&#45;&gt;NumericExpression3 -->
<g id="edge15" class="edge">
<title>Amplitude14&#45;&gt;NumericExpression3</title>
<path fill="none" stroke="black" stroke-dasharray="5,2" d="M502.67,-183.35C470.1,-177.05 429.77,-167.33 417,-156 410.16,-149.94 405.63,-141.21 402.64,-132.74"/>
<polygon fill="black" stroke="black" points="405.98,-131.7 399.79,-123.1 399.27,-133.68 405.98,-131.7"/>
<text text-anchor="middle" x="437" y="-144.8" font-family="Times,serif" font-size="14.00">Value</text>
</g>
<!-- NumericExpression4 -->
<g id="node23" class="node">
<title>NumericExpression4</title>
<polygon fill="none" stroke="black" points="1165,-36 1111,-36 1111,0 1165,0 1165,-36"/>
<text text-anchor="middle" x="1138" y="-14.3" font-family="Times,serif" font-size="14.00">200</text>
</g>
<!-- Port2 -->
<g id="node24" class="node">
<title>Port2</title>
<polygon fill="none" stroke="black" points="1165,-123 1111,-123 1111,-87 1165,-87 1165,-123"/>
<text text-anchor="middle" x="1138" y="-101.3" font-family="Times,serif" font-size="14.00">Port</text>
</g>
<!-- Port2&#45;&gt;NumericExpression4 -->
<g id="edge17" class="edge">
<title>Port2&#45;&gt;NumericExpression4</title>
<path fill="none" stroke="black" stroke-dasharray="5,2" d="M1138,-86.8C1138,-75.16 1138,-59.55 1138,-46.24"/>
<polygon fill="black" stroke="black" points="1141.5,-46.18 1138,-36.18 1134.5,-46.18 1141.5,-46.18"/>
<text text-anchor="middle" x="1145.5" y="-57.8" font-family="Times,serif" font-size="14.00">Id</text>
</g>
<!-- Frequency15 -->
<g id="node25" class="node">
<title>Frequency15</title>
<polygon fill="none" stroke="black" points="1244.5,-123 1183.5,-123 1183.5,-87 1244.5,-87 1244.5,-123"/>
<text text-anchor="middle" x="1214" y="-101.3" font-family="Times,serif" font-size="14.00">7 GHz</text>
</g>
<!-- Radians16 -->
<g id="node26" class="node">
<title>Radians16</title>
<polygon fill="none" stroke="black" points="1340,-123 1286,-123 1286,-87 1340,-87 1340,-123"/>
<text text-anchor="middle" x="1313" y="-101.3" font-family="Times,serif" font-size="14.00">0 rad</text>
</g>
<!-- Frequency17 -->
<g id="node27" class="node">
<title>Frequency17</title>
<polygon fill="none" stroke="black" points="1014.5,-123 941.5,-123 941.5,-87 1014.5,-87 1014.5,-123"/>
<text text-anchor="middle" x="978" y="-101.3" font-family="Times,serif" font-size="14.00">20 MHz</text>
</g>
<!-- Frame2 -->
<g id="node28" class="node">
<title>Frame2</title>
<polygon fill="none" stroke="black" points="1191.5,-210 1128.5,-210 1128.5,-174 1191.5,-174 1191.5,-210"/>
<text text-anchor="middle" x="1160" y="-188.3" font-family="Times,serif" font-size="14.00">Frame</text>
</g>
<!-- Frame2&#45;&gt;Port2 -->
<g id="edge18" class="edge">
<title>Frame2&#45;&gt;Port2</title>
<path fill="none" stroke="black" stroke-dasharray="5,2" d="M1155.55,-173.8C1152.54,-162.16 1148.49,-146.55 1145.05,-133.24"/>
<polygon fill="black" stroke="black" points="1148.34,-131.98 1142.45,-123.18 1141.56,-133.73 1148.34,-131.98"/>
<text text-anchor="middle" x="1165.5" y="-144.8" font-family="Times,serif" font-size="14.00">Port</text>
</g>
<!-- Frame2&#45;&gt;Frequency15 -->
<g id="edge19" class="edge">
<title>Frame2&#45;&gt;Frequency15</title>
<path fill="none" stroke="black" stroke-dasharray="5,2" d="M1172.79,-173.78C1176.81,-168.18 1181.19,-161.9 1185,-156 1189.93,-148.36 1195,-139.87 1199.49,-132.09"/>
<polygon fill="black" stroke="black" points="1202.55,-133.79 1204.46,-123.37 1196.47,-130.32 1202.55,-133.79"/>
<text text-anchor="middle" x="1232" y="-144.8" font-family="Times,serif" font-size="14.00">Frequency</text>
</g>
<!-- Frame2&#45;&gt;Radians16 -->
<g id="edge20" class="edge">
<title>Frame2&#45;&gt;Radians16</title>
<path fill="none" stroke="black" stroke-dasharray="5,2" d="M1191.61,-177.34C1194.76,-176.15 1197.93,-175.01 1201,-174 1232.75,-163.57 1245.96,-174.17 1274,-156 1283.42,-149.89 1291.53,-140.71 1297.87,-131.88"/>
<polygon fill="black" stroke="black" points="1300.96,-133.55 1303.61,-123.29 1295.14,-129.66 1300.96,-133.55"/>
<text text-anchor="middle" x="1311.5" y="-144.8" font-family="Times,serif" font-size="14.00">Phase</text>
</g>
<!-- Frame2&#45;&gt;Frequency17 -->
<g id="edge21" class="edge">
<title>Frame2&#45;&gt;Frequency17</title>
<path fill="none" stroke="black" stroke-dasharray="5,2" d="M1128.05,-176.8C1125.03,-175.74 1121.98,-174.79 1119,-174 1087.61,-165.71 995.5,-180.33 974,-156 968.57,-149.85 967.68,-141.46 968.72,-133.3"/>
<polygon fill="black" stroke="black" points="972.19,-133.8 970.88,-123.29 965.35,-132.32 972.19,-133.8"/>
<text text-anchor="middle" x="1058.5" y="-144.8" font-family="Times,serif" font-size="14.00">IntermediateFrequency</text>
</g>
<!-- Interval18 -->
<g id="node29" class="node">
<title>Interval18</title>
<polygon fill="none" stroke="black" points="1423.5,-123 1358.5,-123 1358.5,-87 1423.5,-87 1423.5,-123"/>
<text text-anchor="middle" x="1391" y="-101.3" font-family="Times,serif" font-size="14.00">150 ns</text>
</g>
<!-- Waveform2 -->
<g id="node30" class="node">
<title>Waveform2</title>
<polygon fill="none" stroke="black" points="1362.5,-210 1209.5,-210 1209.5,-174 1362.5,-174 1362.5,-210"/>
<text text-anchor="middle" x="1286" y="-188.3" font-family="Times,serif" font-size="14.00">ConstantWaveform</text>
</g>
<!-- Waveform2&#45;&gt;Interval18 -->
<g id="edge22" class="edge">
<title>Waveform2&#45;&gt;Interval18</title>
<path fill="none" stroke="black" stroke-dasharray="5,2" d="M1332.74,-173.9C1342.41,-169.04 1352.05,-163.1 1360,-156 1367.5,-149.31 1373.81,-140.37 1378.74,-131.91"/>
<polygon fill="black" stroke="black" points="1381.86,-133.49 1383.55,-123.03 1375.71,-130.16 1381.86,-133.49"/>
<text text-anchor="middle" x="1404" y="-144.8" font-family="Times,serif" font-size="14.00">Duration</text>
</g>
<!-- Instruction3 -->
<g id="node31" class="node">
<title>Instruction3</title>
<polygon fill="none" stroke="black" points="1193,-297 1061,-297 1061,-261 1193,-261 1193,-297"/>
<text text-anchor="middle" x="1127" y="-275.3" font-family="Times,serif" font-size="14.00">ModulatedPulse</text>
</g>
<!-- Instruction3&#45;&gt;Frame2 -->
<g id="edge23" class="edge">
<title>Instruction3&#45;&gt;Frame2</title>
<path fill="none" stroke="black" stroke-dasharray="5,2" d="M1138.12,-260.65C1141.31,-255.16 1144.57,-248.96 1147,-243 1149.98,-235.69 1152.44,-227.5 1154.4,-219.89"/>
<polygon fill="black" stroke="black" points="1157.84,-220.56 1156.75,-210.03 1151.03,-218.94 1157.84,-220.56"/>
<text text-anchor="middle" x="1175.5" y="-231.8" font-family="Times,serif" font-size="14.00">Frame</text>
</g>
<!-- Instruction3&#45;&gt;Waveform2 -->
<g id="edge24" class="edge">
<title>Instruction3&#45;&gt;Waveform2</title>
<path fill="none" stroke="black" stroke-dasharray="5,2" d="M1166.46,-260.83C1178.34,-255.4 1191.32,-249.18 1203,-243 1218.88,-234.59 1235.96,-224.49 1250.48,-215.58"/>
<polygon fill="black" stroke="black" points="1252.49,-218.45 1259.15,-210.21 1248.8,-212.5 1252.49,-218.45"/>
<text text-anchor="middle" x="1261.5" y="-231.8" font-family="Times,serif" font-size="14.00">Envelope</text>
</g>
<!-- Radians19 -->
<g id="node32" class="node">
<title>Radians19</title>
<polygon fill="none" stroke="black" points="1435,-210 1381,-210 1381,-174 1435,-174 1435,-210"/>
<text text-anchor="middle" x="1408" y="-188.3" font-family="Times,serif" font-size="14.00">3 rad</text>
</g>
<!-- Instruction3&#45;&gt;Radians19 -->
<g id="edge25" class="edge">
<title>Instruction3&#45;&gt;Radians19</title>
<path fill="none" stroke="black" stroke-dasharray="5,2" d="M1193.22,-262.84C1196.19,-262.21 1199.12,-261.59 1202,-261 1244.95,-252.15 1257.16,-256.13 1299,-243 1330.32,-233.17 1338.46,-226.11 1371.84,-210.12"/>
<polygon fill="black" stroke="black" points="1373.34,-213.28 1380.9,-205.86 1370.36,-206.95 1373.34,-213.28"/>
<text text-anchor="middle" x="1379" y="-231.8" font-family="Times,serif" font-size="14.00">PhaseOffset</text>
</g>
<!-- Amplitude20 -->
<g id="node34" class="node">
<title>Amplitude20</title>
<polygon fill="none" stroke="black" points="1110,-210 1020,-210 1020,-174 1110,-174 1110,-210"/>
<text text-anchor="middle" x="1065" y="-188.3" font-family="Times,serif" font-size="14.00">Amplitude</text>
</g>
<!-- Instruction3&#45;&gt;Amplitude20 -->
<g id="edge27" class="edge">
<title>Instruction3&#45;&gt;Amplitude20</title>
<path fill="none" stroke="black" stroke-dasharray="5,2" d="M1087.09,-260.91C1079.99,-256.12 1073.45,-250.2 1069,-243 1064.91,-236.38 1063.18,-228.29 1062.68,-220.56"/>
<polygon fill="black" stroke="black" points="1066.17,-220.4 1062.63,-210.42 1059.17,-220.43 1066.17,-220.4"/>
<text text-anchor="middle" x="1106" y="-231.8" font-family="Times,serif" font-size="14.00">Amplitude</text>
</g>
<!-- NumericExpression5 -->
<g id="node33" class="node">
<title>NumericExpression5</title>
<polygon fill="none" stroke="black" points="923,-123 869,-123 869,-87 923,-87 923,-123"/>
<text text-anchor="middle" x="896" y="-101.3" font-family="Times,serif" font-size="14.00">0.2</text>
</g>
<!-- Amplitude20&#45;&gt;NumericExpression5 -->
<g id="edge26" class="edge">
<title>Amplitude20&#45;&gt;NumericExpression5</title>
<path fill="none" stroke="black" stroke-dasharray="5,2" d="M1019.75,-176.27C1016.8,-175.46 1013.87,-174.69 1011,-174 964.98,-162.87 939.94,-189.01 906,-156 899.93,-150.1 897,-141.63 895.71,-133.33"/>
<polygon fill="black" stroke="black" points="899.18,-132.79 894.84,-123.13 892.2,-133.39 899.18,-132.79"/>
<text text-anchor="middle" x="926" y="-144.8" font-family="Times,serif" font-size="14.00">Value</text>
</g>
<!-- Instruction4:Alignment -->
<g id="node35" class="node">
<title>Instruction4:Alignment</title>
<polygon fill="none" stroke="black" points="829,-210 739,-210 739,-174 829,-174 829,-210"/>
<text text-anchor="middle" x="784" y="-188.3" font-family="Times,serif" font-size="14.00">StartToStart</text>
</g>
<!-- Instruction4:Relationship -->
<g id="node36" class="node">
<title>Instruction4:Relationship</title>
<polygon fill="none" stroke="black" points="1001.5,-297 816.5,-297 816.5,-261 1001.5,-261 1001.5,-297"/>
<text text-anchor="middle" x="909" y="-275.3" font-family="Times,serif" font-size="14.00">InstructionRelationship</text>
</g>
<!-- Instruction4:Relationship&#45;&gt;Interval11 -->
<g id="edge29" class="edge">
<title>Instruction4:Relationship&#45;&gt;Interval11</title>
<path fill="none" stroke="black" stroke-dasharray="5,2" d="M892.28,-260.79C888.13,-255.5 884.24,-249.37 882,-243 879.49,-235.88 878.57,-227.82 878.45,-220.29"/>
<polygon fill="black" stroke="black" points="881.95,-220.23 878.73,-210.14 874.96,-220.04 881.95,-220.23"/>
<text text-anchor="middle" x="917.5" y="-231.8" font-family="Times,serif" font-size="14.00">MinOffset</text>
</g>
<!-- Instruction4:Relationship&#45;&gt;Interval12 -->
<g id="edge30" class="edge">
<title>Instruction4:Relationship&#45;&gt;Interval12</title>
<path fill="none" stroke="black" stroke-dasharray="5,2" d="M934.66,-260.99C941.23,-255.78 947.88,-249.65 953,-243 958.35,-236.06 962.71,-227.61 966.09,-219.65"/>
<polygon fill="black" stroke="black" points="969.35,-220.91 969.73,-210.32 962.83,-218.36 969.35,-220.91"/>
<text text-anchor="middle" x="998" y="-231.8" font-family="Times,serif" font-size="14.00">MaxOffset</text>
</g>
<!-- Instruction4:Relationship&#45;&gt;Instruction4:Alignment -->
<g id="edge28" class="edge">
<title>Instruction4:Relationship&#45;&gt;Instruction4:Alignment</title>
<path fill="none" stroke="black" stroke-dasharray="5,2" d="M826.13,-260.94C816.48,-256.32 807.44,-250.45 800,-243 793.86,-236.86 790.08,-228.36 787.74,-220.12"/>
<polygon fill="black" stroke="black" points="791.16,-219.35 785.56,-210.36 784.33,-220.88 791.16,-219.35"/>
<text text-anchor="middle" x="837" y="-231.8" font-family="Times,serif" font-size="14.00">Alignment</text>
</g>
<!-- Instruction4 -->
<g id="node37" class="node">
<title>Instruction4</title>
<polygon fill="none" stroke="black" points="726,-384 622,-384 622,-348 726,-348 726,-384"/>
<text text-anchor="middle" x="674" y="-362.3" font-family="Times,serif" font-size="14.00">Dependency</text>
</g>
<!-- Instruction4&#45;&gt;Instruction2 -->
<g id="edge32" class="edge">
<title>Instruction4&#45;&gt;Instruction2</title>
<path fill="none" stroke="black" stroke-dasharray="5,2" d="M621.85,-360C602.4,-355.33 582.12,-346.51 570,-330 565.29,-323.58 563.82,-315.33 563.89,-307.4"/>
<polygon fill="black" stroke="black" points="567.38,-307.58 564.7,-297.33 560.41,-307.01 567.38,-307.58"/>
<text text-anchor="middle" x="583" y="-318.8" font-family="Times,serif" font-size="14.00">Lhs</text>
</g>
<!-- Instruction4&#45;&gt;Instruction3 -->
<g id="edge33" class="edge">
<title>Instruction4&#45;&gt;Instruction3</title>
<path fill="none" stroke="black" stroke-dasharray="5,2" d="M726.41,-355.17C806.21,-340.19 958.62,-311.59 1050.71,-294.32"/>
<polygon fill="black" stroke="black" points="1051.62,-297.71 1060.8,-292.42 1050.33,-290.83 1051.62,-297.71"/>
<text text-anchor="middle" x="941" y="-318.8" font-family="Times,serif" font-size="14.00">Rhs</text>
</g>
<!-- Instruction4&#45;&gt;Instruction4:Relationship -->
<g id="edge31" class="edge">
<title>Instruction4&#45;&gt;Instruction4:Relationship</title>
<path fill="none" stroke="black" stroke-dasharray="5,2" d="M635.88,-347.83C620.42,-338.57 608.43,-326.66 619,-315 632.72,-299.86 781.74,-299.6 802,-297 803.31,-296.83 804.63,-296.66 805.96,-296.48"/>
<polygon fill="black" stroke="black" points="806.82,-299.9 816.25,-295.08 805.87,-292.96 806.82,-299.9"/>
<text text-anchor="middle" x="664" y="-318.8" font-family="Times,serif" font-size="14.00">Relationship</text>
</g>
<!-- Interval21 -->
<g id="node38" class="node">
<title>Interval21</title>
<polygon fill="none" stroke="black" points="1590.5,-210 1525.5,-210 1525.5,-174 1590.5,-174 1590.5,-210"/>
<text text-anchor="middle" x="1558" y="-188.3" font-family="Times,serif" font-size="14.00">100 ns</text>
</g>
<!-- Waveform3 -->
<g id="node39" class="node">
<title>Waveform3</title>
<polygon fill="none" stroke="black" points="1472.5,-297 1319.5,-297 1319.5,-261 1472.5,-261 1472.5,-297"/>
<text text-anchor="middle" x="1396" y="-275.3" font-family="Times,serif" font-size="14.00">ConstantWaveform</text>
</g>
<!-- Waveform3&#45;&gt;Interval21 -->
<g id="edge34" class="edge">
<title>Waveform3&#45;&gt;Interval21</title>
<path fill="none" stroke="black" stroke-dasharray="5,2" d="M1472.61,-261.69C1494.54,-256.02 1514.95,-249.46 1524,-243 1532.62,-236.84 1539.73,-227.77 1545.18,-219.03"/>
<polygon fill="black" stroke="black" points="1548.31,-220.61 1550.25,-210.19 1542.24,-217.12 1548.31,-220.61"/>
<text text-anchor="middle" x="1570" y="-231.8" font-family="Times,serif" font-size="14.00">Duration</text>
</g>
<!-- Instruction5 -->
<g id="node40" class="node">
<title>Instruction5</title>
<polygon fill="none" stroke="black" points="1322,-384 1190,-384 1190,-348 1322,-348 1322,-384"/>
<text text-anchor="middle" x="1256" y="-362.3" font-family="Times,serif" font-size="14.00">ModulatedPulse</text>
</g>
<!-- Instruction5&#45;&gt;Frame1 -->
<g id="edge35" class="edge">
<title>Instruction5&#45;&gt;Frame1</title>
<path fill="none" stroke="black" stroke-dasharray="5,2" d="M1189.58,-362.56C1071.56,-357.14 831.11,-340.92 761,-297 729.77,-277.43 736.22,-258.14 715,-228 712.82,-224.91 710.51,-221.69 708.19,-218.52"/>
<polygon fill="black" stroke="black" points="710.89,-216.29 702.14,-210.32 705.26,-220.44 710.89,-216.29"/>
<text text-anchor="middle" x="784.5" y="-275.3" font-family="Times,serif" font-size="14.00">Frame</text>
</g>
<!-- Instruction5&#45;&gt;Waveform3 -->
<g id="edge36" class="edge">
<title>Instruction5&#45;&gt;Waveform3</title>
<path fill="none" stroke="black" stroke-dasharray="5,2" d="M1299.52,-347.84C1311.03,-342.67 1323.25,-336.6 1334,-330 1346.4,-322.39 1359.08,-312.6 1369.71,-303.69"/>
<polygon fill="black" stroke="black" points="1372.08,-306.27 1377.4,-297.11 1367.53,-300.95 1372.08,-306.27"/>
<text text-anchor="middle" x="1388.5" y="-318.8" font-family="Times,serif" font-size="14.00">Envelope</text>
</g>
<!-- Radians22 -->
<g id="node41" class="node">
<title>Radians22</title>
<polygon fill="none" stroke="black" points="1545,-297 1491,-297 1491,-261 1545,-261 1545,-297"/>
<text text-anchor="middle" x="1518" y="-275.3" font-family="Times,serif" font-size="14.00">4 rad</text>
</g>
<!-- Instruction5&#45;&gt;Radians22 -->
<g id="edge37" class="edge">
<title>Instruction5&#45;&gt;Radians22</title>
<path fill="none" stroke="black" stroke-dasharray="5,2" d="M1322.24,-356.02C1354.2,-350.53 1392.75,-342.16 1426,-330 1445.59,-322.84 1466.11,-312.05 1482.78,-302.33"/>
<polygon fill="black" stroke="black" points="1484.81,-305.19 1491.61,-297.06 1481.23,-299.17 1484.81,-305.19"/>
<text text-anchor="middle" x="1500" y="-318.8" font-family="Times,serif" font-size="14.00">PhaseOffset</text>
</g>
<!-- Amplitude23 -->
<g id="node43" class="node">
<title>Amplitude23</title>
<polygon fill="none" stroke="black" points="1301,-297 1211,-297 1211,-261 1301,-261 1301,-297"/>
<text text-anchor="middle" x="1256" y="-275.3" font-family="Times,serif" font-size="14.00">Amplitude</text>
</g>
<!-- Instruction5&#45;&gt;Amplitude23 -->
<g id="edge39" class="edge">
<title>Instruction5&#45;&gt;Amplitude23</title>
<path fill="none" stroke="black" stroke-dasharray="5,2" d="M1256,-347.8C1256,-336.16 1256,-320.55 1256,-307.24"/>
<polygon fill="black" stroke="black" points="1259.5,-307.18 1256,-297.18 1252.5,-307.18 1259.5,-307.18"/>
<text text-anchor="middle" x="1293" y="-318.8" font-family="Times,serif" font-size="14.00">Amplitude</text>
</g>
<!-- NumericExpression6 -->
<g id="node42" class="node">
<title>NumericExpression6</title>
<polygon fill="none" stroke="black" points="1507,-210 1453,-210 1453,-174 1507,-174 1507,-210"/>
<text text-anchor="middle" x="1480" y="-188.3" font-family="Times,serif" font-size="14.00">0.3</text>
</g>
<!-- Amplitude23&#45;&gt;NumericExpression6 -->
<g id="edge38" class="edge">
<title>Amplitude23&#45;&gt;NumericExpression6</title>
<path fill="none" stroke="black" stroke-dasharray="5,2" d="M1301.15,-263.35C1304.47,-262.48 1307.77,-261.69 1311,-261 1343.18,-254.11 1431.58,-262.63 1458,-243 1465.63,-237.33 1470.66,-228.43 1473.95,-219.7"/>
<polygon fill="black" stroke="black" points="1477.31,-220.69 1476.98,-210.1 1470.64,-218.59 1477.31,-220.69"/>
<text text-anchor="middle" x="1490" y="-231.8" font-family="Times,serif" font-size="14.00">Value</text>
</g>
<!-- Instruction6:Alignment -->
<g id="node44" class="node">
<title>Instruction6:Alignment</title>
<polygon fill="none" stroke="black" points="1670.5,-297 1569.5,-297 1569.5,-261 1670.5,-261 1670.5,-297"/>
<text text-anchor="middle" x="1620" y="-275.3" font-family="Times,serif" font-size="14.00">EndToStart</text>
</g>
<!-- Instruction6:Relationship -->
<g id="node45" class="node">
<title>Instruction6:Relationship</title>
<polygon fill="none" stroke="black" points="1760.5,-384 1575.5,-384 1575.5,-348 1760.5,-348 1760.5,-384"/>
<text text-anchor="middle" x="1668" y="-362.3" font-family="Times,serif" font-size="14.00">InstructionRelationship</text>
</g>
<!-- Instruction6:Relationship&#45;&gt;Interval9 -->
<g id="edge41" class="edge">
<title>Instruction6:Relationship&#45;&gt;Interval9</title>
<path fill="none" stroke="black" stroke-dasharray="5,2" d="M1682.61,-347.79C1686.89,-342.3 1691.4,-336.07 1695,-330 1699.36,-322.66 1703.37,-314.3 1706.74,-306.55"/>
<polygon fill="black" stroke="black" points="1710.03,-307.75 1710.65,-297.17 1703.57,-305.06 1710.03,-307.75"/>
<text text-anchor="middle" x="1737.5" y="-318.8" font-family="Times,serif" font-size="14.00">MinOffset</text>
</g>
<!-- Instruction6:Relationship&#45;&gt;Interval10 -->
<g id="edge42" class="edge">
<title>Instruction6:Relationship&#45;&gt;Interval10</title>
<path fill="none" stroke="black" stroke-dasharray="5,2" d="M1743.63,-347.99C1755.47,-343.33 1767.05,-337.44 1777,-330 1785.49,-323.65 1792.56,-314.54 1798.03,-305.83"/>
<polygon fill="black" stroke="black" points="1801.14,-307.43 1803.13,-297.02 1795.09,-303.92 1801.14,-307.43"/>
<text text-anchor="middle" x="1827" y="-318.8" font-family="Times,serif" font-size="14.00">MaxOffset</text>
</g>
<!-- Instruction6:Relationship&#45;&gt;Instruction6:Alignment -->
<g id="edge40" class="edge">
<title>Instruction6:Relationship&#45;&gt;Instruction6:Alignment</title>
<path fill="none" stroke="black" stroke-dasharray="5,2" d="M1636.22,-347.62C1630.12,-342.75 1624.54,-336.87 1621,-330 1617.45,-323.1 1616.26,-314.92 1616.21,-307.2"/>
<polygon fill="black" stroke="black" points="1619.71,-307.29 1616.73,-297.12 1612.72,-306.92 1619.71,-307.29"/>
<text text-anchor="middle" x="1658" y="-318.8" font-family="Times,serif" font-size="14.00">Alignment</text>
</g>
<!-- Instruction6 -->
<g id="node46" class="node">
<title>Instruction6</title>
<polygon fill="none" stroke="black" points="1078,-471 974,-471 974,-435 1078,-435 1078,-471"/>
<text text-anchor="middle" x="1026" y="-449.3" font-family="Times,serif" font-size="14.00">Dependency</text>
</g>
<!-- Instruction6&#45;&gt;Instruction4 -->
<g id="edge44" class="edge">
<title>Instruction6&#45;&gt;Instruction4</title>
<path fill="none" stroke="black" stroke-dasharray="5,2" d="M973.68,-439.37C910.29,-424.06 803.61,-398.3 736.11,-382"/>
<polygon fill="black" stroke="black" points="736.57,-378.51 726.03,-379.56 734.93,-385.31 736.57,-378.51"/>
<text text-anchor="middle" x="884" y="-405.8" font-family="Times,serif" font-size="14.00">Lhs</text>
</g>
<!-- Instruction6&#45;&gt;Instruction5 -->
<g id="edge45" class="edge">
<title>Instruction6&#45;&gt;Instruction5</title>
<path fill="none" stroke="black" stroke-dasharray="5,2" d="M1072.27,-434.9C1109.15,-421.27 1160.93,-402.13 1200.13,-387.65"/>
<polygon fill="black" stroke="black" points="1201.64,-390.82 1209.81,-384.07 1199.21,-384.26 1201.64,-390.82"/>
<text text-anchor="middle" x="1168" y="-405.8" font-family="Times,serif" font-size="14.00">Rhs</text>
</g>
<!-- Instruction6&#45;&gt;Instruction6:Relationship -->
<g id="edge43" class="edge">
<title>Instruction6&#45;&gt;Instruction6:Relationship</title>
<path fill="none" stroke="black" stroke-dasharray="5,2" d="M1078.27,-445.08C1184.3,-431.04 1426.36,-398.99 1565.15,-380.62"/>
<polygon fill="black" stroke="black" points="1565.92,-384.05 1575.38,-379.26 1565,-377.11 1565.92,-384.05"/>
<text text-anchor="middle" x="1430" y="-405.8" font-family="Times,serif" font-size="14.00">Relationship</text>
</g>
<!-- Instruction7:Alignment -->
<g id="node47" class="node">
<title>Instruction7:Alignment</title>
<polygon fill="none" stroke="black" points="326.5,-384 225.5,-384 225.5,-348 326.5,-348 326.5,-384"/>
<text text-anchor="middle" x="276" y="-362.3" font-family="Times,serif" font-size="14.00">EndToStart</text>
</g>
<!-- Instruction7:Relationship -->
<g id="node48" class="node">
<title>Instruction7:Relationship</title>
<polygon fill="none" stroke="black" points="308.5,-471 123.5,-471 123.5,-435 308.5,-435 308.5,-471"/>
<text text-anchor="middle" x="216" y="-449.3" font-family="Times,serif" font-size="14.00">InstructionRelationship</text>
</g>
<!-- Instruction7:Relationship&#45;&gt;Interval1 -->
<g id="edge47" class="edge">
<title>Instruction7:Relationship&#45;&gt;Interval1</title>
<path fill="none" stroke="black" stroke-dasharray="5,2" d="M128.63,-434.9C118.84,-430.28 109.65,-424.43 102,-417 95.73,-410.92 91.78,-402.44 89.28,-394.19"/>
<polygon fill="black" stroke="black" points="92.66,-393.3 86.9,-384.41 85.86,-394.96 92.66,-393.3"/>
<text text-anchor="middle" x="137.5" y="-405.8" font-family="Times,serif" font-size="14.00">MinOffset</text>
</g>
<!-- Instruction7:Relationship&#45;&gt;Interval2 -->
<g id="edge48" class="edge">
<title>Instruction7:Relationship&#45;&gt;Interval2</title>
<path fill="none" stroke="black" stroke-dasharray="5,2" d="M193.03,-434.93C187.8,-429.79 182.92,-423.72 180,-417 176.99,-410.07 175.91,-402.08 175.8,-394.54"/>
<polygon fill="black" stroke="black" points="179.3,-394.48 176.18,-384.35 172.31,-394.22 179.3,-394.48"/>
<text text-anchor="middle" x="217" y="-405.8" font-family="Times,serif" font-size="14.00">MaxOffset</text>
</g>
<!-- Instruction7:Relationship&#45;&gt;Instruction7:Alignment -->
<g id="edge46" class="edge">
<title>Instruction7:Relationship&#45;&gt;Instruction7:Alignment</title>
<path fill="none" stroke="black" stroke-dasharray="5,2" d="M237.69,-434.86C243.49,-429.56 249.41,-423.42 254,-417 259.1,-409.87 263.38,-401.37 266.77,-393.42"/>
<polygon fill="black" stroke="black" points="270.03,-394.71 270.47,-384.12 263.52,-392.13 270.03,-394.71"/>
<text text-anchor="middle" x="300" y="-405.8" font-family="Times,serif" font-size="14.00">Alignment</text>
</g>
<!-- Instruction7 -->
<g id="node49" class="node">
<title>Instruction7</title>
<polygon fill="none" stroke="black" points="425,-558 321,-558 321,-522 425,-522 425,-558"/>
<text text-anchor="middle" x="373" y="-536.3" font-family="Times,serif" font-size="14.00">Dependency</text>
</g>
<!-- Instruction7&#45;&gt;Instruction1 -->
<g id="edge50" class="edge">
<title>Instruction7&#45;&gt;Instruction1</title>
<path fill="none" stroke="black" stroke-dasharray="5,2" d="M373.78,-521.79C374.56,-486.2 371.94,-403.22 335,-348 321.86,-328.36 300.94,-312.97 281.46,-301.84"/>
<polygon fill="black" stroke="black" points="283.09,-298.74 272.64,-297.02 279.74,-304.88 283.09,-298.74"/>
<text text-anchor="middle" x="377" y="-405.8" font-family="Times,serif" font-size="14.00">Lhs</text>
</g>
<!-- Instruction7&#45;&gt;Instruction6 -->
<g id="edge51" class="edge">
<title>Instruction7&#45;&gt;Instruction6</title>
<path fill="none" stroke="black" stroke-dasharray="5,2" d="M425.06,-532.22C544.06,-516.73 835.55,-478.79 963.76,-462.1"/>
<polygon fill="black" stroke="black" points="964.35,-465.55 973.81,-460.79 963.45,-458.61 964.35,-465.55"/>
<text text-anchor="middle" x="752" y="-492.8" font-family="Times,serif" font-size="14.00">Rhs</text>
</g>
<!-- Instruction7&#45;&gt;Instruction7:Relationship -->
<g id="edge49" class="edge">
<title>Instruction7&#45;&gt;Instruction7:Relationship</title>
<path fill="none" stroke="black" stroke-dasharray="5,2" d="M320.82,-526.27C303.61,-520.84 284.85,-513.51 269,-504 257.64,-497.19 246.71,-487.58 237.76,-478.61"/>
<polygon fill="black" stroke="black" points="240.19,-476.09 230.73,-471.3 235.14,-480.94 240.19,-476.09"/>
<text text-anchor="middle" x="314" y="-492.8" font-family="Times,serif" font-size="14.00">Relationship</text>
</g>
<!-- Job -->
<g id="node50" class="node">
<title>Job</title>
<polygon fill="none" stroke="black" points="400,-645 346,-645 346,-609 400,-609 400,-645"/>
<text text-anchor="middle" x="373" y="-623.3" font-family="Times,serif" font-size="14.00">Job</text>
</g>
<!-- Job&#45;&gt;Instruction7 -->
<g id="edge52" class="edge">
<title>Job&#45;&gt;Instruction7</title>
<path fill="none" stroke="black" stroke-dasharray="5,2" d="M373,-608.8C373,-597.16 373,-581.55 373,-568.24"/>
<polygon fill="black" stroke="black" points="376.5,-568.18 373,-558.18 369.5,-568.18 376.5,-568.18"/>
<text text-anchor="middle" x="412" y="-579.8" font-family="Times,serif" font-size="14.00">EntryPoint</text>
</g>
</g>
</svg>
