<?xml version="1.0" encoding="utf-8" standalone="no"?>
<!DOCTYPE svg PUBLIC "-//W3C//DTD SVG 1.1//EN"
  "http://www.w3.org/Graphics/SVG/1.1/DTD/svg11.dtd">
<svg xmlns:xlink="http://www.w3.org/1999/xlink" width="576pt" height="288pt" viewBox="0 0 576 288" xmlns="http://www.w3.org/2000/svg" version="1.1">
 <metadata>
  <rdf:RDF xmlns:dc="http://purl.org/dc/elements/1.1/" xmlns:cc="http://creativecommons.org/ns#" xmlns:rdf="http://www.w3.org/1999/02/22-rdf-syntax-ns#">
   <cc:Work>
    <dc:type rdf:resource="http://purl.org/dc/dcmitype/StillImage"/>
    <dc:date>2025-08-20T23:29:50.765616</dc:date>
    <dc:format>image/svg+xml</dc:format>
    <dc:creator>
     <cc:Agent>
      <dc:title>Matplotlib v3.10.3, https://matplotlib.org/</dc:title>
     </cc:Agent>
    </dc:creator>
   </cc:Work>
  </rdf:RDF>
 </metadata>
 <defs>
  <style type="text/css">*{stroke-linejoin: round; stroke-linecap: butt}</style>
 </defs>
 <g id="figure_1">
  <g id="patch_1">
   <path d="M 0 288 
L 576 288 
L 576 0 
L 0 0 
z
" style="fill: #ffffff"/>
  </g>
  <g id="axes_1">
   <g id="patch_2">
    <path d="M 72 256.32 
L 518.4 256.32 
L 518.4 34.56 
L 72 34.56 
z
" style="fill: #ffffff"/>
   </g>
   <g id="matplotlib.axis_1">
    <g id="xtick_1">
     <g id="line2d_1">
      <path d="M 72 256.32 
L 72 34.56 
" clip-path="url(#p1046efc1ca)" style="fill: none; stroke: #b0b0b0; stroke-width: 0.8; stroke-linecap: square"/>
     </g>
     <g id="line2d_2">
      <defs>
       <path id="m0b7065449e" d="M 0 0 
L 0 3.5 
" style="stroke: #000000; stroke-width: 0.8"/>
      </defs>
      <g>
       <use xlink:href="#m0b7065449e" x="72" y="256.32" style="stroke: #000000; stroke-width: 0.8"/>
      </g>
     </g>
     <g id="text_1">
      <!-- 0.0 -->
      <g transform="translate(64.048438 270.918437) scale(0.1 -0.1)">
       <defs>
        <path id="DejaVuSans-30" d="M 2034 4250 
Q 1547 4250 1301 3770 
Q 1056 3291 1056 2328 
Q 1056 1369 1301 889 
Q 1547 409 2034 409 
Q 2525 409 2770 889 
Q 3016 1369 3016 2328 
Q 3016 3291 2770 3770 
Q 2525 4250 2034 4250 
z
M 2034 4750 
Q 2819 4750 3233 4129 
Q 3647 3509 3647 2328 
Q 3647 1150 3233 529 
Q 2819 -91 2034 -91 
Q 1250 -91 836 529 
Q 422 1150 422 2328 
Q 422 3509 836 4129 
Q 1250 4750 2034 4750 
z
" transform="scale(0.015625)"/>
        <path id="DejaVuSans-2e" d="M 684 794 
L 1344 794 
L 1344 0 
L 684 0 
L 684 794 
z
" transform="scale(0.015625)"/>
       </defs>
       <use xlink:href="#DejaVuSans-30"/>
       <use xlink:href="#DejaVuSans-2e" transform="translate(63.623047 0)"/>
       <use xlink:href="#DejaVuSans-30" transform="translate(95.410156 0)"/>
      </g>
     </g>
    </g>
    <g id="xtick_2">
     <g id="line2d_3">
      <path d="M 161.28 256.32 
L 161.28 34.56 
" clip-path="url(#p1046efc1ca)" style="fill: none; stroke: #b0b0b0; stroke-width: 0.8; stroke-linecap: square"/>
     </g>
     <g id="line2d_4">
      <g>
       <use xlink:href="#m0b7065449e" x="161.28" y="256.32" style="stroke: #000000; stroke-width: 0.8"/>
      </g>
     </g>
     <g id="text_2">
      <!-- 0.2 -->
      <g transform="translate(153.328438 270.918437) scale(0.1 -0.1)">
       <defs>
        <path id="DejaVuSans-32" d="M 1228 531 
L 3431 531 
L 3431 0 
L 469 0 
L 469 531 
Q 828 903 1448 1529 
Q 2069 2156 2228 2338 
Q 2531 2678 2651 2914 
Q 2772 3150 2772 3378 
Q 2772 3750 2511 3984 
Q 2250 4219 1831 4219 
Q 1534 4219 1204 4116 
Q 875 4013 500 3803 
L 500 4441 
Q 881 4594 1212 4672 
Q 1544 4750 1819 4750 
Q 2544 4750 2975 4387 
Q 3406 4025 3406 3419 
Q 3406 3131 3298 2873 
Q 3191 2616 2906 2266 
Q 2828 2175 2409 1742 
Q 1991 1309 1228 531 
z
" transform="scale(0.015625)"/>
       </defs>
       <use xlink:href="#DejaVuSans-30"/>
       <use xlink:href="#DejaVuSans-2e" transform="translate(63.623047 0)"/>
       <use xlink:href="#DejaVuSans-32" transform="translate(95.410156 0)"/>
      </g>
     </g>
    </g>
    <g id="xtick_3">
     <g id="line2d_5">
      <path d="M 250.56 256.32 
L 250.56 34.56 
" clip-path="url(#p1046efc1ca)" style="fill: none; stroke: #b0b0b0; stroke-width: 0.8; stroke-linecap: square"/>
     </g>
     <g id="line2d_6">
      <g>
       <use xlink:href="#m0b7065449e" x="250.56" y="256.32" style="stroke: #000000; stroke-width: 0.8"/>
      </g>
     </g>
     <g id="text_3">
      <!-- 0.4 -->
      <g transform="translate(242.608438 270.918437) scale(0.1 -0.1)">
       <defs>
        <path id="DejaVuSans-34" d="M 2419 4116 
L 825 1625 
L 2419 1625 
L 2419 4116 
z
M 2253 4666 
L 3047 4666 
L 3047 1625 
L 3713 1625 
L 3713 1100 
L 3047 1100 
L 3047 0 
L 2419 0 
L 2419 1100 
L 313 1100 
L 313 1709 
L 2253 4666 
z
" transform="scale(0.015625)"/>
       </defs>
       <use xlink:href="#DejaVuSans-30"/>
       <use xlink:href="#DejaVuSans-2e" transform="translate(63.623047 0)"/>
       <use xlink:href="#DejaVuSans-34" transform="translate(95.410156 0)"/>
      </g>
     </g>
    </g>
    <g id="xtick_4">
     <g id="line2d_7">
      <path d="M 339.84 256.32 
L 339.84 34.56 
" clip-path="url(#p1046efc1ca)" style="fill: none; stroke: #b0b0b0; stroke-width: 0.8; stroke-linecap: square"/>
     </g>
     <g id="line2d_8">
      <g>
       <use xlink:href="#m0b7065449e" x="339.84" y="256.32" style="stroke: #000000; stroke-width: 0.8"/>
      </g>
     </g>
     <g id="text_4">
      <!-- 0.6 -->
      <g transform="translate(331.888438 270.918437) scale(0.1 -0.1)">
       <defs>
        <path id="DejaVuSans-36" d="M 2113 2584 
Q 1688 2584 1439 2293 
Q 1191 2003 1191 1497 
Q 1191 994 1439 701 
Q 1688 409 2113 409 
Q 2538 409 2786 701 
Q 3034 994 3034 1497 
Q 3034 2003 2786 2293 
Q 2538 2584 2113 2584 
z
M 3366 4563 
L 3366 3988 
Q 3128 4100 2886 4159 
Q 2644 4219 2406 4219 
Q 1781 4219 1451 3797 
Q 1122 3375 1075 2522 
Q 1259 2794 1537 2939 
Q 1816 3084 2150 3084 
Q 2853 3084 3261 2657 
Q 3669 2231 3669 1497 
Q 3669 778 3244 343 
Q 2819 -91 2113 -91 
Q 1303 -91 875 529 
Q 447 1150 447 2328 
Q 447 3434 972 4092 
Q 1497 4750 2381 4750 
Q 2619 4750 2861 4703 
Q 3103 4656 3366 4563 
z
" transform="scale(0.015625)"/>
       </defs>
       <use xlink:href="#DejaVuSans-30"/>
       <use xlink:href="#DejaVuSans-2e" transform="translate(63.623047 0)"/>
       <use xlink:href="#DejaVuSans-36" transform="translate(95.410156 0)"/>
      </g>
     </g>
    </g>
    <g id="xtick_5">
     <g id="line2d_9">
      <path d="M 429.12 256.32 
L 429.12 34.56 
" clip-path="url(#p1046efc1ca)" style="fill: none; stroke: #b0b0b0; stroke-width: 0.8; stroke-linecap: square"/>
     </g>
     <g id="line2d_10">
      <g>
       <use xlink:href="#m0b7065449e" x="429.12" y="256.32" style="stroke: #000000; stroke-width: 0.8"/>
      </g>
     </g>
     <g id="text_5">
      <!-- 0.8 -->
      <g transform="translate(421.168437 270.918437) scale(0.1 -0.1)">
       <defs>
        <path id="DejaVuSans-38" d="M 2034 2216 
Q 1584 2216 1326 1975 
Q 1069 1734 1069 1313 
Q 1069 891 1326 650 
Q 1584 409 2034 409 
Q 2484 409 2743 651 
Q 3003 894 3003 1313 
Q 3003 1734 2745 1975 
Q 2488 2216 2034 2216 
z
M 1403 2484 
Q 997 2584 770 2862 
Q 544 3141 544 3541 
Q 544 4100 942 4425 
Q 1341 4750 2034 4750 
Q 2731 4750 3128 4425 
Q 3525 4100 3525 3541 
Q 3525 3141 3298 2862 
Q 3072 2584 2669 2484 
Q 3125 2378 3379 2068 
Q 3634 1759 3634 1313 
Q 3634 634 3220 271 
Q 2806 -91 2034 -91 
Q 1263 -91 848 271 
Q 434 634 434 1313 
Q 434 1759 690 2068 
Q 947 2378 1403 2484 
z
M 1172 3481 
Q 1172 3119 1398 2916 
Q 1625 2713 2034 2713 
Q 2441 2713 2670 2916 
Q 2900 3119 2900 3481 
Q 2900 3844 2670 4047 
Q 2441 4250 2034 4250 
Q 1625 4250 1398 4047 
Q 1172 3844 1172 3481 
z
" transform="scale(0.015625)"/>
       </defs>
       <use xlink:href="#DejaVuSans-30"/>
       <use xlink:href="#DejaVuSans-2e" transform="translate(63.623047 0)"/>
       <use xlink:href="#DejaVuSans-38" transform="translate(95.410156 0)"/>
      </g>
     </g>
    </g>
    <g id="xtick_6">
     <g id="line2d_11">
      <path d="M 518.4 256.32 
L 518.4 34.56 
" clip-path="url(#p1046efc1ca)" style="fill: none; stroke: #b0b0b0; stroke-width: 0.8; stroke-linecap: square"/>
     </g>
     <g id="line2d_12">
      <g>
       <use xlink:href="#m0b7065449e" x="518.4" y="256.32" style="stroke: #000000; stroke-width: 0.8"/>
      </g>
     </g>
     <g id="text_6">
      <!-- 1.0 -->
      <g transform="translate(510.448437 270.918437) scale(0.1 -0.1)">
       <defs>
        <path id="DejaVuSans-31" d="M 794 531 
L 1825 531 
L 1825 4091 
L 703 3866 
L 703 4441 
L 1819 4666 
L 2450 4666 
L 2450 531 
L 3481 531 
L 3481 0 
L 794 0 
L 794 531 
z
" transform="scale(0.015625)"/>
       </defs>
       <use xlink:href="#DejaVuSans-31"/>
       <use xlink:href="#DejaVuSans-2e" transform="translate(63.623047 0)"/>
       <use xlink:href="#DejaVuSans-30" transform="translate(95.410156 0)"/>
      </g>
     </g>
    </g>
    <g id="text_7">
     <!-- t [s] -->
     <g transform="translate(285.144531 284.596563) scale(0.1 -0.1)">
      <defs>
       <path id="DejaVuSans-74" d="M 1172 4494 
L 1172 3500 
L 2356 3500 
L 2356 3053 
L 1172 3053 
L 1172 1153 
Q 1172 725 1289 603 
Q 1406 481 1766 481 
L 2356 481 
L 2356 0 
L 1766 0 
Q 1100 0 847 248 
Q 594 497 594 1153 
L 594 3053 
L 172 3053 
L 172 3500 
L 594 3500 
L 594 4494 
L 1172 4494 
z
" transform="scale(0.015625)"/>
       <path id="DejaVuSans-20" transform="scale(0.015625)"/>
       <path id="DejaVuSans-5b" d="M 550 4863 
L 1875 4863 
L 1875 4416 
L 1125 4416 
L 1125 -397 
L 1875 -397 
L 1875 -844 
L 550 -844 
L 550 4863 
z
" transform="scale(0.015625)"/>
       <path id="DejaVuSans-73" d="M 2834 3397 
L 2834 2853 
Q 2591 2978 2328 3040 
Q 2066 3103 1784 3103 
Q 1356 3103 1142 2972 
Q 928 2841 928 2578 
Q 928 2378 1081 2264 
Q 1234 2150 1697 2047 
L 1894 2003 
Q 2506 1872 2764 1633 
Q 3022 1394 3022 966 
Q 3022 478 2636 193 
Q 2250 -91 1575 -91 
Q 1294 -91 989 -36 
Q 684 19 347 128 
L 347 722 
Q 666 556 975 473 
Q 1284 391 1588 391 
Q 1994 391 2212 530 
Q 2431 669 2431 922 
Q 2431 1156 2273 1281 
Q 2116 1406 1581 1522 
L 1381 1569 
Q 847 1681 609 1914 
Q 372 2147 372 2553 
Q 372 3047 722 3315 
Q 1072 3584 1716 3584 
Q 2034 3584 2315 3537 
Q 2597 3491 2834 3397 
z
" transform="scale(0.015625)"/>
       <path id="DejaVuSans-5d" d="M 1947 4863 
L 1947 -844 
L 622 -844 
L 622 -397 
L 1369 -397 
L 1369 4416 
L 622 4416 
L 622 4863 
L 1947 4863 
z
" transform="scale(0.015625)"/>
      </defs>
      <use xlink:href="#DejaVuSans-74"/>
      <use xlink:href="#DejaVuSans-20" transform="translate(39.208984 0)"/>
      <use xlink:href="#DejaVuSans-5b" transform="translate(70.996094 0)"/>
      <use xlink:href="#DejaVuSans-73" transform="translate(110.009766 0)"/>
      <use xlink:href="#DejaVuSans-5d" transform="translate(162.109375 0)"/>
     </g>
    </g>
    <g id="text_8">
     <!-- 1e−7 -->
     <g transform="translate(491.142187 283.596563) scale(0.1 -0.1)">
      <defs>
       <path id="DejaVuSans-65" d="M 3597 1894 
L 3597 1613 
L 953 1613 
Q 991 1019 1311 708 
Q 1631 397 2203 397 
Q 2534 397 2845 478 
Q 3156 559 3463 722 
L 3463 178 
Q 3153 47 2828 -22 
Q 2503 -91 2169 -91 
Q 1331 -91 842 396 
Q 353 884 353 1716 
Q 353 2575 817 3079 
Q 1281 3584 2069 3584 
Q 2775 3584 3186 3129 
Q 3597 2675 3597 1894 
z
M 3022 2063 
Q 3016 2534 2758 2815 
Q 2500 3097 2075 3097 
Q 1594 3097 1305 2825 
Q 1016 2553 972 2059 
L 3022 2063 
z
" transform="scale(0.015625)"/>
       <path id="DejaVuSans-2212" d="M 678 2272 
L 4684 2272 
L 4684 1741 
L 678 1741 
L 678 2272 
z
" transform="scale(0.015625)"/>
       <path id="DejaVuSans-37" d="M 525 4666 
L 3525 4666 
L 3525 4397 
L 1831 0 
L 1172 0 
L 2766 4134 
L 525 4134 
L 525 4666 
z
" transform="scale(0.015625)"/>
      </defs>
      <use xlink:href="#DejaVuSans-31"/>
      <use xlink:href="#DejaVuSans-65" transform="translate(63.623047 0)"/>
      <use xlink:href="#DejaVuSans-2212" transform="translate(125.146484 0)"/>
      <use xlink:href="#DejaVuSans-37" transform="translate(208.935547 0)"/>
     </g>
    </g>
   </g>
   <g id="matplotlib.axis_2">
    <g id="ytick_1">
     <g id="line2d_13">
      <path d="M 72 256.32 
L 518.4 256.32 
" clip-path="url(#p1046efc1ca)" style="fill: none; stroke: #b0b0b0; stroke-width: 0.8; stroke-linecap: square"/>
     </g>
     <g id="line2d_14">
      <defs>
       <path id="mf3ce26d36e" d="M 0 0 
L -3.5 0 
" style="stroke: #000000; stroke-width: 0.8"/>
      </defs>
      <g>
       <use xlink:href="#mf3ce26d36e" x="72" y="256.32" style="stroke: #000000; stroke-width: 0.8"/>
      </g>
     </g>
     <g id="text_9">
      <!-- −0.6 -->
      <g transform="translate(40.717187 260.119219) scale(0.1 -0.1)">
       <use xlink:href="#DejaVuSans-2212"/>
       <use xlink:href="#DejaVuSans-30" transform="translate(83.789062 0)"/>
       <use xlink:href="#DejaVuSans-2e" transform="translate(147.412109 0)"/>
       <use xlink:href="#DejaVuSans-36" transform="translate(179.199219 0)"/>
      </g>
     </g>
    </g>
    <g id="ytick_2">
     <g id="line2d_15">
      <path d="M 72 219.36 
L 518.4 219.36 
" clip-path="url(#p1046efc1ca)" style="fill: none; stroke: #b0b0b0; stroke-width: 0.8; stroke-linecap: square"/>
     </g>
     <g id="line2d_16">
      <g>
       <use xlink:href="#mf3ce26d36e" x="72" y="219.36" style="stroke: #000000; stroke-width: 0.8"/>
      </g>
     </g>
     <g id="text_10">
      <!-- −0.4 -->
      <g transform="translate(40.717187 223.159219) scale(0.1 -0.1)">
       <use xlink:href="#DejaVuSans-2212"/>
       <use xlink:href="#DejaVuSans-30" transform="translate(83.789062 0)"/>
       <use xlink:href="#DejaVuSans-2e" transform="translate(147.412109 0)"/>
       <use xlink:href="#DejaVuSans-34" transform="translate(179.199219 0)"/>
      </g>
     </g>
    </g>
    <g id="ytick_3">
     <g id="line2d_17">
      <path d="M 72 182.4 
L 518.4 182.4 
" clip-path="url(#p1046efc1ca)" style="fill: none; stroke: #b0b0b0; stroke-width: 0.8; stroke-linecap: square"/>
     </g>
     <g id="line2d_18">
      <g>
       <use xlink:href="#mf3ce26d36e" x="72" y="182.4" style="stroke: #000000; stroke-width: 0.8"/>
      </g>
     </g>
     <g id="text_11">
      <!-- −0.2 -->
      <g transform="translate(40.717187 186.199219) scale(0.1 -0.1)">
       <use xlink:href="#DejaVuSans-2212"/>
       <use xlink:href="#DejaVuSans-30" transform="translate(83.789062 0)"/>
       <use xlink:href="#DejaVuSans-2e" transform="translate(147.412109 0)"/>
       <use xlink:href="#DejaVuSans-32" transform="translate(179.199219 0)"/>
      </g>
     </g>
    </g>
    <g id="ytick_4">
     <g id="line2d_19">
      <path d="M 72 145.44 
L 518.4 145.44 
" clip-path="url(#p1046efc1ca)" style="fill: none; stroke: #b0b0b0; stroke-width: 0.8; stroke-linecap: square"/>
     </g>
     <g id="line2d_20">
      <g>
       <use xlink:href="#mf3ce26d36e" x="72" y="145.44" style="stroke: #000000; stroke-width: 0.8"/>
      </g>
     </g>
     <g id="text_12">
      <!-- 0.0 -->
      <g transform="translate(49.096875 149.239219) scale(0.1 -0.1)">
       <use xlink:href="#DejaVuSans-30"/>
       <use xlink:href="#DejaVuSans-2e" transform="translate(63.623047 0)"/>
       <use xlink:href="#DejaVuSans-30" transform="translate(95.410156 0)"/>
      </g>
     </g>
    </g>
    <g id="ytick_5">
     <g id="line2d_21">
      <path d="M 72 108.48 
L 518.4 108.48 
" clip-path="url(#p1046efc1ca)" style="fill: none; stroke: #b0b0b0; stroke-width: 0.8; stroke-linecap: square"/>
     </g>
     <g id="line2d_22">
      <g>
       <use xlink:href="#mf3ce26d36e" x="72" y="108.48" style="stroke: #000000; stroke-width: 0.8"/>
      </g>
     </g>
     <g id="text_13">
      <!-- 0.2 -->
      <g transform="translate(49.096875 112.279219) scale(0.1 -0.1)">
       <use xlink:href="#DejaVuSans-30"/>
       <use xlink:href="#DejaVuSans-2e" transform="translate(63.623047 0)"/>
       <use xlink:href="#DejaVuSans-32" transform="translate(95.410156 0)"/>
      </g>
     </g>
    </g>
    <g id="ytick_6">
     <g id="line2d_23">
      <path d="M 72 71.52 
L 518.4 71.52 
" clip-path="url(#p1046efc1ca)" style="fill: none; stroke: #b0b0b0; stroke-width: 0.8; stroke-linecap: square"/>
     </g>
     <g id="line2d_24">
      <g>
       <use xlink:href="#mf3ce26d36e" x="72" y="71.52" style="stroke: #000000; stroke-width: 0.8"/>
      </g>
     </g>
     <g id="text_14">
      <!-- 0.4 -->
      <g transform="translate(49.096875 75.319219) scale(0.1 -0.1)">
       <use xlink:href="#DejaVuSans-30"/>
       <use xlink:href="#DejaVuSans-2e" transform="translate(63.623047 0)"/>
       <use xlink:href="#DejaVuSans-34" transform="translate(95.410156 0)"/>
      </g>
     </g>
    </g>
    <g id="ytick_7">
     <g id="line2d_25">
      <path d="M 72 34.56 
L 518.4 34.56 
" clip-path="url(#p1046efc1ca)" style="fill: none; stroke: #b0b0b0; stroke-width: 0.8; stroke-linecap: square"/>
     </g>
     <g id="line2d_26">
      <g>
       <use xlink:href="#mf3ce26d36e" x="72" y="34.56" style="stroke: #000000; stroke-width: 0.8"/>
      </g>
     </g>
     <g id="text_15">
      <!-- 0.6 -->
      <g transform="translate(49.096875 38.359219) scale(0.1 -0.1)">
       <use xlink:href="#DejaVuSans-30"/>
       <use xlink:href="#DejaVuSans-2e" transform="translate(63.623047 0)"/>
       <use xlink:href="#DejaVuSans-36" transform="translate(95.410156 0)"/>
      </g>
     </g>
    </g>
    <g id="text_16">
     <!-- Port:100 -->
     <g transform="translate(34.6375 166.576719) rotate(-90) scale(0.1 -0.1)">
      <defs>
       <path id="DejaVuSans-50" d="M 1259 4147 
L 1259 2394 
L 2053 2394 
Q 2494 2394 2734 2622 
Q 2975 2850 2975 3272 
Q 2975 3691 2734 3919 
Q 2494 4147 2053 4147 
L 1259 4147 
z
M 628 4666 
L 2053 4666 
Q 2838 4666 3239 4311 
Q 3641 3956 3641 3272 
Q 3641 2581 3239 2228 
Q 2838 1875 2053 1875 
L 1259 1875 
L 1259 0 
L 628 0 
L 628 4666 
z
" transform="scale(0.015625)"/>
       <path id="DejaVuSans-6f" d="M 1959 3097 
Q 1497 3097 1228 2736 
Q 959 2375 959 1747 
Q 959 1119 1226 758 
Q 1494 397 1959 397 
Q 2419 397 2687 759 
Q 2956 1122 2956 1747 
Q 2956 2369 2687 2733 
Q 2419 3097 1959 3097 
z
M 1959 3584 
Q 2709 3584 3137 3096 
Q 3566 2609 3566 1747 
Q 3566 888 3137 398 
Q 2709 -91 1959 -91 
Q 1206 -91 779 398 
Q 353 888 353 1747 
Q 353 2609 779 3096 
Q 1206 3584 1959 3584 
z
" transform="scale(0.015625)"/>
       <path id="DejaVuSans-72" d="M 2631 2963 
Q 2534 3019 2420 3045 
Q 2306 3072 2169 3072 
Q 1681 3072 1420 2755 
Q 1159 2438 1159 1844 
L 1159 0 
L 581 0 
L 581 3500 
L 1159 3500 
L 1159 2956 
Q 1341 3275 1631 3429 
Q 1922 3584 2338 3584 
Q 2397 3584 2469 3576 
Q 2541 3569 2628 3553 
L 2631 2963 
z
" transform="scale(0.015625)"/>
       <path id="DejaVuSans-3a" d="M 750 794 
L 1409 794 
L 1409 0 
L 750 0 
L 750 794 
z
M 750 3309 
L 1409 3309 
L 1409 2516 
L 750 2516 
L 750 3309 
z
" transform="scale(0.015625)"/>
      </defs>
      <use xlink:href="#DejaVuSans-50"/>
      <use xlink:href="#DejaVuSans-6f" transform="translate(56.677734 0)"/>
      <use xlink:href="#DejaVuSans-72" transform="translate(117.859375 0)"/>
      <use xlink:href="#DejaVuSans-74" transform="translate(158.972656 0)"/>
      <use xlink:href="#DejaVuSans-3a" transform="translate(198.181641 0)"/>
      <use xlink:href="#DejaVuSans-31" transform="translate(231.873047 0)"/>
      <use xlink:href="#DejaVuSans-30" transform="translate(295.496094 0)"/>
      <use xlink:href="#DejaVuSans-30" transform="translate(359.119141 0)"/>
     </g>
    </g>
   </g>
   <g id="line2d_27">
    <path d="M 72 145.44 
L 72.4464 91.128643 
L 72.8928 57.562378 
L 73.3392 57.562378 
L 73.7856 91.128643 
L 74.6784 199.751357 
L 75.1248 233.317622 
L 75.5712 233.317622 
L 76.0176 199.751357 
L 76.9104 91.128643 
L 77.3568 57.562378 
L 77.8032 57.562378 
L 78.2496 91.128643 
L 79.1424 199.751357 
L 79.5888 233.317622 
L 80.0352 233.317622 
L 80.4816 199.751357 
L 81.3744 91.128643 
L 81.8208 57.562378 
L 82.2672 57.562378 
L 82.7136 91.128643 
L 83.6064 199.751357 
L 84.0528 233.317622 
L 84.4992 233.317622 
L 84.9456 199.751357 
L 85.8384 91.128643 
L 86.2848 57.562378 
L 86.7312 57.562378 
L 87.1776 91.128643 
L 88.0704 199.751357 
L 88.5168 233.317622 
L 88.9632 233.317622 
L 89.4096 199.751357 
L 90.3024 91.128643 
L 90.7488 57.562378 
L 91.1952 57.562378 
L 91.6416 91.128643 
L 92.5344 199.751357 
L 92.9808 233.317622 
L 93.4272 233.317622 
L 93.8736 199.751357 
L 94.7664 91.128643 
L 95.2128 57.562378 
L 95.6592 57.562378 
L 96.1056 91.128643 
L 96.9984 199.751357 
L 97.4448 233.317622 
L 97.8912 233.317622 
L 98.3376 199.751357 
L 99.2304 91.128643 
L 99.6768 57.562378 
L 100.1232 57.562378 
L 100.5696 91.128643 
L 101.4624 199.751357 
L 101.9088 233.317622 
L 102.3552 233.317622 
L 102.8016 199.751357 
L 103.6944 91.128643 
L 104.1408 57.562378 
L 104.5872 57.562378 
L 105.0336 91.128643 
L 105.9264 199.751357 
L 106.3728 233.317622 
L 106.8192 233.317622 
L 107.2656 199.751357 
L 108.1584 91.128643 
L 108.6048 57.562378 
L 109.0512 57.562378 
L 109.4976 91.128643 
L 110.3904 199.751357 
L 110.8368 233.317622 
L 111.2832 233.317622 
L 111.7296 199.751357 
L 112.6224 91.128643 
L 113.0688 57.562378 
L 113.5152 57.562378 
L 113.9616 91.128643 
L 114.8544 199.751357 
L 115.3008 233.317622 
L 115.7472 233.317622 
L 116.1936 199.751357 
L 117.0864 91.128643 
L 117.5328 57.562378 
L 117.9792 57.562378 
L 118.4256 91.128643 
L 119.3184 199.751357 
L 119.7648 233.317622 
L 120.2112 233.317622 
L 120.6576 199.751357 
L 121.5504 91.128643 
L 121.9968 57.562378 
L 122.4432 57.562378 
L 122.8896 91.128643 
L 123.7824 199.751357 
L 124.2288 233.317622 
L 124.6752 233.317622 
L 125.1216 199.751357 
L 126.0144 91.128643 
L 126.4608 57.562378 
L 126.9072 57.562378 
L 127.3536 91.128643 
L 128.2464 199.751357 
L 128.6928 233.317622 
L 129.1392 233.317622 
L 129.5856 199.751357 
L 130.4784 91.128643 
L 130.9248 57.562378 
L 131.3712 57.562378 
L 131.8176 91.128643 
L 132.7104 199.751357 
L 133.1568 233.317622 
L 133.6032 233.317622 
L 134.0496 199.751357 
L 134.9424 91.128643 
L 135.3888 57.562378 
L 135.8352 57.562378 
L 136.2816 91.128643 
L 137.1744 199.751357 
L 137.6208 233.317622 
L 138.0672 233.317622 
L 138.5136 199.751357 
L 139.4064 91.128643 
L 139.8528 57.562378 
L 140.2992 57.562378 
L 140.7456 91.128643 
L 141.6384 199.751357 
L 142.0848 233.317622 
L 142.5312 233.317622 
L 142.9776 199.751357 
L 143.8704 91.128643 
L 144.3168 57.562378 
L 144.7632 57.562378 
L 145.2096 91.128643 
L 146.1024 199.751357 
L 146.5488 233.317622 
L 146.9952 233.317622 
L 147.4416 199.751357 
L 148.3344 91.128643 
L 148.7808 57.562378 
L 149.2272 57.562378 
L 149.6736 91.128643 
L 150.5664 199.751357 
L 151.0128 233.317622 
L 151.4592 233.317622 
L 151.9056 199.751357 
L 152.7984 91.128643 
L 153.2448 57.562378 
L 153.6912 57.562378 
L 154.1376 91.128643 
L 155.0304 199.751357 
L 155.4768 233.317622 
L 155.9232 233.317622 
L 156.3696 199.751357 
L 157.2624 91.128643 
L 157.7088 57.562378 
L 158.1552 57.562378 
L 158.6016 91.128643 
L 159.4944 199.751357 
L 159.9408 233.317622 
L 160.3872 233.317622 
L 160.8336 199.751357 
L 161.7264 91.128643 
L 162.1728 57.562378 
L 162.6192 57.562378 
L 163.0656 91.128643 
L 163.9584 199.751357 
L 164.4048 233.317622 
L 164.8512 233.317622 
L 165.2976 199.751357 
L 166.1904 91.128643 
L 166.6368 57.562378 
L 167.0832 57.562378 
L 167.5296 91.128643 
L 168.4224 199.751357 
L 168.8688 233.317622 
L 169.3152 233.317622 
L 169.7616 199.751357 
L 170.6544 91.128643 
L 171.1008 57.562378 
L 171.5472 57.562378 
L 171.9936 91.128643 
L 172.8864 199.751357 
L 173.3328 233.317622 
L 173.7792 233.317622 
L 174.2256 199.751357 
L 175.1184 91.128643 
L 175.5648 57.562378 
L 176.0112 57.562378 
L 176.4576 91.128643 
L 177.3504 199.751357 
L 177.7968 233.317622 
L 178.2432 233.317622 
L 178.6896 199.751357 
L 179.5824 91.128643 
L 180.0288 57.562378 
L 180.4752 57.562378 
L 180.9216 91.128643 
L 181.8144 199.751357 
L 182.2608 233.317622 
L 182.7072 233.317622 
L 183.1536 199.751357 
L 184.0464 91.128643 
L 184.4928 57.562378 
L 184.9392 57.562378 
L 185.3856 91.128643 
L 186.2784 199.751357 
L 186.7248 233.317622 
L 187.1712 233.317622 
L 187.6176 199.751357 
L 188.5104 91.128643 
L 188.9568 57.562378 
L 189.4032 57.562378 
L 189.8496 91.128643 
L 190.7424 199.751357 
L 191.1888 233.317622 
L 191.6352 233.317622 
L 192.0816 199.751357 
L 192.9744 91.128643 
L 193.4208 57.562378 
L 193.8672 57.562378 
L 194.3136 91.128643 
L 195.2064 199.751357 
L 195.6528 233.317622 
L 196.0992 233.317622 
L 196.5456 199.751357 
L 197.4384 91.128643 
L 197.8848 57.562378 
L 198.3312 57.562378 
L 198.7776 91.128643 
L 199.6704 199.751357 
L 200.1168 233.317622 
L 200.5632 233.317622 
L 201.0096 199.751357 
L 201.9024 91.128643 
L 202.3488 57.562378 
L 202.7952 57.562378 
L 203.2416 91.128643 
L 204.1344 199.751357 
L 204.5808 233.317622 
L 205.0272 233.317622 
L 205.4736 199.751357 
L 206.3664 91.128643 
L 206.8128 57.562378 
L 207.2592 57.562378 
L 207.7056 91.128643 
L 208.5984 199.751357 
L 209.0448 233.317622 
L 209.4912 233.317622 
L 209.9376 199.751357 
L 210.8304 91.128643 
L 211.2768 57.562378 
L 211.7232 57.562378 
L 212.1696 91.128643 
L 213.0624 199.751357 
L 213.5088 233.317622 
L 213.9552 233.317622 
L 214.4016 199.751357 
L 215.2944 91.128643 
L 215.7408 57.562378 
L 216.1872 57.562378 
L 216.6336 91.128643 
L 217.5264 199.751357 
L 217.9728 233.317622 
L 218.4192 233.317622 
L 218.8656 199.751357 
L 219.7584 91.128643 
L 220.2048 57.562378 
L 220.6512 57.562378 
L 221.0976 91.128643 
L 221.9904 199.751357 
L 222.4368 233.317622 
L 222.8832 233.317622 
L 223.3296 199.751357 
L 224.2224 91.128643 
L 224.6688 57.562378 
L 225.1152 57.562378 
L 225.5616 91.128643 
L 226.4544 199.751357 
L 226.9008 233.317622 
L 227.3472 233.317622 
L 227.7936 199.751357 
L 228.6864 91.128643 
L 229.1328 57.562378 
L 229.5792 57.562378 
L 230.0256 91.128643 
L 230.9184 199.751357 
L 231.3648 233.317622 
L 231.8112 233.317622 
L 232.2576 199.751357 
L 233.1504 91.128643 
L 233.5968 57.562378 
L 234.0432 57.562378 
L 234.4896 91.128643 
L 235.3824 199.751357 
L 235.8288 233.317622 
L 236.2752 233.317622 
L 236.7216 199.751357 
L 237.6144 91.128643 
L 238.0608 57.562378 
L 238.5072 57.562378 
L 238.9536 91.128643 
L 239.8464 199.751357 
L 240.2928 233.317622 
L 240.7392 233.317622 
L 241.1856 199.751357 
L 242.0784 91.128643 
L 242.5248 57.562378 
L 242.9712 57.562378 
L 243.4176 91.128643 
L 244.3104 199.751357 
L 244.7568 233.317622 
L 245.2032 233.317622 
L 245.6496 199.751357 
L 246.5424 91.128643 
L 246.9888 57.562378 
L 247.4352 57.562378 
L 247.8816 91.128643 
L 248.7744 199.751357 
L 249.2208 233.317622 
L 249.6672 233.317622 
L 250.1136 199.751357 
L 251.0064 91.128643 
L 251.4528 57.562378 
L 251.8992 57.562378 
L 252.3456 91.128643 
L 253.2384 199.751357 
L 253.6848 233.317622 
L 254.1312 233.317622 
L 254.5776 199.751357 
L 255.4704 91.128643 
L 255.9168 57.562378 
L 256.3632 57.562378 
L 256.8096 91.128643 
L 257.7024 199.751357 
L 258.1488 233.317622 
L 258.5952 233.317622 
L 259.0416 199.751357 
L 259.9344 91.128643 
L 260.3808 57.562378 
L 260.8272 57.562378 
L 261.2736 91.128643 
L 262.1664 199.751357 
L 262.6128 233.317622 
L 263.0592 233.317622 
L 263.5056 199.751357 
L 264.3984 91.128643 
L 264.8448 57.562378 
L 265.2912 57.562378 
L 265.7376 91.128643 
L 266.6304 199.751357 
L 267.0768 233.317622 
L 267.5232 233.317622 
L 267.9696 199.751357 
L 268.8624 91.128643 
L 269.3088 57.562378 
L 269.7552 57.562378 
L 270.2016 91.128643 
L 271.0944 199.751357 
L 271.5408 233.317622 
L 271.9872 233.317622 
L 272.4336 199.751357 
L 273.3264 91.128643 
L 273.7728 57.562378 
L 274.2192 57.562378 
L 274.6656 91.128643 
L 275.5584 199.751357 
L 276.0048 233.317622 
L 276.4512 233.317622 
L 276.8976 199.751357 
L 277.7904 91.128643 
L 278.2368 57.562378 
L 278.6832 57.562378 
L 279.1296 91.128643 
L 280.0224 199.751357 
L 280.4688 233.317622 
L 280.9152 233.317622 
L 281.3616 199.751357 
L 282.2544 91.128643 
L 282.7008 57.562378 
L 283.1472 57.562378 
L 283.5936 91.128643 
L 284.4864 199.751357 
L 284.9328 233.317622 
L 285.3792 233.317622 
L 285.8256 199.751357 
L 286.7184 91.128643 
L 287.1648 57.562378 
L 287.6112 57.562378 
L 288.0576 91.128643 
L 288.9504 199.751357 
L 289.3968 233.317622 
L 289.8432 233.317622 
L 290.2896 199.751357 
L 291.1824 91.128643 
L 291.6288 57.562378 
L 292.0752 57.562378 
L 292.5216 91.128643 
L 293.4144 199.751357 
L 293.8608 233.317622 
L 294.3072 233.317622 
L 294.7536 199.751357 
L 295.6464 91.128643 
L 296.0928 57.562378 
L 296.5392 57.562378 
L 296.9856 91.128643 
L 297.8784 199.751357 
L 298.3248 233.317622 
L 298.7712 233.317622 
L 299.2176 199.751357 
L 300.1104 91.128643 
L 300.5568 57.562378 
L 301.0032 57.562378 
L 301.4496 91.128643 
L 302.3424 199.751357 
L 302.7888 233.317622 
L 303.2352 233.317622 
L 303.6816 199.751357 
L 304.5744 91.128643 
L 305.0208 57.562378 
L 305.4672 57.562378 
L 305.9136 91.128643 
L 306.8064 199.751357 
L 307.2528 233.317622 
L 307.6992 233.317622 
L 308.1456 199.751357 
L 309.0384 91.128643 
L 309.4848 57.562378 
L 309.9312 57.562378 
L 310.3776 91.128643 
L 311.2704 199.751357 
L 311.7168 233.317622 
L 312.1632 233.317622 
L 312.6096 199.751357 
L 313.5024 91.128643 
L 313.9488 57.562378 
L 314.3952 57.562378 
L 314.8416 91.128643 
L 315.7344 199.751357 
L 316.1808 233.317622 
L 316.6272 233.317622 
L 317.0736 199.751357 
L 317.9664 91.128643 
L 318.4128 57.562378 
L 318.8592 57.562378 
L 319.3056 91.128643 
L 320.1984 199.751357 
L 320.6448 233.317622 
L 321.0912 233.317622 
L 321.5376 199.751357 
L 322.4304 91.128643 
L 322.8768 57.562378 
L 323.3232 57.562378 
L 323.7696 91.128643 
L 324.6624 199.751357 
L 325.1088 233.317622 
L 325.5552 233.317622 
L 326.0016 199.751357 
L 326.8944 91.128643 
L 327.3408 57.562378 
L 327.7872 57.562378 
L 328.2336 91.128643 
L 329.1264 199.751357 
L 329.5728 233.317622 
L 330.0192 233.317622 
L 330.4656 199.751357 
L 331.3584 91.128643 
L 331.8048 57.562378 
L 332.2512 57.562378 
L 332.6976 91.128643 
L 333.5904 199.751357 
L 334.0368 233.317622 
L 334.4832 233.317622 
L 334.9296 199.751357 
L 335.8224 91.128643 
L 336.2688 57.562378 
L 336.7152 57.562378 
L 337.1616 91.128643 
L 338.0544 199.751357 
L 338.5008 233.317622 
L 338.9472 233.317622 
L 339.3936 199.751357 
L 340.2864 91.128643 
L 340.7328 57.562378 
L 341.1792 57.562378 
L 341.6256 91.128643 
L 342.5184 199.751357 
L 342.9648 233.317622 
L 343.4112 233.317622 
L 343.8576 199.751357 
L 344.7504 91.128643 
L 345.1968 57.562378 
L 345.6432 57.562378 
L 346.0896 91.128643 
L 346.9824 199.751357 
L 347.4288 233.317622 
L 347.8752 233.317622 
L 348.3216 199.751357 
L 349.2144 91.128643 
L 349.6608 57.562378 
L 350.1072 57.562378 
L 350.5536 91.128643 
L 351.4464 199.751357 
L 351.8928 233.317622 
L 352.3392 233.317622 
L 352.7856 199.751357 
L 353.6784 91.128643 
L 354.1248 57.562378 
L 354.5712 57.562378 
L 355.0176 91.128643 
L 355.9104 199.751357 
L 356.3568 233.317622 
L 356.8032 233.317622 
L 357.2496 199.751357 
L 358.1424 91.128643 
L 358.5888 57.562378 
L 359.0352 57.562378 
L 359.4816 91.128643 
L 360.3744 199.751357 
L 360.8208 233.317622 
L 361.2672 233.317622 
L 361.7136 199.751357 
L 362.6064 91.128643 
L 363.0528 57.562378 
L 363.4992 57.562378 
L 363.9456 91.128643 
L 364.8384 199.751357 
L 365.2848 233.317622 
L 365.7312 233.317622 
L 366.1776 199.751357 
L 367.0704 91.128643 
L 367.5168 57.562378 
L 367.9632 57.562378 
L 368.4096 91.128643 
L 369.3024 199.751357 
L 369.7488 233.317622 
L 370.1952 233.317622 
L 370.6416 199.751357 
L 371.5344 91.128643 
L 371.9808 57.562378 
L 372.4272 57.562378 
L 372.8736 91.128643 
L 373.7664 199.751357 
L 374.2128 233.317622 
L 374.6592 233.317622 
L 375.1056 199.751357 
L 375.9984 91.128643 
L 376.4448 57.562378 
L 376.8912 57.562378 
L 377.3376 91.128643 
L 378.2304 199.751357 
L 378.6768 233.317622 
L 379.1232 233.317622 
L 379.5696 199.751357 
L 380.4624 91.128643 
L 380.9088 57.562378 
L 381.3552 57.562378 
L 381.8016 91.128643 
L 382.6944 199.751357 
L 383.1408 233.317622 
L 383.5872 233.317622 
L 384.0336 199.751357 
L 384.9264 91.128643 
L 385.3728 57.562378 
L 385.8192 57.562378 
L 386.2656 91.128643 
L 387.1584 199.751357 
L 387.6048 233.317622 
L 388.0512 233.317622 
L 388.4976 199.751357 
L 389.3904 91.128643 
L 389.8368 57.562378 
L 390.2832 57.562378 
L 390.7296 91.128643 
L 391.6224 199.751357 
L 392.0688 233.317622 
L 392.5152 233.317622 
L 392.9616 199.751357 
L 393.8544 91.128643 
L 394.3008 57.562378 
L 394.7472 57.562378 
L 395.1936 91.128643 
L 396.0864 199.751357 
L 396.5328 233.317622 
L 396.9792 233.317622 
L 397.4256 199.751357 
L 398.3184 91.128643 
L 398.7648 57.562378 
L 399.2112 57.562378 
L 399.6576 91.128643 
L 400.5504 199.751357 
L 400.9968 233.317622 
L 401.4432 233.317622 
L 401.8896 199.751357 
L 402.7824 91.128643 
L 403.2288 57.562378 
L 403.6752 57.562378 
L 404.1216 91.128643 
L 405.0144 199.751357 
L 405.4608 233.317622 
L 405.9072 233.317622 
L 406.3536 199.751357 
L 407.2464 91.128643 
L 407.6928 57.562378 
L 408.1392 57.562378 
L 408.5856 91.128643 
L 409.4784 199.751357 
L 409.9248 233.317622 
L 410.3712 233.317622 
L 410.8176 199.751357 
L 411.7104 91.128643 
L 412.1568 57.562378 
L 412.6032 57.562378 
L 413.0496 91.128643 
L 413.9424 199.751357 
L 414.3888 233.317622 
L 414.8352 233.317622 
L 415.2816 199.751357 
L 416.1744 91.128643 
L 416.6208 57.562378 
L 417.0672 57.562378 
L 417.5136 91.128643 
L 418.4064 199.751357 
L 418.8528 233.317622 
L 419.2992 233.317622 
L 419.7456 199.751357 
L 420.6384 91.128643 
L 421.0848 57.562378 
L 421.5312 57.562378 
L 421.9776 91.128643 
L 422.8704 199.751357 
L 423.3168 233.317622 
L 423.7632 233.317622 
L 424.2096 199.751357 
L 425.1024 91.128643 
L 425.5488 57.562378 
L 425.9952 57.562378 
L 426.4416 91.128643 
L 427.3344 199.751357 
L 427.7808 233.317622 
L 428.2272 233.317622 
L 428.6736 199.751357 
L 429.5664 91.128643 
L 430.0128 57.562378 
L 430.4592 57.562378 
L 430.9056 91.128643 
L 431.7984 199.751357 
L 432.2448 233.317622 
L 432.6912 233.317622 
L 433.1376 199.751357 
L 434.0304 91.128643 
L 434.4768 57.562378 
L 434.9232 57.562378 
L 435.3696 91.128643 
L 436.2624 199.751357 
L 436.7088 233.317622 
L 437.1552 233.317622 
L 437.6016 199.751357 
L 438.4944 91.128643 
L 438.9408 57.562378 
L 439.3872 57.562378 
L 439.8336 91.128643 
L 440.7264 199.751357 
L 441.1728 233.317622 
L 441.6192 233.317622 
L 442.0656 199.751357 
L 442.9584 91.128643 
L 443.4048 57.562378 
L 443.8512 57.562378 
L 444.2976 91.128643 
L 445.1904 199.751357 
L 445.6368 233.317622 
L 446.0832 233.317622 
L 446.5296 199.751357 
L 447.4224 91.128643 
L 447.8688 57.562378 
L 448.3152 57.562378 
L 448.7616 91.128643 
L 449.6544 199.751357 
L 450.1008 233.317622 
L 450.5472 233.317622 
L 450.9936 199.751357 
L 451.8864 91.128643 
L 452.3328 57.562378 
L 452.7792 57.562378 
L 453.2256 91.128643 
L 454.1184 199.751357 
L 454.5648 233.317622 
L 455.0112 233.317622 
L 455.4576 199.751357 
L 456.3504 91.128643 
L 456.7968 57.562378 
L 457.2432 57.562378 
L 457.6896 91.128643 
L 458.5824 199.751357 
L 459.0288 233.317622 
L 459.4752 233.317622 
L 459.9216 199.751357 
L 460.8144 91.128643 
L 461.2608 57.562378 
L 461.7072 57.562378 
L 462.1536 91.128643 
L 463.0464 199.751357 
L 463.4928 233.317622 
L 463.9392 233.317622 
L 464.3856 199.751357 
L 465.2784 91.128643 
L 465.7248 57.562378 
L 466.1712 57.562378 
L 466.6176 91.128643 
L 467.5104 199.751357 
L 467.9568 233.317622 
L 468.4032 233.317622 
L 468.8496 199.751357 
L 469.7424 91.128643 
L 470.1888 57.562378 
L 470.6352 57.562378 
L 471.0816 91.128643 
L 471.9744 199.751357 
L 472.4208 233.317622 
L 472.8672 233.317622 
L 473.3136 199.751357 
L 474.2064 91.128643 
L 474.6528 57.562378 
L 475.0992 57.562378 
L 475.5456 91.128643 
L 476.4384 199.751357 
L 476.8848 233.317622 
L 477.3312 233.317622 
L 477.7776 199.751357 
L 478.6704 91.128643 
L 479.1168 57.562378 
L 479.5632 57.562378 
L 480.0096 91.128643 
L 480.9024 199.751357 
L 481.3488 233.317622 
L 481.7952 233.317622 
L 482.2416 199.751357 
L 483.1344 91.128643 
L 483.5808 57.562378 
L 484.0272 57.562378 
L 484.4736 91.128643 
L 485.3664 199.751357 
L 485.8128 233.317622 
L 486.2592 233.317622 
L 486.7056 199.751357 
L 487.5984 91.128643 
L 488.0448 57.562378 
L 488.4912 57.562378 
L 488.9376 91.128643 
L 489.8304 199.751357 
L 490.2768 233.317622 
L 490.7232 233.317622 
L 491.1696 199.751357 
L 492.0624 91.128643 
L 492.5088 57.562378 
L 492.9552 57.562378 
L 493.4016 91.128643 
L 494.2944 199.751357 
L 494.7408 233.317622 
L 495.1872 233.317622 
L 495.6336 199.751357 
L 496.5264 91.128643 
L 496.9728 57.562378 
L 497.4192 57.562378 
L 497.8656 91.128643 
L 498.7584 199.751357 
L 499.2048 233.317622 
L 499.6512 233.317622 
L 500.0976 199.751357 
L 500.9904 91.128643 
L 501.4368 57.562378 
L 501.8832 57.562378 
L 502.3296 91.128643 
L 503.2224 199.751357 
L 503.6688 233.317622 
L 504.1152 233.317622 
L 504.5616 199.751357 
L 505.4544 91.128643 
L 505.9008 57.562378 
L 506.3472 57.562378 
L 506.7936 91.128643 
L 507.6864 199.751357 
L 508.1328 233.317622 
L 508.5792 233.317622 
L 509.0256 199.751357 
L 509.9184 91.128643 
L 510.3648 57.562378 
L 510.8112 57.562378 
L 511.2576 91.128643 
L 512.1504 199.751357 
L 512.5968 233.317622 
L 513.0432 233.317622 
L 513.4896 199.751357 
L 514.3824 91.128643 
L 514.8288 57.562378 
L 515.2752 57.562378 
L 515.7216 91.128643 
L 516.6144 199.751357 
L 517.0608 233.317622 
L 517.5072 233.317622 
L 517.9536 199.751357 
L 517.9536 199.751357 
" clip-path="url(#p1046efc1ca)" style="fill: none; stroke: #1f77b4; stroke-width: 1.5; stroke-linecap: square"/>
   </g>
   <g id="patch_3">
    <path d="M 72 256.32 
L 72 34.56 
" style="fill: none; stroke: #000000; stroke-width: 0.8; stroke-linejoin: miter; stroke-linecap: square"/>
   </g>
   <g id="patch_4">
    <path d="M 518.4 256.32 
L 518.4 34.56 
" style="fill: none; stroke: #000000; stroke-width: 0.8; stroke-linejoin: miter; stroke-linecap: square"/>
   </g>
   <g id="patch_5">
    <path d="M 72 256.32 
L 518.4 256.32 
" style="fill: none; stroke: #000000; stroke-width: 0.8; stroke-linejoin: miter; stroke-linecap: square"/>
   </g>
   <g id="patch_6">
    <path d="M 72 34.56 
L 518.4 34.56 
" style="fill: none; stroke: #000000; stroke-width: 0.8; stroke-linejoin: miter; stroke-linecap: square"/>
   </g>
   <g id="legend_1">
    <g id="patch_7">
     <path d="M 391.4 57.238125 
L 511.4 57.238125 
Q 513.4 57.238125 513.4 55.238125 
L 513.4 41.56 
Q 513.4 39.56 511.4 39.56 
L 391.4 39.56 
Q 389.4 39.56 389.4 41.56 
L 389.4 55.238125 
Q 389.4 57.238125 391.4 57.238125 
z
" style="fill: #ffffff; opacity: 0.8; stroke: #cccccc; stroke-linejoin: miter"/>
    </g>
    <g id="line2d_28">
     <path d="M 393.4 47.658438 
L 403.4 47.658438 
L 413.4 47.658438 
" style="fill: none; stroke: #1f77b4; stroke-width: 1.5; stroke-linecap: square"/>
    </g>
    <g id="text_17">
     <!-- FrameA: $f=5$GHz -->
     <g transform="translate(421.4 51.158438) scale(0.1 -0.1)">
      <defs>
       <path id="DejaVuSans-46" d="M 628 4666 
L 3309 4666 
L 3309 4134 
L 1259 4134 
L 1259 2759 
L 3109 2759 
L 3109 2228 
L 1259 2228 
L 1259 0 
L 628 0 
L 628 4666 
z
" transform="scale(0.015625)"/>
       <path id="DejaVuSans-61" d="M 2194 1759 
Q 1497 1759 1228 1600 
Q 959 1441 959 1056 
Q 959 750 1161 570 
Q 1363 391 1709 391 
Q 2188 391 2477 730 
Q 2766 1069 2766 1631 
L 2766 1759 
L 2194 1759 
z
M 3341 1997 
L 3341 0 
L 2766 0 
L 2766 531 
Q 2569 213 2275 61 
Q 1981 -91 1556 -91 
Q 1019 -91 701 211 
Q 384 513 384 1019 
Q 384 1609 779 1909 
Q 1175 2209 1959 2209 
L 2766 2209 
L 2766 2266 
Q 2766 2663 2505 2880 
Q 2244 3097 1772 3097 
Q 1472 3097 1187 3025 
Q 903 2953 641 2809 
L 641 3341 
Q 956 3463 1253 3523 
Q 1550 3584 1831 3584 
Q 2591 3584 2966 3190 
Q 3341 2797 3341 1997 
z
" transform="scale(0.015625)"/>
       <path id="DejaVuSans-6d" d="M 3328 2828 
Q 3544 3216 3844 3400 
Q 4144 3584 4550 3584 
Q 5097 3584 5394 3201 
Q 5691 2819 5691 2113 
L 5691 0 
L 5113 0 
L 5113 2094 
Q 5113 2597 4934 2840 
Q 4756 3084 4391 3084 
Q 3944 3084 3684 2787 
Q 3425 2491 3425 1978 
L 3425 0 
L 2847 0 
L 2847 2094 
Q 2847 2600 2669 2842 
Q 2491 3084 2119 3084 
Q 1678 3084 1418 2786 
Q 1159 2488 1159 1978 
L 1159 0 
L 581 0 
L 581 3500 
L 1159 3500 
L 1159 2956 
Q 1356 3278 1631 3431 
Q 1906 3584 2284 3584 
Q 2666 3584 2933 3390 
Q 3200 3197 3328 2828 
z
" transform="scale(0.015625)"/>
       <path id="DejaVuSans-41" d="M 2188 4044 
L 1331 1722 
L 3047 1722 
L 2188 4044 
z
M 1831 4666 
L 2547 4666 
L 4325 0 
L 3669 0 
L 3244 1197 
L 1141 1197 
L 716 0 
L 50 0 
L 1831 4666 
z
" transform="scale(0.015625)"/>
       <path id="DejaVuSans-Oblique-66" d="M 3059 4863 
L 2969 4384 
L 2419 4384 
Q 2106 4384 1964 4261 
Q 1822 4138 1753 3809 
L 1691 3500 
L 2638 3500 
L 2553 3053 
L 1606 3053 
L 1013 0 
L 434 0 
L 1031 3053 
L 481 3053 
L 563 3500 
L 1113 3500 
L 1159 3744 
Q 1278 4363 1576 4613 
Q 1875 4863 2516 4863 
L 3059 4863 
z
" transform="scale(0.015625)"/>
       <path id="DejaVuSans-3d" d="M 678 2906 
L 4684 2906 
L 4684 2381 
L 678 2381 
L 678 2906 
z
M 678 1631 
L 4684 1631 
L 4684 1100 
L 678 1100 
L 678 1631 
z
" transform="scale(0.015625)"/>
       <path id="DejaVuSans-35" d="M 691 4666 
L 3169 4666 
L 3169 4134 
L 1269 4134 
L 1269 2991 
Q 1406 3038 1543 3061 
Q 1681 3084 1819 3084 
Q 2600 3084 3056 2656 
Q 3513 2228 3513 1497 
Q 3513 744 3044 326 
Q 2575 -91 1722 -91 
Q 1428 -91 1123 -41 
Q 819 9 494 109 
L 494 744 
Q 775 591 1075 516 
Q 1375 441 1709 441 
Q 2250 441 2565 725 
Q 2881 1009 2881 1497 
Q 2881 1984 2565 2268 
Q 2250 2553 1709 2553 
Q 1456 2553 1204 2497 
Q 953 2441 691 2322 
L 691 4666 
z
" transform="scale(0.015625)"/>
       <path id="DejaVuSans-47" d="M 3809 666 
L 3809 1919 
L 2778 1919 
L 2778 2438 
L 4434 2438 
L 4434 434 
Q 4069 175 3628 42 
Q 3188 -91 2688 -91 
Q 1594 -91 976 548 
Q 359 1188 359 2328 
Q 359 3472 976 4111 
Q 1594 4750 2688 4750 
Q 3144 4750 3555 4637 
Q 3966 4525 4313 4306 
L 4313 3634 
Q 3963 3931 3569 4081 
Q 3175 4231 2741 4231 
Q 1884 4231 1454 3753 
Q 1025 3275 1025 2328 
Q 1025 1384 1454 906 
Q 1884 428 2741 428 
Q 3075 428 3337 486 
Q 3600 544 3809 666 
z
" transform="scale(0.015625)"/>
       <path id="DejaVuSans-48" d="M 628 4666 
L 1259 4666 
L 1259 2753 
L 3553 2753 
L 3553 4666 
L 4184 4666 
L 4184 0 
L 3553 0 
L 3553 2222 
L 1259 2222 
L 1259 0 
L 628 0 
L 628 4666 
z
" transform="scale(0.015625)"/>
       <path id="DejaVuSans-7a" d="M 353 3500 
L 3084 3500 
L 3084 2975 
L 922 459 
L 3084 459 
L 3084 0 
L 275 0 
L 275 525 
L 2438 3041 
L 353 3041 
L 353 3500 
z
" transform="scale(0.015625)"/>
      </defs>
      <use xlink:href="#DejaVuSans-46" transform="translate(0 0.015625)"/>
      <use xlink:href="#DejaVuSans-72" transform="translate(57.519531 0.015625)"/>
      <use xlink:href="#DejaVuSans-61" transform="translate(98.632812 0.015625)"/>
      <use xlink:href="#DejaVuSans-6d" transform="translate(159.912109 0.015625)"/>
      <use xlink:href="#DejaVuSans-65" transform="translate(257.324219 0.015625)"/>
      <use xlink:href="#DejaVuSans-41" transform="translate(318.847656 0.015625)"/>
      <use xlink:href="#DejaVuSans-3a" transform="translate(387.255859 0.015625)"/>
      <use xlink:href="#DejaVuSans-20" transform="translate(420.947266 0.015625)"/>
      <use xlink:href="#DejaVuSans-Oblique-66" transform="translate(452.734375 0.015625)"/>
      <use xlink:href="#DejaVuSans-3d" transform="translate(507.421875 0.015625)"/>
      <use xlink:href="#DejaVuSans-35" transform="translate(610.693359 0.015625)"/>
      <use xlink:href="#DejaVuSans-47" transform="translate(674.316406 0.015625)"/>
      <use xlink:href="#DejaVuSans-48" transform="translate(751.806641 0.015625)"/>
      <use xlink:href="#DejaVuSans-7a" transform="translate(827.001953 0.015625)"/>
     </g>
    </g>
   </g>
  </g>
 </g>
 <defs>
  <clipPath id="p1046efc1ca">
   <rect x="72" y="34.56" width="446.4" height="221.76"/>
  </clipPath>
 </defs>
</svg>
