<?xml version="1.0" encoding="UTF-8" standalone="no"?>
<!DOCTYPE svg PUBLIC "-//W3C//DTD SVG 1.1//EN"
 "http://www.w3.org/Graphics/SVG/1.1/DTD/svg11.dtd">
<!-- Generated by graphviz version 2.43.0 (0)
 -->
<!-- Pages: 1 -->
<svg width="342pt" height="305pt"
 viewBox="0.00 0.00 342.00 305.00" xmlns="http://www.w3.org/2000/svg" xmlns:xlink="http://www.w3.org/1999/xlink">
<g id="graph0" class="graph" transform="scale(1 1) rotate(0) translate(4 301)">
<polygon fill="white" stroke="transparent" points="-4,4 -4,-301 338,-301 338,4 -4,4"/>
<!-- NumericExpression1 -->
<g id="node1" class="node">
<title>NumericExpression1</title>
<polygon fill="none" stroke="black" points="54,-36 0,-36 0,0 54,0 54,-36"/>
<text text-anchor="middle" x="27" y="-14.3" font-family="Times,serif" font-size="14.00">100</text>
</g>
<!-- Port1 -->
<g id="node2" class="node">
<title>Port1</title>
<polygon fill="none" stroke="black" points="54,-123 0,-123 0,-87 54,-87 54,-123"/>
<text text-anchor="middle" x="27" y="-101.3" font-family="Times,serif" font-size="14.00">Port</text>
</g>
<!-- Port1&#45;&gt;NumericExpression1 -->
<g id="edge1" class="edge">
<title>Port1&#45;&gt;NumericExpression1</title>
<path fill="none" stroke="black" stroke-dasharray="5,2" d="M27,-86.8C27,-75.16 27,-59.55 27,-46.24"/>
<polygon fill="black" stroke="black" points="30.5,-46.18 27,-36.18 23.5,-46.18 30.5,-46.18"/>
<text text-anchor="middle" x="34.5" y="-57.8" font-family="Times,serif" font-size="14.00">Id</text>
</g>
<!-- Interval1 -->
<g id="node3" class="node">
<title>Interval1</title>
<polygon fill="none" stroke="black" points="143,-36 87,-36 87,0 143,0 143,-36"/>
<text text-anchor="middle" x="115" y="-14.3" font-family="Times,serif" font-size="14.00">50 ns</text>
</g>
<!-- Interval2 -->
<g id="node4" class="node">
<title>Interval2</title>
<polygon fill="none" stroke="black" points="230,-36 174,-36 174,0 230,0 230,-36"/>
<text text-anchor="middle" x="202" y="-14.3" font-family="Times,serif" font-size="14.00">10 ns</text>
</g>
<!-- Waveform1 -->
<g id="node5" class="node">
<title>Waveform1</title>
<polygon fill="none" stroke="black" points="226,-123 72,-123 72,-87 226,-87 226,-123"/>
<text text-anchor="middle" x="149" y="-101.3" font-family="Times,serif" font-size="14.00">GaussianWaveform</text>
</g>
<!-- Waveform1&#45;&gt;Interval1 -->
<g id="edge2" class="edge">
<title>Waveform1&#45;&gt;Interval1</title>
<path fill="none" stroke="black" stroke-dasharray="5,2" d="M128.27,-86.99C123.33,-81.78 118.72,-75.65 116,-69 113.14,-62.01 112.11,-53.99 112,-46.46"/>
<polygon fill="black" stroke="black" points="115.5,-46.4 112.35,-36.28 108.5,-46.16 115.5,-46.4"/>
<text text-anchor="middle" x="148" y="-57.8" font-family="Times,serif" font-size="14.00">Duration</text>
</g>
<!-- Waveform1&#45;&gt;Interval2 -->
<g id="edge3" class="edge">
<title>Waveform1&#45;&gt;Interval2</title>
<path fill="none" stroke="black" stroke-dasharray="5,2" d="M166.23,-86.7C171.06,-81.3 176.06,-75.15 180,-69 184.6,-61.81 188.69,-53.5 192.05,-45.74"/>
<polygon fill="black" stroke="black" points="195.35,-46.91 195.91,-36.33 188.88,-44.26 195.35,-46.91"/>
<text text-anchor="middle" x="210" y="-57.8" font-family="Times,serif" font-size="14.00">Sigma</text>
</g>
<!-- NumericExpression2 -->
<g id="node6" class="node">
<title>NumericExpression2</title>
<polygon fill="none" stroke="black" points="316,-36 262,-36 262,0 316,0 316,-36"/>
<text text-anchor="middle" x="289" y="-14.3" font-family="Times,serif" font-size="14.00">0.5</text>
</g>
<!-- Amplitude3 -->
<g id="node7" class="node">
<title>Amplitude3</title>
<polygon fill="none" stroke="black" points="334,-123 244,-123 244,-87 334,-87 334,-123"/>
<text text-anchor="middle" x="289" y="-101.3" font-family="Times,serif" font-size="14.00">Amplitude</text>
</g>
<!-- Amplitude3&#45;&gt;NumericExpression2 -->
<g id="edge4" class="edge">
<title>Amplitude3&#45;&gt;NumericExpression2</title>
<path fill="none" stroke="black" stroke-dasharray="5,2" d="M289,-86.8C289,-75.16 289,-59.55 289,-46.24"/>
<polygon fill="black" stroke="black" points="292.5,-46.18 289,-36.18 285.5,-46.18 292.5,-46.18"/>
<text text-anchor="middle" x="309" y="-57.8" font-family="Times,serif" font-size="14.00">Value</text>
</g>
<!-- Instruction1 -->
<g id="node8" class="node">
<title>Instruction1</title>
<polygon fill="none" stroke="black" points="225,-210 73,-210 73,-174 225,-174 225,-210"/>
<text text-anchor="middle" x="149" y="-188.3" font-family="Times,serif" font-size="14.00">UnmodulatedPulse</text>
</g>
<!-- Instruction1&#45;&gt;Port1 -->
<g id="edge5" class="edge">
<title>Instruction1&#45;&gt;Port1</title>
<path fill="none" stroke="black" stroke-dasharray="5,2" d="M124.31,-173.8C105.79,-160.9 80.25,-143.1 59.98,-128.98"/>
<polygon fill="black" stroke="black" points="61.86,-126.02 51.65,-123.18 57.86,-131.76 61.86,-126.02"/>
<text text-anchor="middle" x="111.5" y="-144.8" font-family="Times,serif" font-size="14.00">Port</text>
</g>
<!-- Instruction1&#45;&gt;Waveform1 -->
<g id="edge6" class="edge">
<title>Instruction1&#45;&gt;Waveform1</title>
<path fill="none" stroke="black" stroke-dasharray="5,2" d="M149,-173.8C149,-162.16 149,-146.55 149,-133.24"/>
<polygon fill="black" stroke="black" points="152.5,-133.18 149,-123.18 145.5,-133.18 152.5,-133.18"/>
<text text-anchor="middle" x="182.5" y="-144.8" font-family="Times,serif" font-size="14.00">Envelope</text>
</g>
<!-- Instruction1&#45;&gt;Amplitude3 -->
<g id="edge7" class="edge">
<title>Instruction1&#45;&gt;Amplitude3</title>
<path fill="none" stroke="black" stroke-dasharray="5,2" d="M186.48,-173.99C197.49,-168.61 209.41,-162.39 220,-156 233.25,-148.01 247.2,-138.2 259.05,-129.39"/>
<polygon fill="black" stroke="black" points="261.4,-132.01 267.28,-123.2 257.18,-126.42 261.4,-132.01"/>
<text text-anchor="middle" x="278" y="-144.8" font-family="Times,serif" font-size="14.00">Amplitude</text>
</g>
<!-- Job -->
<g id="node9" class="node">
<title>Job</title>
<polygon fill="none" stroke="black" points="176,-297 122,-297 122,-261 176,-261 176,-297"/>
<text text-anchor="middle" x="149" y="-275.3" font-family="Times,serif" font-size="14.00">Job</text>
</g>
<!-- Job&#45;&gt;Instruction1 -->
<g id="edge8" class="edge">
<title>Job&#45;&gt;Instruction1</title>
<path fill="none" stroke="black" stroke-dasharray="5,2" d="M149,-260.8C149,-249.16 149,-233.55 149,-220.24"/>
<polygon fill="black" stroke="black" points="152.5,-220.18 149,-210.18 145.5,-220.18 152.5,-220.18"/>
<text text-anchor="middle" x="188" y="-231.8" font-family="Times,serif" font-size="14.00">EntryPoint</text>
</g>
</g>
</svg>
