<svg xmlns="http://www.w3.org/2000/svg" xmlns:xlink="http://www.w3.org/1999/xlink" contentStyleType="text/css" data-diagram-type="CLASS" height="443px" preserveAspectRatio="none" style="width:563px;height:443px;background:#FFFFFF;" version="1.1" viewBox="0 0 563 443" width="563px" zoomAndPan="magnify"><defs/><g><!--cluster TreQ--><g class="cluster" data-entity="TreQ" data-source-line="2" data-uid="ent0004" id="cluster_TreQ"><path d="M8.5,6 L47.3506,6 A3.75,3.75 0 0 1 49.8506,8.5 L56.8506,28.2969 L553.5,28.2969 A2.5,2.5 0 0 1 556,30.7969 L556,433.5 A2.5,2.5 0 0 1 553.5,436 L8.5,436 A2.5,2.5 0 0 1 6,433.5 L6,8.5 A2.5,2.5 0 0 1 8.5,6" fill="none" style="stroke:#000000;stroke-width:1.5;"/><line style="stroke:#000000;stroke-width:1.5;" x1="6" x2="56.8506" y1="28.2969" y2="28.2969"/><text fill="#000000" font-family="sans-serif" font-size="14" font-weight="bold" lengthAdjust="spacing" textLength="37.8506" x="10" y="20.9951">TreQ</text></g><!--cluster TIL--><g class="cluster" data-entity="TIL" data-source-line="2" data-uid="ent0005" id="cluster_TIL"><path d="M32.5,49 L57.1797,49 A3.75,3.75 0 0 1 59.6797,51.5 L66.6797,71.2969 L529.5,71.2969 A2.5,2.5 0 0 1 532,73.7969 L532,409.5 A2.5,2.5 0 0 1 529.5,412 L32.5,412 A2.5,2.5 0 0 1 30,409.5 L30,51.5 A2.5,2.5 0 0 1 32.5,49" fill="none" style="stroke:#000000;stroke-width:1.5;"/><line style="stroke:#000000;stroke-width:1.5;" x1="30" x2="66.6797" y1="71.2969" y2="71.2969"/><text fill="#000000" font-family="sans-serif" font-size="14" font-weight="bold" lengthAdjust="spacing" textLength="23.6797" x="34" y="63.9951">TIL</text></g><!--cluster Results--><g class="cluster" data-entity="Results" data-source-line="1" data-uid="ent0002" id="cluster_Results"><path d="M56.5,92 L115.8994,92 A3.75,3.75 0 0 1 118.3994,94.5 L125.3994,114.2969 L505.5,114.2969 A2.5,2.5 0 0 1 508,116.7969 L508,385.5 A2.5,2.5 0 0 1 505.5,388 L56.5,388 A2.5,2.5 0 0 1 54,385.5 L54,94.5 A2.5,2.5 0 0 1 56.5,92" fill="none" style="stroke:#000000;stroke-width:1.5;"/><line style="stroke:#000000;stroke-width:1.5;" x1="54" x2="125.3994" y1="114.2969" y2="114.2969"/><text fill="#000000" font-family="sans-serif" font-size="14" font-weight="bold" lengthAdjust="spacing" textLength="58.3994" x="58" y="106.9951">Results</text></g><!--class RegisterResult--><g class="entity" data-entity="RegisterResult" data-source-line="2" data-uid="ent0003" id="entity_RegisterResult"><rect fill="#F1F1F1" height="80.5938" rx="2.5" ry="2.5" style="stroke:#181818;stroke-width:0.5;" width="145.4863" x="208.5" y="291"/><ellipse cx="223.5" cy="307" fill="#ADD1B2" rx="11" ry="11" style="stroke:#181818;stroke-width:1;"/><path d="M226.4688,312.6406 Q225.8906,312.9375 225.25,313.0781 Q224.6094,313.2344 223.9063,313.2344 Q221.4063,313.2344 220.0781,311.5938 Q218.7656,309.9375 218.7656,306.8125 Q218.7656,303.6875 220.0781,302.0313 Q221.4063,300.375 223.9063,300.375 Q224.6094,300.375 225.25,300.5313 Q225.9063,300.6875 226.4688,300.9844 L226.4688,303.7031 Q225.8438,303.125 225.25,302.8594 Q224.6563,302.5781 224.0313,302.5781 Q222.6875,302.5781 222,303.6563 Q221.3125,304.7188 221.3125,306.8125 Q221.3125,308.9063 222,309.9844 Q222.6875,311.0469 224.0313,311.0469 Q224.6563,311.0469 225.25,310.7813 Q225.8438,310.5 226.4688,309.9219 L226.4688,312.6406 Z " fill="#000000"/><text fill="#000000" font-family="sans-serif" font-size="14" lengthAdjust="spacing" textLength="102.1563" x="237.5" y="311.8467">RegisterResult</text><rect fill="#FFFFFF" height="15.9688" style="stroke:#181818;stroke-width:1;stroke-dasharray:2,2;" width="9.3301" x="347.6563" y="288"/><text fill="#000000" font-family="sans-serif" font-size="12" font-style="italic" lengthAdjust="spacing" textLength="7.3301" x="348.6563" y="300.1387">T</text><line style="stroke:#181818;stroke-width:0.5;" x1="209.5" x2="352.9863" y1="323" y2="323"/><ellipse cx="219.5" cy="336.6484" fill="none" rx="3" ry="3" style="stroke:#038048;stroke-width:1;"/><text fill="#000000" font-family="sans-serif" font-size="14" lengthAdjust="spacing" textLength="95.1084" x="228.5" y="339.9951">Name : string</text><ellipse cx="219.5" cy="352.9453" fill="none" rx="3" ry="3" style="stroke:#038048;stroke-width:1;"/><text fill="#000000" font-family="sans-serif" font-size="14" lengthAdjust="spacing" textLength="61.7012" x="228.5" y="356.292">Value : T</text><line style="stroke:#181818;stroke-width:0.5;" x1="209.5" x2="352.9863" y1="363.5938" y2="363.5938"/></g><!--class JobResults--><g class="entity" data-entity="JobResults" data-source-line="6" data-uid="ent0006" id="entity_JobResults"><rect fill="#F1F1F1" height="96.8906" rx="2.5" ry="2.5" style="stroke:#181818;stroke-width:0.5;" width="406.249" x="78" y="131"/><ellipse cx="240.4937" cy="147" fill="#ADD1B2" rx="11" ry="11" style="stroke:#181818;stroke-width:1;"/><path d="M243.4624,152.6406 Q242.8843,152.9375 242.2437,153.0781 Q241.603,153.2344 240.8999,153.2344 Q238.3999,153.2344 237.0718,151.5938 Q235.7593,149.9375 235.7593,146.8125 Q235.7593,143.6875 237.0718,142.0313 Q238.3999,140.375 240.8999,140.375 Q241.603,140.375 242.2437,140.5313 Q242.8999,140.6875 243.4624,140.9844 L243.4624,143.7031 Q242.8374,143.125 242.2437,142.8594 Q241.6499,142.5781 241.0249,142.5781 Q239.6812,142.5781 238.9937,143.6563 Q238.3062,144.7188 238.3062,146.8125 Q238.3062,148.9063 238.9937,149.9844 Q239.6812,151.0469 241.0249,151.0469 Q241.6499,151.0469 242.2437,150.7813 Q242.8374,150.5 243.4624,149.9219 L243.4624,152.6406 Z " fill="#000000"/><text fill="#000000" font-family="sans-serif" font-size="14" lengthAdjust="spacing" textLength="72.7617" x="260.9937" y="151.8467">JobResults</text><line style="stroke:#181818;stroke-width:0.5;" x1="79" x2="483.249" y1="163" y2="163"/><ellipse cx="89" cy="176.6484" fill="none" rx="3" ry="3" style="stroke:#038048;stroke-width:1;"/><text fill="#000000" font-family="sans-serif" font-size="14" lengthAdjust="spacing" textLength="343.54" x="98" y="179.9951">BooleanRangeResults : RegisterResult&lt;bool[]&gt;[]</text><ellipse cx="89" cy="192.9453" fill="none" rx="3" ry="3" style="stroke:#038048;stroke-width:1;"/><text fill="#000000" font-family="sans-serif" font-size="14" lengthAdjust="spacing" textLength="363.5967" x="98" y="196.292">NumericRangeResults : RegisterResult&lt;double[]&gt;[]</text><ellipse cx="89" cy="209.2422" fill="none" rx="3" ry="3" style="stroke:#038048;stroke-width:1;"/><text fill="#000000" font-family="sans-serif" font-size="14" lengthAdjust="spacing" textLength="380.249" x="98" y="212.5889">ComplexRangeResults : RegisterResult&lt;Complex[]&gt;[]</text><line style="stroke:#181818;stroke-width:0.5;" x1="79" x2="483.249" y1="219.8906" y2="219.8906"/></g><!--link JobResults to RegisterResult--><g class="link" data-entity-1="JobResults" data-entity-2="RegisterResult" data-source-line="2" data-uid="lnk7" id="link_JobResults_RegisterResult"><path codeLine="2" d="M485,175 C509.89,175 497.36,210 484,231 C455.25,276.21 405.1866,299.7646 359.3566,313.5246" fill="none" id="JobResults-to-RegisterResult" style="stroke:#181818;stroke-width:1;"/><polygon fill="#181818" points="353.61,315.25,363.3801,316.493,358.3988,313.8122,361.0796,308.8309,353.61,315.25" style="stroke:#181818;stroke-width:1;"/></g><!--link JobResults to RegisterResult--><g class="link" data-entity-1="JobResults" data-entity-2="RegisterResult" data-source-line="3" data-uid="lnk8" id="link_JobResults_RegisterResult"><path codeLine="3" d="M485,191 C502.78,191 493.6,216.03 484,231 C455.09,276.1 405.0355,299.671 359.2455,313.451" fill="none" id="JobResults-to-RegisterResult-1" style="stroke:#181818;stroke-width:1;"/><polygon fill="#181818" points="353.5,315.18,363.2709,316.4168,358.2879,313.7391,360.9655,308.7561,353.5,315.18" style="stroke:#181818;stroke-width:1;"/></g><!--link JobResults to RegisterResult--><g class="link" data-entity-1="JobResults" data-entity-2="RegisterResult" data-source-line="4" data-uid="lnk9" id="link_JobResults_RegisterResult"><path codeLine="4" d="M485,207 C556.73,207 443.4443,261.1719 359.1543,297.7419" fill="none" id="JobResults-to-RegisterResult-2" style="stroke:#181818;stroke-width:1;"/><polygon fill="#181818" points="353.65,300.13,363.4985,300.2174,358.2369,298.1399,360.3144,292.8784,353.65,300.13" style="stroke:#181818;stroke-width:1;"/></g><!--SRC=[KypCIyufJKbLqDCFIYqkpIafrYiepStXyifFWlAjh9poytDI4_E24lFIKw622hgwTWf1gUcPnIMfHH0n52r-fRcfHPd9f6Xnpiyjo4cj8A050000]--></g></svg>